M48
; DRILL file {KiCad 8.0.8} date 2025-02-11T11:41:46+0100
; FORMAT={-:-/ absolute / metric / decimal}
; #@! TF.CreationDate,2025-02-11T11:41:46+01:00
; #@! TF.GenerationSoftware,Kicad,Pcbnew,8.0.8
; #@! TF.FileFunction,Plated,1,2,PTH
FMAT,2
METRIC
; #@! TA.AperFunction,Plated,PTH,ViaDrill
T1C0.300
; #@! TA.AperFunction,Plated,PTH,ComponentDrill
T2C1.400
%
G90
G05
T1
X53.0Y-110.0
X53.0Y-114.0
X53.0Y-118.0
X54.0Y-52.0
X57.0Y-107.0
X57.0Y-118.0
X58.0Y-60.0
X58.0Y-72.15
X58.3Y-84.85
X58.4Y-97.55
X61.0Y-93.0
X61.0Y-97.0
X61.0Y-107.0
X61.0Y-118.0
X64.0Y-100.4
X65.0Y-110.0
X65.0Y-118.0
X69.0Y-60.0
X69.0Y-72.15
X69.0Y-97.55
X69.0Y-110.0
X69.0Y-118.0
X69.1Y-84.85
X72.0Y-52.0
X73.0Y-110.0
X73.0Y-118.0
X76.0Y-52.0
X77.0Y-110.0
X77.0Y-118.0
X77.15Y-59.45
X79.0Y-67.0
X79.0Y-78.0
X79.0Y-82.0
X80.0Y-52.0
X81.0Y-90.0
X81.0Y-101.0
X81.0Y-110.0
X81.0Y-118.0
X82.0Y-96.0
X83.0Y-86.0
X84.0Y-52.0
X85.0Y-110.0
X85.0Y-118.0
X87.2Y-78.2
X89.0Y-110.0
X89.0Y-118.0
X93.0Y-110.0
X93.0Y-118.0
X94.0Y-76.0
X94.0Y-78.0
X94.0Y-80.0
X94.0Y-82.0
X95.0Y-89.6
X95.0Y-92.6
X95.0Y-96.0
X97.0Y-110.0
X97.0Y-114.0
X97.0Y-118.0
X98.0Y-52.0
X98.0Y-62.0
X98.0Y-66.0
X98.0Y-70.0
T2
X85.07Y-102.94
X88.88Y-102.94
X89.19Y-56.5
X92.69Y-102.94
X93.0Y-56.5
X96.5Y-102.94
M30
