%TF.GenerationSoftware,KiCad,Pcbnew,8.0.8*%
%TF.CreationDate,2025-02-11T14:10:19+01:00*%
%TF.ProjectId,projet,70726f6a-6574-42e6-9b69-6361645f7063,rev?*%
%TF.SameCoordinates,Original*%
%TF.FileFunction,Copper,L2,Bot*%
%TF.FilePolarity,Positive*%
%FSLAX46Y46*%
G04 Gerber Fmt 4.6, Leading zero omitted, Abs format (unit mm)*
G04 Created by KiCad (PCBNEW 8.0.8) date 2025-02-11 14:10:19*
%MOMM*%
%LPD*%
G01*
G04 APERTURE LIST*
G04 Aperture macros list*
%AMRoundRect*
0 Rectangle with rounded corners*
0 $1 Rounding radius*
0 $2 $3 $4 $5 $6 $7 $8 $9 X,Y pos of 4 corners*
0 Add a 4 corners polygon primitive as box body*
4,1,4,$2,$3,$4,$5,$6,$7,$8,$9,$2,$3,0*
0 Add four circle primitives for the rounded corners*
1,1,$1+$1,$2,$3*
1,1,$1+$1,$4,$5*
1,1,$1+$1,$6,$7*
1,1,$1+$1,$8,$9*
0 Add four rect primitives between the rounded corners*
20,1,$1+$1,$2,$3,$4,$5,0*
20,1,$1+$1,$4,$5,$6,$7,0*
20,1,$1+$1,$6,$7,$8,$9,0*
20,1,$1+$1,$8,$9,$2,$3,0*%
G04 Aperture macros list end*
%TA.AperFunction,ComponentPad*%
%ADD10RoundRect,0.278000X0.722000X1.522000X-0.722000X1.522000X-0.722000X-1.522000X0.722000X-1.522000X0*%
%TD*%
%TA.AperFunction,ComponentPad*%
%ADD11O,2.000000X3.600000*%
%TD*%
%TA.AperFunction,ComponentPad*%
%ADD12RoundRect,0.278000X-0.722000X-1.522000X0.722000X-1.522000X0.722000X1.522000X-0.722000X1.522000X0*%
%TD*%
%TA.AperFunction,ViaPad*%
%ADD13C,0.600000*%
%TD*%
%TA.AperFunction,Conductor*%
%ADD14C,0.200000*%
%TD*%
G04 APERTURE END LIST*
D10*
%TO.P,J302,1*%
%TO.N,GND*%
X96500000Y-102940000D03*
D11*
%TO.P,J302,2*%
%TO.N,unconnected-(J302-Pad2)*%
X92690000Y-102940000D03*
%TO.P,J302,3*%
%TO.N,ruban_led_7*%
X88880000Y-102940000D03*
%TO.P,J302,4*%
%TO.N,+5V*%
X85070000Y-102940000D03*
%TD*%
D12*
%TO.P,J301,1,Pin_1*%
%TO.N,Net-(D301-A1)*%
X89190000Y-56500000D03*
D11*
%TO.P,J301,2,Pin_2*%
%TO.N,GND*%
X93000000Y-56500000D03*
%TD*%
D13*
%TO.N,GND*%
X89000000Y-74000000D03*
X78000000Y-105000000D03*
X79000000Y-101000000D03*
X80000000Y-83000000D03*
X91000000Y-78000000D03*
X57000000Y-118000000D03*
X94000000Y-82000000D03*
X98000000Y-70000000D03*
X57000000Y-107000000D03*
X77150000Y-59450000D03*
X80000000Y-52000000D03*
X81000000Y-118000000D03*
X61000000Y-107000000D03*
X73000000Y-110000000D03*
X58000000Y-60000000D03*
X65000000Y-118000000D03*
X97000000Y-118000000D03*
X79000000Y-67000000D03*
X89000000Y-110000000D03*
X69000000Y-97550000D03*
X98000000Y-52000000D03*
X69000000Y-110000000D03*
X65000000Y-110000000D03*
X77000000Y-118000000D03*
X89000000Y-81000000D03*
X58300000Y-84850000D03*
X93000000Y-118000000D03*
X72000000Y-52000000D03*
X79000000Y-78000000D03*
X53000000Y-114000000D03*
X73000000Y-118000000D03*
X85000000Y-110000000D03*
X77000000Y-110000000D03*
X69000000Y-72150000D03*
X54000000Y-52000000D03*
X64000000Y-100400000D03*
X98000000Y-62000000D03*
X94000000Y-76000000D03*
X89000000Y-118000000D03*
X61000000Y-118000000D03*
X82000000Y-80000000D03*
X97000000Y-110000000D03*
X69000000Y-60000000D03*
X84000000Y-52000000D03*
X97000000Y-114000000D03*
X69000000Y-118000000D03*
X58400000Y-97550000D03*
X76000000Y-52000000D03*
X93000000Y-110000000D03*
X81000000Y-110000000D03*
X58000000Y-72150000D03*
X53000000Y-110000000D03*
X98000000Y-66000000D03*
X53000000Y-118000000D03*
X69100000Y-84850000D03*
X85000000Y-118000000D03*
%TO.N,ruban_led_7*%
X61000000Y-97000000D03*
X61000000Y-93000000D03*
%TD*%
D14*
%TO.N,ruban_led_7*%
X61000000Y-93000000D02*
X61000000Y-97000000D01*
%TD*%
%TA.AperFunction,Conductor*%
%TO.N,GND*%
G36*
X99442539Y-50520185D02*
G01*
X99488294Y-50572989D01*
X99499500Y-50624500D01*
X99499500Y-119375500D01*
X99479815Y-119442539D01*
X99427011Y-119488294D01*
X99375500Y-119499500D01*
X50624500Y-119499500D01*
X50557461Y-119479815D01*
X50511706Y-119427011D01*
X50500500Y-119375500D01*
X50500500Y-102021902D01*
X83569500Y-102021902D01*
X83569500Y-103858097D01*
X83606446Y-104091368D01*
X83679433Y-104315996D01*
X83776091Y-104505696D01*
X83786657Y-104526433D01*
X83925483Y-104717510D01*
X84092490Y-104884517D01*
X84283567Y-105023343D01*
X84382991Y-105074002D01*
X84494003Y-105130566D01*
X84494005Y-105130566D01*
X84494008Y-105130568D01*
X84607328Y-105167388D01*
X84718631Y-105203553D01*
X84951903Y-105240500D01*
X84951908Y-105240500D01*
X85188097Y-105240500D01*
X85421368Y-105203553D01*
X85645992Y-105130568D01*
X85856433Y-105023343D01*
X86047510Y-104884517D01*
X86214517Y-104717510D01*
X86353343Y-104526433D01*
X86460568Y-104315992D01*
X86533553Y-104091368D01*
X86570500Y-103858097D01*
X86570500Y-102021902D01*
X87379500Y-102021902D01*
X87379500Y-103858097D01*
X87416446Y-104091368D01*
X87489433Y-104315996D01*
X87586091Y-104505696D01*
X87596657Y-104526433D01*
X87735483Y-104717510D01*
X87902490Y-104884517D01*
X88093567Y-105023343D01*
X88192991Y-105074002D01*
X88304003Y-105130566D01*
X88304005Y-105130566D01*
X88304008Y-105130568D01*
X88417328Y-105167388D01*
X88528631Y-105203553D01*
X88761903Y-105240500D01*
X88761908Y-105240500D01*
X88998097Y-105240500D01*
X89231368Y-105203553D01*
X89455992Y-105130568D01*
X89666433Y-105023343D01*
X89857510Y-104884517D01*
X90024517Y-104717510D01*
X90163343Y-104526433D01*
X90270568Y-104315992D01*
X90343553Y-104091368D01*
X90380500Y-103858097D01*
X90380500Y-102021902D01*
X91189500Y-102021902D01*
X91189500Y-103858097D01*
X91226446Y-104091368D01*
X91299433Y-104315996D01*
X91396091Y-104505696D01*
X91406657Y-104526433D01*
X91545483Y-104717510D01*
X91712490Y-104884517D01*
X91903567Y-105023343D01*
X92002991Y-105074002D01*
X92114003Y-105130566D01*
X92114005Y-105130566D01*
X92114008Y-105130568D01*
X92227328Y-105167388D01*
X92338631Y-105203553D01*
X92571903Y-105240500D01*
X92571908Y-105240500D01*
X92808097Y-105240500D01*
X93041368Y-105203553D01*
X93265992Y-105130568D01*
X93476433Y-105023343D01*
X93667510Y-104884517D01*
X93834517Y-104717510D01*
X93973343Y-104526433D01*
X94080568Y-104315992D01*
X94153553Y-104091368D01*
X94190500Y-103858097D01*
X94190500Y-102021902D01*
X94153553Y-101788631D01*
X94080566Y-101564003D01*
X93983909Y-101374304D01*
X93983908Y-101374303D01*
X95000000Y-101374303D01*
X95000000Y-102690000D01*
X95845879Y-102690000D01*
X95826901Y-102735818D01*
X95800000Y-102871056D01*
X95800000Y-103008944D01*
X95826901Y-103144182D01*
X95845879Y-103190000D01*
X95000000Y-103190000D01*
X95000000Y-104505696D01*
X95014705Y-104636214D01*
X95072611Y-104801698D01*
X95165886Y-104950145D01*
X95289854Y-105074113D01*
X95438301Y-105167388D01*
X95603785Y-105225294D01*
X95734303Y-105239999D01*
X95734304Y-105240000D01*
X96250000Y-105240000D01*
X96250000Y-103594120D01*
X96295818Y-103613099D01*
X96431056Y-103640000D01*
X96568944Y-103640000D01*
X96704182Y-103613099D01*
X96750000Y-103594120D01*
X96750000Y-105240000D01*
X97265696Y-105240000D01*
X97265696Y-105239999D01*
X97396214Y-105225294D01*
X97561698Y-105167388D01*
X97710145Y-105074113D01*
X97834113Y-104950145D01*
X97927388Y-104801698D01*
X97985294Y-104636214D01*
X97999999Y-104505696D01*
X98000000Y-104505696D01*
X98000000Y-103190000D01*
X97154121Y-103190000D01*
X97173099Y-103144182D01*
X97200000Y-103008944D01*
X97200000Y-102871056D01*
X97173099Y-102735818D01*
X97154121Y-102690000D01*
X98000000Y-102690000D01*
X98000000Y-101374304D01*
X97999999Y-101374303D01*
X97985294Y-101243785D01*
X97927388Y-101078301D01*
X97834113Y-100929854D01*
X97710145Y-100805886D01*
X97561698Y-100712611D01*
X97396214Y-100654705D01*
X97265696Y-100640000D01*
X96750000Y-100640000D01*
X96750000Y-102285879D01*
X96704182Y-102266901D01*
X96568944Y-102240000D01*
X96431056Y-102240000D01*
X96295818Y-102266901D01*
X96250000Y-102285879D01*
X96250000Y-100640000D01*
X95734304Y-100640000D01*
X95603785Y-100654705D01*
X95438301Y-100712611D01*
X95289854Y-100805886D01*
X95165886Y-100929854D01*
X95072611Y-101078301D01*
X95014705Y-101243785D01*
X95000000Y-101374303D01*
X93983908Y-101374303D01*
X93973343Y-101353567D01*
X93834517Y-101162490D01*
X93667510Y-100995483D01*
X93476433Y-100856657D01*
X93265996Y-100749433D01*
X93041368Y-100676446D01*
X92808097Y-100639500D01*
X92808092Y-100639500D01*
X92571908Y-100639500D01*
X92571903Y-100639500D01*
X92338631Y-100676446D01*
X92114003Y-100749433D01*
X91903566Y-100856657D01*
X91802820Y-100929854D01*
X91712490Y-100995483D01*
X91712488Y-100995485D01*
X91712487Y-100995485D01*
X91545485Y-101162487D01*
X91545485Y-101162488D01*
X91545483Y-101162490D01*
X91486419Y-101243785D01*
X91406657Y-101353566D01*
X91299433Y-101564003D01*
X91226446Y-101788631D01*
X91189500Y-102021902D01*
X90380500Y-102021902D01*
X90343553Y-101788631D01*
X90270566Y-101564003D01*
X90173909Y-101374304D01*
X90163343Y-101353567D01*
X90024517Y-101162490D01*
X89857510Y-100995483D01*
X89666433Y-100856657D01*
X89455996Y-100749433D01*
X89231368Y-100676446D01*
X88998097Y-100639500D01*
X88998092Y-100639500D01*
X88761908Y-100639500D01*
X88761903Y-100639500D01*
X88528631Y-100676446D01*
X88304003Y-100749433D01*
X88093566Y-100856657D01*
X87992820Y-100929854D01*
X87902490Y-100995483D01*
X87902488Y-100995485D01*
X87902487Y-100995485D01*
X87735485Y-101162487D01*
X87735485Y-101162488D01*
X87735483Y-101162490D01*
X87676419Y-101243785D01*
X87596657Y-101353566D01*
X87489433Y-101564003D01*
X87416446Y-101788631D01*
X87379500Y-102021902D01*
X86570500Y-102021902D01*
X86533553Y-101788631D01*
X86460566Y-101564003D01*
X86363909Y-101374304D01*
X86353343Y-101353567D01*
X86214517Y-101162490D01*
X86047510Y-100995483D01*
X85856433Y-100856657D01*
X85645996Y-100749433D01*
X85421368Y-100676446D01*
X85188097Y-100639500D01*
X85188092Y-100639500D01*
X84951908Y-100639500D01*
X84951903Y-100639500D01*
X84718631Y-100676446D01*
X84494003Y-100749433D01*
X84283566Y-100856657D01*
X84182820Y-100929854D01*
X84092490Y-100995483D01*
X84092488Y-100995485D01*
X84092487Y-100995485D01*
X83925485Y-101162487D01*
X83925485Y-101162488D01*
X83925483Y-101162490D01*
X83866419Y-101243785D01*
X83786657Y-101353566D01*
X83679433Y-101564003D01*
X83606446Y-101788631D01*
X83569500Y-102021902D01*
X50500500Y-102021902D01*
X50500500Y-92999996D01*
X60194435Y-92999996D01*
X60194435Y-93000003D01*
X60214630Y-93179249D01*
X60214631Y-93179254D01*
X60274211Y-93349523D01*
X60370185Y-93502263D01*
X60372445Y-93505097D01*
X60373334Y-93507275D01*
X60373889Y-93508158D01*
X60373734Y-93508255D01*
X60398855Y-93569783D01*
X60399500Y-93582412D01*
X60399500Y-96417587D01*
X60379815Y-96484626D01*
X60372450Y-96494896D01*
X60370186Y-96497734D01*
X60274211Y-96650476D01*
X60214631Y-96820745D01*
X60214630Y-96820750D01*
X60194435Y-96999996D01*
X60194435Y-97000003D01*
X60214630Y-97179249D01*
X60214631Y-97179254D01*
X60274211Y-97349523D01*
X60370184Y-97502262D01*
X60497738Y-97629816D01*
X60650478Y-97725789D01*
X60820745Y-97785368D01*
X60820750Y-97785369D01*
X60999996Y-97805565D01*
X61000000Y-97805565D01*
X61000004Y-97805565D01*
X61179249Y-97785369D01*
X61179252Y-97785368D01*
X61179255Y-97785368D01*
X61349522Y-97725789D01*
X61502262Y-97629816D01*
X61629816Y-97502262D01*
X61725789Y-97349522D01*
X61785368Y-97179255D01*
X61805565Y-97000000D01*
X61785368Y-96820745D01*
X61725789Y-96650478D01*
X61629816Y-96497738D01*
X61629814Y-96497736D01*
X61629813Y-96497734D01*
X61627550Y-96494896D01*
X61626659Y-96492715D01*
X61626111Y-96491842D01*
X61626264Y-96491745D01*
X61601144Y-96430209D01*
X61600500Y-96417587D01*
X61600500Y-93582412D01*
X61620185Y-93515373D01*
X61627555Y-93505097D01*
X61629810Y-93502267D01*
X61629816Y-93502262D01*
X61725789Y-93349522D01*
X61785368Y-93179255D01*
X61805565Y-93000000D01*
X61785368Y-92820745D01*
X61725789Y-92650478D01*
X61629816Y-92497738D01*
X61502262Y-92370184D01*
X61349523Y-92274211D01*
X61179254Y-92214631D01*
X61179249Y-92214630D01*
X61000004Y-92194435D01*
X60999996Y-92194435D01*
X60820750Y-92214630D01*
X60820745Y-92214631D01*
X60650476Y-92274211D01*
X60497737Y-92370184D01*
X60370184Y-92497737D01*
X60274211Y-92650476D01*
X60214631Y-92820745D01*
X60214630Y-92820750D01*
X60194435Y-92999996D01*
X50500500Y-92999996D01*
X50500500Y-54934273D01*
X87689500Y-54934273D01*
X87689500Y-58065726D01*
X87704214Y-58196325D01*
X87762157Y-58361915D01*
X87762158Y-58361916D01*
X87855493Y-58510458D01*
X87979542Y-58634507D01*
X88128084Y-58727842D01*
X88274569Y-58779100D01*
X88293674Y-58785785D01*
X88392673Y-58796938D01*
X88424274Y-58800499D01*
X88424277Y-58800500D01*
X88424280Y-58800500D01*
X89955723Y-58800500D01*
X89955724Y-58800499D01*
X90004175Y-58795040D01*
X90086325Y-58785785D01*
X90086327Y-58785784D01*
X90086329Y-58785784D01*
X90251916Y-58727842D01*
X90400458Y-58634507D01*
X90524507Y-58510458D01*
X90617842Y-58361916D01*
X90675784Y-58196329D01*
X90675784Y-58196327D01*
X90675785Y-58196325D01*
X90690499Y-58065726D01*
X90690500Y-58065722D01*
X90690500Y-55581947D01*
X91500000Y-55581947D01*
X91500000Y-56250000D01*
X92345879Y-56250000D01*
X92326901Y-56295818D01*
X92300000Y-56431056D01*
X92300000Y-56568944D01*
X92326901Y-56704182D01*
X92345879Y-56750000D01*
X91500000Y-56750000D01*
X91500000Y-57418052D01*
X91536934Y-57651247D01*
X91609897Y-57875802D01*
X91717085Y-58086171D01*
X91855866Y-58277186D01*
X92022813Y-58444133D01*
X92213828Y-58582914D01*
X92424195Y-58690102D01*
X92648744Y-58763063D01*
X92648750Y-58763065D01*
X92750000Y-58779101D01*
X92750000Y-57154120D01*
X92795818Y-57173099D01*
X92931056Y-57200000D01*
X93068944Y-57200000D01*
X93204182Y-57173099D01*
X93250000Y-57154120D01*
X93250000Y-58779100D01*
X93351249Y-58763065D01*
X93351255Y-58763063D01*
X93575804Y-58690102D01*
X93786171Y-58582914D01*
X93977186Y-58444133D01*
X94144133Y-58277186D01*
X94282914Y-58086171D01*
X94390102Y-57875802D01*
X94463065Y-57651247D01*
X94500000Y-57418052D01*
X94500000Y-56750000D01*
X93654121Y-56750000D01*
X93673099Y-56704182D01*
X93700000Y-56568944D01*
X93700000Y-56431056D01*
X93673099Y-56295818D01*
X93654121Y-56250000D01*
X94500000Y-56250000D01*
X94500000Y-55581947D01*
X94463065Y-55348752D01*
X94390102Y-55124197D01*
X94282914Y-54913828D01*
X94144133Y-54722813D01*
X93977186Y-54555866D01*
X93786171Y-54417085D01*
X93575802Y-54309897D01*
X93351247Y-54236934D01*
X93250000Y-54220897D01*
X93250000Y-55845879D01*
X93204182Y-55826901D01*
X93068944Y-55800000D01*
X92931056Y-55800000D01*
X92795818Y-55826901D01*
X92750000Y-55845879D01*
X92750000Y-54220897D01*
X92648752Y-54236934D01*
X92424197Y-54309897D01*
X92213828Y-54417085D01*
X92022813Y-54555866D01*
X91855866Y-54722813D01*
X91717085Y-54913828D01*
X91609897Y-55124197D01*
X91536934Y-55348752D01*
X91500000Y-55581947D01*
X90690500Y-55581947D01*
X90690500Y-54934277D01*
X90690499Y-54934273D01*
X90675785Y-54803674D01*
X90617842Y-54638084D01*
X90617840Y-54638081D01*
X90524506Y-54489541D01*
X90400458Y-54365493D01*
X90251918Y-54272159D01*
X90251915Y-54272157D01*
X90086325Y-54214214D01*
X89955726Y-54199500D01*
X89955720Y-54199500D01*
X88424280Y-54199500D01*
X88424273Y-54199500D01*
X88293674Y-54214214D01*
X88128084Y-54272157D01*
X88128081Y-54272159D01*
X87979541Y-54365493D01*
X87855493Y-54489541D01*
X87762159Y-54638081D01*
X87762157Y-54638084D01*
X87704214Y-54803674D01*
X87689500Y-54934273D01*
X50500500Y-54934273D01*
X50500500Y-50624500D01*
X50520185Y-50557461D01*
X50572989Y-50511706D01*
X50624500Y-50500500D01*
X99375500Y-50500500D01*
X99442539Y-50520185D01*
G37*
%TD.AperFunction*%
%TD*%
M02*
