%TF.GenerationSoftware,KiCad,Pcbnew,8.0.8*%
%TF.CreationDate,2025-02-11T11:45:33+01:00*%
%TF.ProjectId,projet,70726f6a-6574-42e6-9b69-6361645f7063,rev?*%
%TF.SameCoordinates,Original*%
%TF.FileFunction,Soldermask,Top*%
%TF.FilePolarity,Negative*%
%FSLAX46Y46*%
G04 Gerber Fmt 4.6, Leading zero omitted, Abs format (unit mm)*
G04 Created by KiCad (PCBNEW 8.0.8) date 2025-02-11 11:45:33*
%MOMM*%
%LPD*%
G01*
G04 APERTURE LIST*
G04 Aperture macros list*
%AMRoundRect*
0 Rectangle with rounded corners*
0 $1 Rounding radius*
0 $2 $3 $4 $5 $6 $7 $8 $9 X,Y pos of 4 corners*
0 Add a 4 corners polygon primitive as box body*
4,1,4,$2,$3,$4,$5,$6,$7,$8,$9,$2,$3,0*
0 Add four circle primitives for the rounded corners*
1,1,$1+$1,$2,$3*
1,1,$1+$1,$4,$5*
1,1,$1+$1,$6,$7*
1,1,$1+$1,$8,$9*
0 Add four rect primitives between the rounded corners*
20,1,$1+$1,$2,$3,$4,$5,0*
20,1,$1+$1,$4,$5,$6,$7,0*
20,1,$1+$1,$6,$7,$8,$9,0*
20,1,$1+$1,$8,$9,$2,$3,0*%
G04 Aperture macros list end*
%ADD10C,0.010000*%
%ADD11C,2.000000*%
%ADD12RoundRect,0.170000X-0.220000X0.170000X-0.220000X-0.170000X0.220000X-0.170000X0.220000X0.170000X0*%
%ADD13RoundRect,0.188000X-0.332000X-0.282000X0.332000X-0.282000X0.332000X0.282000X-0.332000X0.282000X0*%
%ADD14RoundRect,0.134286X-0.385714X-0.335714X0.385714X-0.335714X0.385714X0.335714X-0.385714X0.335714X0*%
%ADD15RoundRect,0.102000X-1.700000X0.890000X-1.700000X-0.890000X1.700000X-0.890000X1.700000X0.890000X0*%
%ADD16RoundRect,0.188000X0.332000X0.282000X-0.332000X0.282000X-0.332000X-0.282000X0.332000X-0.282000X0*%
%ADD17RoundRect,0.134286X0.385714X0.335714X-0.385714X0.335714X-0.385714X-0.335714X0.385714X-0.335714X0*%
%ADD18O,2.000000X3.600000*%
%ADD19RoundRect,0.278000X0.722000X1.522000X-0.722000X1.522000X-0.722000X-1.522000X0.722000X-1.522000X0*%
%ADD20RoundRect,0.285000X-0.285000X-0.310000X0.285000X-0.310000X0.285000X0.310000X-0.285000X0.310000X0*%
%ADD21RoundRect,0.100000X-0.350000X-0.300000X0.350000X-0.300000X0.350000X0.300000X-0.350000X0.300000X0*%
%ADD22RoundRect,0.170000X-0.170000X-0.220000X0.170000X-0.220000X0.170000X0.220000X-0.170000X0.220000X0*%
%ADD23RoundRect,0.278000X-0.722000X-1.522000X0.722000X-1.522000X0.722000X1.522000X-0.722000X1.522000X0*%
%ADD24RoundRect,0.175000X-0.525000X-0.175000X0.525000X-0.175000X0.525000X0.175000X-0.525000X0.175000X0*%
%ADD25O,1.304000X2.004000*%
%ADD26O,1.254000X1.654000*%
%ADD27RoundRect,0.340800X-0.511200X-0.511200X0.511200X-0.511200X0.511200X0.511200X-0.511200X0.511200X0*%
G04 APERTURE END LIST*
%TO.C,R302*%
G36*
X90410000Y-80540000D02*
G01*
X91190000Y-80540000D01*
X91190000Y-81470000D01*
X90410000Y-81470000D01*
X90410000Y-80540000D01*
G37*
%TO.C,R301*%
G36*
X86290000Y-84390000D02*
G01*
X87220000Y-84390000D01*
X87220000Y-83610000D01*
X86290000Y-83610000D01*
X86290000Y-84390000D01*
G37*
D10*
%TO.C,U301*%
X55157000Y-53471000D02*
X55204000Y-53475000D01*
X55251000Y-53481000D01*
X55297000Y-53490000D01*
X55343000Y-53501000D01*
X55388000Y-53514000D01*
X55433000Y-53530000D01*
X55476000Y-53548000D01*
X55519000Y-53568000D01*
X55560000Y-53591000D01*
X55600000Y-53615000D01*
X55639000Y-53642000D01*
X55676000Y-53671000D01*
X55712000Y-53701000D01*
X55746000Y-53734000D01*
X55779000Y-53768000D01*
X55809000Y-53804000D01*
X55838000Y-53841000D01*
X55865000Y-53880000D01*
X55889000Y-53920000D01*
X55912000Y-53961000D01*
X55932000Y-54004000D01*
X55950000Y-54047000D01*
X55966000Y-54092000D01*
X55979000Y-54137000D01*
X55990000Y-54183000D01*
X55999000Y-54229000D01*
X56005000Y-54276000D01*
X56009000Y-54323000D01*
X56010000Y-54370000D01*
X56009000Y-54417000D01*
X56005000Y-54464000D01*
X55999000Y-54511000D01*
X55990000Y-54557000D01*
X55979000Y-54603000D01*
X55966000Y-54648000D01*
X55950000Y-54693000D01*
X55932000Y-54736000D01*
X55912000Y-54779000D01*
X55889000Y-54820000D01*
X55865000Y-54860000D01*
X55838000Y-54899000D01*
X55809000Y-54936000D01*
X55779000Y-54972000D01*
X55746000Y-55006000D01*
X55712000Y-55039000D01*
X55676000Y-55069000D01*
X55639000Y-55098000D01*
X55600000Y-55125000D01*
X55560000Y-55149000D01*
X55519000Y-55172000D01*
X55476000Y-55192000D01*
X55433000Y-55210000D01*
X55388000Y-55226000D01*
X55343000Y-55239000D01*
X55297000Y-55250000D01*
X55251000Y-55259000D01*
X55204000Y-55265000D01*
X55157000Y-55269000D01*
X55110000Y-55270000D01*
X52610000Y-55270000D01*
X52610000Y-53470000D01*
X55110000Y-53470000D01*
X55157000Y-53471000D01*
G36*
X55157000Y-53471000D02*
G01*
X55204000Y-53475000D01*
X55251000Y-53481000D01*
X55297000Y-53490000D01*
X55343000Y-53501000D01*
X55388000Y-53514000D01*
X55433000Y-53530000D01*
X55476000Y-53548000D01*
X55519000Y-53568000D01*
X55560000Y-53591000D01*
X55600000Y-53615000D01*
X55639000Y-53642000D01*
X55676000Y-53671000D01*
X55712000Y-53701000D01*
X55746000Y-53734000D01*
X55779000Y-53768000D01*
X55809000Y-53804000D01*
X55838000Y-53841000D01*
X55865000Y-53880000D01*
X55889000Y-53920000D01*
X55912000Y-53961000D01*
X55932000Y-54004000D01*
X55950000Y-54047000D01*
X55966000Y-54092000D01*
X55979000Y-54137000D01*
X55990000Y-54183000D01*
X55999000Y-54229000D01*
X56005000Y-54276000D01*
X56009000Y-54323000D01*
X56010000Y-54370000D01*
X56009000Y-54417000D01*
X56005000Y-54464000D01*
X55999000Y-54511000D01*
X55990000Y-54557000D01*
X55979000Y-54603000D01*
X55966000Y-54648000D01*
X55950000Y-54693000D01*
X55932000Y-54736000D01*
X55912000Y-54779000D01*
X55889000Y-54820000D01*
X55865000Y-54860000D01*
X55838000Y-54899000D01*
X55809000Y-54936000D01*
X55779000Y-54972000D01*
X55746000Y-55006000D01*
X55712000Y-55039000D01*
X55676000Y-55069000D01*
X55639000Y-55098000D01*
X55600000Y-55125000D01*
X55560000Y-55149000D01*
X55519000Y-55172000D01*
X55476000Y-55192000D01*
X55433000Y-55210000D01*
X55388000Y-55226000D01*
X55343000Y-55239000D01*
X55297000Y-55250000D01*
X55251000Y-55259000D01*
X55204000Y-55265000D01*
X55157000Y-55269000D01*
X55110000Y-55270000D01*
X52610000Y-55270000D01*
X52610000Y-53470000D01*
X55110000Y-53470000D01*
X55157000Y-53471000D01*
G37*
X55157000Y-56011000D02*
X55204000Y-56015000D01*
X55251000Y-56021000D01*
X55297000Y-56030000D01*
X55343000Y-56041000D01*
X55388000Y-56054000D01*
X55433000Y-56070000D01*
X55476000Y-56088000D01*
X55519000Y-56108000D01*
X55560000Y-56131000D01*
X55600000Y-56155000D01*
X55639000Y-56182000D01*
X55676000Y-56211000D01*
X55712000Y-56241000D01*
X55746000Y-56274000D01*
X55779000Y-56308000D01*
X55809000Y-56344000D01*
X55838000Y-56381000D01*
X55865000Y-56420000D01*
X55889000Y-56460000D01*
X55912000Y-56501000D01*
X55932000Y-56544000D01*
X55950000Y-56587000D01*
X55966000Y-56632000D01*
X55979000Y-56677000D01*
X55990000Y-56723000D01*
X55999000Y-56769000D01*
X56005000Y-56816000D01*
X56009000Y-56863000D01*
X56010000Y-56910000D01*
X56009000Y-56957000D01*
X56005000Y-57004000D01*
X55999000Y-57051000D01*
X55990000Y-57097000D01*
X55979000Y-57143000D01*
X55966000Y-57188000D01*
X55950000Y-57233000D01*
X55932000Y-57276000D01*
X55912000Y-57319000D01*
X55889000Y-57360000D01*
X55865000Y-57400000D01*
X55838000Y-57439000D01*
X55809000Y-57476000D01*
X55779000Y-57512000D01*
X55746000Y-57546000D01*
X55712000Y-57579000D01*
X55676000Y-57609000D01*
X55639000Y-57638000D01*
X55600000Y-57665000D01*
X55560000Y-57689000D01*
X55519000Y-57712000D01*
X55476000Y-57732000D01*
X55433000Y-57750000D01*
X55388000Y-57766000D01*
X55343000Y-57779000D01*
X55297000Y-57790000D01*
X55251000Y-57799000D01*
X55204000Y-57805000D01*
X55157000Y-57809000D01*
X55110000Y-57810000D01*
X52610000Y-57810000D01*
X52610000Y-56010000D01*
X55110000Y-56010000D01*
X55157000Y-56011000D01*
G36*
X55157000Y-56011000D02*
G01*
X55204000Y-56015000D01*
X55251000Y-56021000D01*
X55297000Y-56030000D01*
X55343000Y-56041000D01*
X55388000Y-56054000D01*
X55433000Y-56070000D01*
X55476000Y-56088000D01*
X55519000Y-56108000D01*
X55560000Y-56131000D01*
X55600000Y-56155000D01*
X55639000Y-56182000D01*
X55676000Y-56211000D01*
X55712000Y-56241000D01*
X55746000Y-56274000D01*
X55779000Y-56308000D01*
X55809000Y-56344000D01*
X55838000Y-56381000D01*
X55865000Y-56420000D01*
X55889000Y-56460000D01*
X55912000Y-56501000D01*
X55932000Y-56544000D01*
X55950000Y-56587000D01*
X55966000Y-56632000D01*
X55979000Y-56677000D01*
X55990000Y-56723000D01*
X55999000Y-56769000D01*
X56005000Y-56816000D01*
X56009000Y-56863000D01*
X56010000Y-56910000D01*
X56009000Y-56957000D01*
X56005000Y-57004000D01*
X55999000Y-57051000D01*
X55990000Y-57097000D01*
X55979000Y-57143000D01*
X55966000Y-57188000D01*
X55950000Y-57233000D01*
X55932000Y-57276000D01*
X55912000Y-57319000D01*
X55889000Y-57360000D01*
X55865000Y-57400000D01*
X55838000Y-57439000D01*
X55809000Y-57476000D01*
X55779000Y-57512000D01*
X55746000Y-57546000D01*
X55712000Y-57579000D01*
X55676000Y-57609000D01*
X55639000Y-57638000D01*
X55600000Y-57665000D01*
X55560000Y-57689000D01*
X55519000Y-57712000D01*
X55476000Y-57732000D01*
X55433000Y-57750000D01*
X55388000Y-57766000D01*
X55343000Y-57779000D01*
X55297000Y-57790000D01*
X55251000Y-57799000D01*
X55204000Y-57805000D01*
X55157000Y-57809000D01*
X55110000Y-57810000D01*
X52610000Y-57810000D01*
X52610000Y-56010000D01*
X55110000Y-56010000D01*
X55157000Y-56011000D01*
G37*
X55157000Y-61091000D02*
X55204000Y-61095000D01*
X55251000Y-61101000D01*
X55297000Y-61110000D01*
X55343000Y-61121000D01*
X55388000Y-61134000D01*
X55433000Y-61150000D01*
X55476000Y-61168000D01*
X55519000Y-61188000D01*
X55560000Y-61211000D01*
X55600000Y-61235000D01*
X55639000Y-61262000D01*
X55676000Y-61291000D01*
X55712000Y-61321000D01*
X55746000Y-61354000D01*
X55779000Y-61388000D01*
X55809000Y-61424000D01*
X55838000Y-61461000D01*
X55865000Y-61500000D01*
X55889000Y-61540000D01*
X55912000Y-61581000D01*
X55932000Y-61624000D01*
X55950000Y-61667000D01*
X55966000Y-61712000D01*
X55979000Y-61757000D01*
X55990000Y-61803000D01*
X55999000Y-61849000D01*
X56005000Y-61896000D01*
X56009000Y-61943000D01*
X56010000Y-61990000D01*
X56009000Y-62037000D01*
X56005000Y-62084000D01*
X55999000Y-62131000D01*
X55990000Y-62177000D01*
X55979000Y-62223000D01*
X55966000Y-62268000D01*
X55950000Y-62313000D01*
X55932000Y-62356000D01*
X55912000Y-62399000D01*
X55889000Y-62440000D01*
X55865000Y-62480000D01*
X55838000Y-62519000D01*
X55809000Y-62556000D01*
X55779000Y-62592000D01*
X55746000Y-62626000D01*
X55712000Y-62659000D01*
X55676000Y-62689000D01*
X55639000Y-62718000D01*
X55600000Y-62745000D01*
X55560000Y-62769000D01*
X55519000Y-62792000D01*
X55476000Y-62812000D01*
X55433000Y-62830000D01*
X55388000Y-62846000D01*
X55343000Y-62859000D01*
X55297000Y-62870000D01*
X55251000Y-62879000D01*
X55204000Y-62885000D01*
X55157000Y-62889000D01*
X55110000Y-62890000D01*
X52610000Y-62890000D01*
X52610000Y-61090000D01*
X55110000Y-61090000D01*
X55157000Y-61091000D01*
G36*
X55157000Y-61091000D02*
G01*
X55204000Y-61095000D01*
X55251000Y-61101000D01*
X55297000Y-61110000D01*
X55343000Y-61121000D01*
X55388000Y-61134000D01*
X55433000Y-61150000D01*
X55476000Y-61168000D01*
X55519000Y-61188000D01*
X55560000Y-61211000D01*
X55600000Y-61235000D01*
X55639000Y-61262000D01*
X55676000Y-61291000D01*
X55712000Y-61321000D01*
X55746000Y-61354000D01*
X55779000Y-61388000D01*
X55809000Y-61424000D01*
X55838000Y-61461000D01*
X55865000Y-61500000D01*
X55889000Y-61540000D01*
X55912000Y-61581000D01*
X55932000Y-61624000D01*
X55950000Y-61667000D01*
X55966000Y-61712000D01*
X55979000Y-61757000D01*
X55990000Y-61803000D01*
X55999000Y-61849000D01*
X56005000Y-61896000D01*
X56009000Y-61943000D01*
X56010000Y-61990000D01*
X56009000Y-62037000D01*
X56005000Y-62084000D01*
X55999000Y-62131000D01*
X55990000Y-62177000D01*
X55979000Y-62223000D01*
X55966000Y-62268000D01*
X55950000Y-62313000D01*
X55932000Y-62356000D01*
X55912000Y-62399000D01*
X55889000Y-62440000D01*
X55865000Y-62480000D01*
X55838000Y-62519000D01*
X55809000Y-62556000D01*
X55779000Y-62592000D01*
X55746000Y-62626000D01*
X55712000Y-62659000D01*
X55676000Y-62689000D01*
X55639000Y-62718000D01*
X55600000Y-62745000D01*
X55560000Y-62769000D01*
X55519000Y-62792000D01*
X55476000Y-62812000D01*
X55433000Y-62830000D01*
X55388000Y-62846000D01*
X55343000Y-62859000D01*
X55297000Y-62870000D01*
X55251000Y-62879000D01*
X55204000Y-62885000D01*
X55157000Y-62889000D01*
X55110000Y-62890000D01*
X52610000Y-62890000D01*
X52610000Y-61090000D01*
X55110000Y-61090000D01*
X55157000Y-61091000D01*
G37*
X55157000Y-63631000D02*
X55204000Y-63635000D01*
X55251000Y-63641000D01*
X55297000Y-63650000D01*
X55343000Y-63661000D01*
X55388000Y-63674000D01*
X55433000Y-63690000D01*
X55476000Y-63708000D01*
X55519000Y-63728000D01*
X55560000Y-63751000D01*
X55600000Y-63775000D01*
X55639000Y-63802000D01*
X55676000Y-63831000D01*
X55712000Y-63861000D01*
X55746000Y-63894000D01*
X55779000Y-63928000D01*
X55809000Y-63964000D01*
X55838000Y-64001000D01*
X55865000Y-64040000D01*
X55889000Y-64080000D01*
X55912000Y-64121000D01*
X55932000Y-64164000D01*
X55950000Y-64207000D01*
X55966000Y-64252000D01*
X55979000Y-64297000D01*
X55990000Y-64343000D01*
X55999000Y-64389000D01*
X56005000Y-64436000D01*
X56009000Y-64483000D01*
X56010000Y-64530000D01*
X56009000Y-64577000D01*
X56005000Y-64624000D01*
X55999000Y-64671000D01*
X55990000Y-64717000D01*
X55979000Y-64763000D01*
X55966000Y-64808000D01*
X55950000Y-64853000D01*
X55932000Y-64896000D01*
X55912000Y-64939000D01*
X55889000Y-64980000D01*
X55865000Y-65020000D01*
X55838000Y-65059000D01*
X55809000Y-65096000D01*
X55779000Y-65132000D01*
X55746000Y-65166000D01*
X55712000Y-65199000D01*
X55676000Y-65229000D01*
X55639000Y-65258000D01*
X55600000Y-65285000D01*
X55560000Y-65309000D01*
X55519000Y-65332000D01*
X55476000Y-65352000D01*
X55433000Y-65370000D01*
X55388000Y-65386000D01*
X55343000Y-65399000D01*
X55297000Y-65410000D01*
X55251000Y-65419000D01*
X55204000Y-65425000D01*
X55157000Y-65429000D01*
X55110000Y-65430000D01*
X52610000Y-65430000D01*
X52610000Y-63630000D01*
X55110000Y-63630000D01*
X55157000Y-63631000D01*
G36*
X55157000Y-63631000D02*
G01*
X55204000Y-63635000D01*
X55251000Y-63641000D01*
X55297000Y-63650000D01*
X55343000Y-63661000D01*
X55388000Y-63674000D01*
X55433000Y-63690000D01*
X55476000Y-63708000D01*
X55519000Y-63728000D01*
X55560000Y-63751000D01*
X55600000Y-63775000D01*
X55639000Y-63802000D01*
X55676000Y-63831000D01*
X55712000Y-63861000D01*
X55746000Y-63894000D01*
X55779000Y-63928000D01*
X55809000Y-63964000D01*
X55838000Y-64001000D01*
X55865000Y-64040000D01*
X55889000Y-64080000D01*
X55912000Y-64121000D01*
X55932000Y-64164000D01*
X55950000Y-64207000D01*
X55966000Y-64252000D01*
X55979000Y-64297000D01*
X55990000Y-64343000D01*
X55999000Y-64389000D01*
X56005000Y-64436000D01*
X56009000Y-64483000D01*
X56010000Y-64530000D01*
X56009000Y-64577000D01*
X56005000Y-64624000D01*
X55999000Y-64671000D01*
X55990000Y-64717000D01*
X55979000Y-64763000D01*
X55966000Y-64808000D01*
X55950000Y-64853000D01*
X55932000Y-64896000D01*
X55912000Y-64939000D01*
X55889000Y-64980000D01*
X55865000Y-65020000D01*
X55838000Y-65059000D01*
X55809000Y-65096000D01*
X55779000Y-65132000D01*
X55746000Y-65166000D01*
X55712000Y-65199000D01*
X55676000Y-65229000D01*
X55639000Y-65258000D01*
X55600000Y-65285000D01*
X55560000Y-65309000D01*
X55519000Y-65332000D01*
X55476000Y-65352000D01*
X55433000Y-65370000D01*
X55388000Y-65386000D01*
X55343000Y-65399000D01*
X55297000Y-65410000D01*
X55251000Y-65419000D01*
X55204000Y-65425000D01*
X55157000Y-65429000D01*
X55110000Y-65430000D01*
X52610000Y-65430000D01*
X52610000Y-63630000D01*
X55110000Y-63630000D01*
X55157000Y-63631000D01*
G37*
X55157000Y-66171000D02*
X55204000Y-66175000D01*
X55251000Y-66181000D01*
X55297000Y-66190000D01*
X55343000Y-66201000D01*
X55388000Y-66214000D01*
X55433000Y-66230000D01*
X55476000Y-66248000D01*
X55519000Y-66268000D01*
X55560000Y-66291000D01*
X55600000Y-66315000D01*
X55639000Y-66342000D01*
X55676000Y-66371000D01*
X55712000Y-66401000D01*
X55746000Y-66434000D01*
X55779000Y-66468000D01*
X55809000Y-66504000D01*
X55838000Y-66541000D01*
X55865000Y-66580000D01*
X55889000Y-66620000D01*
X55912000Y-66661000D01*
X55932000Y-66704000D01*
X55950000Y-66747000D01*
X55966000Y-66792000D01*
X55979000Y-66837000D01*
X55990000Y-66883000D01*
X55999000Y-66929000D01*
X56005000Y-66976000D01*
X56009000Y-67023000D01*
X56010000Y-67070000D01*
X56009000Y-67117000D01*
X56005000Y-67164000D01*
X55999000Y-67211000D01*
X55990000Y-67257000D01*
X55979000Y-67303000D01*
X55966000Y-67348000D01*
X55950000Y-67393000D01*
X55932000Y-67436000D01*
X55912000Y-67479000D01*
X55889000Y-67520000D01*
X55865000Y-67560000D01*
X55838000Y-67599000D01*
X55809000Y-67636000D01*
X55779000Y-67672000D01*
X55746000Y-67706000D01*
X55712000Y-67739000D01*
X55676000Y-67769000D01*
X55639000Y-67798000D01*
X55600000Y-67825000D01*
X55560000Y-67849000D01*
X55519000Y-67872000D01*
X55476000Y-67892000D01*
X55433000Y-67910000D01*
X55388000Y-67926000D01*
X55343000Y-67939000D01*
X55297000Y-67950000D01*
X55251000Y-67959000D01*
X55204000Y-67965000D01*
X55157000Y-67969000D01*
X55110000Y-67970000D01*
X52610000Y-67970000D01*
X52610000Y-66170000D01*
X55110000Y-66170000D01*
X55157000Y-66171000D01*
G36*
X55157000Y-66171000D02*
G01*
X55204000Y-66175000D01*
X55251000Y-66181000D01*
X55297000Y-66190000D01*
X55343000Y-66201000D01*
X55388000Y-66214000D01*
X55433000Y-66230000D01*
X55476000Y-66248000D01*
X55519000Y-66268000D01*
X55560000Y-66291000D01*
X55600000Y-66315000D01*
X55639000Y-66342000D01*
X55676000Y-66371000D01*
X55712000Y-66401000D01*
X55746000Y-66434000D01*
X55779000Y-66468000D01*
X55809000Y-66504000D01*
X55838000Y-66541000D01*
X55865000Y-66580000D01*
X55889000Y-66620000D01*
X55912000Y-66661000D01*
X55932000Y-66704000D01*
X55950000Y-66747000D01*
X55966000Y-66792000D01*
X55979000Y-66837000D01*
X55990000Y-66883000D01*
X55999000Y-66929000D01*
X56005000Y-66976000D01*
X56009000Y-67023000D01*
X56010000Y-67070000D01*
X56009000Y-67117000D01*
X56005000Y-67164000D01*
X55999000Y-67211000D01*
X55990000Y-67257000D01*
X55979000Y-67303000D01*
X55966000Y-67348000D01*
X55950000Y-67393000D01*
X55932000Y-67436000D01*
X55912000Y-67479000D01*
X55889000Y-67520000D01*
X55865000Y-67560000D01*
X55838000Y-67599000D01*
X55809000Y-67636000D01*
X55779000Y-67672000D01*
X55746000Y-67706000D01*
X55712000Y-67739000D01*
X55676000Y-67769000D01*
X55639000Y-67798000D01*
X55600000Y-67825000D01*
X55560000Y-67849000D01*
X55519000Y-67872000D01*
X55476000Y-67892000D01*
X55433000Y-67910000D01*
X55388000Y-67926000D01*
X55343000Y-67939000D01*
X55297000Y-67950000D01*
X55251000Y-67959000D01*
X55204000Y-67965000D01*
X55157000Y-67969000D01*
X55110000Y-67970000D01*
X52610000Y-67970000D01*
X52610000Y-66170000D01*
X55110000Y-66170000D01*
X55157000Y-66171000D01*
G37*
X55157000Y-68711000D02*
X55204000Y-68715000D01*
X55251000Y-68721000D01*
X55297000Y-68730000D01*
X55343000Y-68741000D01*
X55388000Y-68754000D01*
X55433000Y-68770000D01*
X55476000Y-68788000D01*
X55519000Y-68808000D01*
X55560000Y-68831000D01*
X55600000Y-68855000D01*
X55639000Y-68882000D01*
X55676000Y-68911000D01*
X55712000Y-68941000D01*
X55746000Y-68974000D01*
X55779000Y-69008000D01*
X55809000Y-69044000D01*
X55838000Y-69081000D01*
X55865000Y-69120000D01*
X55889000Y-69160000D01*
X55912000Y-69201000D01*
X55932000Y-69244000D01*
X55950000Y-69287000D01*
X55966000Y-69332000D01*
X55979000Y-69377000D01*
X55990000Y-69423000D01*
X55999000Y-69469000D01*
X56005000Y-69516000D01*
X56009000Y-69563000D01*
X56010000Y-69610000D01*
X56009000Y-69657000D01*
X56005000Y-69704000D01*
X55999000Y-69751000D01*
X55990000Y-69797000D01*
X55979000Y-69843000D01*
X55966000Y-69888000D01*
X55950000Y-69933000D01*
X55932000Y-69976000D01*
X55912000Y-70019000D01*
X55889000Y-70060000D01*
X55865000Y-70100000D01*
X55838000Y-70139000D01*
X55809000Y-70176000D01*
X55779000Y-70212000D01*
X55746000Y-70246000D01*
X55712000Y-70279000D01*
X55676000Y-70309000D01*
X55639000Y-70338000D01*
X55600000Y-70365000D01*
X55560000Y-70389000D01*
X55519000Y-70412000D01*
X55476000Y-70432000D01*
X55433000Y-70450000D01*
X55388000Y-70466000D01*
X55343000Y-70479000D01*
X55297000Y-70490000D01*
X55251000Y-70499000D01*
X55204000Y-70505000D01*
X55157000Y-70509000D01*
X55110000Y-70510000D01*
X52610000Y-70510000D01*
X52610000Y-68710000D01*
X55110000Y-68710000D01*
X55157000Y-68711000D01*
G36*
X55157000Y-68711000D02*
G01*
X55204000Y-68715000D01*
X55251000Y-68721000D01*
X55297000Y-68730000D01*
X55343000Y-68741000D01*
X55388000Y-68754000D01*
X55433000Y-68770000D01*
X55476000Y-68788000D01*
X55519000Y-68808000D01*
X55560000Y-68831000D01*
X55600000Y-68855000D01*
X55639000Y-68882000D01*
X55676000Y-68911000D01*
X55712000Y-68941000D01*
X55746000Y-68974000D01*
X55779000Y-69008000D01*
X55809000Y-69044000D01*
X55838000Y-69081000D01*
X55865000Y-69120000D01*
X55889000Y-69160000D01*
X55912000Y-69201000D01*
X55932000Y-69244000D01*
X55950000Y-69287000D01*
X55966000Y-69332000D01*
X55979000Y-69377000D01*
X55990000Y-69423000D01*
X55999000Y-69469000D01*
X56005000Y-69516000D01*
X56009000Y-69563000D01*
X56010000Y-69610000D01*
X56009000Y-69657000D01*
X56005000Y-69704000D01*
X55999000Y-69751000D01*
X55990000Y-69797000D01*
X55979000Y-69843000D01*
X55966000Y-69888000D01*
X55950000Y-69933000D01*
X55932000Y-69976000D01*
X55912000Y-70019000D01*
X55889000Y-70060000D01*
X55865000Y-70100000D01*
X55838000Y-70139000D01*
X55809000Y-70176000D01*
X55779000Y-70212000D01*
X55746000Y-70246000D01*
X55712000Y-70279000D01*
X55676000Y-70309000D01*
X55639000Y-70338000D01*
X55600000Y-70365000D01*
X55560000Y-70389000D01*
X55519000Y-70412000D01*
X55476000Y-70432000D01*
X55433000Y-70450000D01*
X55388000Y-70466000D01*
X55343000Y-70479000D01*
X55297000Y-70490000D01*
X55251000Y-70499000D01*
X55204000Y-70505000D01*
X55157000Y-70509000D01*
X55110000Y-70510000D01*
X52610000Y-70510000D01*
X52610000Y-68710000D01*
X55110000Y-68710000D01*
X55157000Y-68711000D01*
G37*
X55157000Y-73791000D02*
X55204000Y-73795000D01*
X55251000Y-73801000D01*
X55297000Y-73810000D01*
X55343000Y-73821000D01*
X55388000Y-73834000D01*
X55433000Y-73850000D01*
X55476000Y-73868000D01*
X55519000Y-73888000D01*
X55560000Y-73911000D01*
X55600000Y-73935000D01*
X55639000Y-73962000D01*
X55676000Y-73991000D01*
X55712000Y-74021000D01*
X55746000Y-74054000D01*
X55779000Y-74088000D01*
X55809000Y-74124000D01*
X55838000Y-74161000D01*
X55865000Y-74200000D01*
X55889000Y-74240000D01*
X55912000Y-74281000D01*
X55932000Y-74324000D01*
X55950000Y-74367000D01*
X55966000Y-74412000D01*
X55979000Y-74457000D01*
X55990000Y-74503000D01*
X55999000Y-74549000D01*
X56005000Y-74596000D01*
X56009000Y-74643000D01*
X56010000Y-74690000D01*
X56009000Y-74737000D01*
X56005000Y-74784000D01*
X55999000Y-74831000D01*
X55990000Y-74877000D01*
X55979000Y-74923000D01*
X55966000Y-74968000D01*
X55950000Y-75013000D01*
X55932000Y-75056000D01*
X55912000Y-75099000D01*
X55889000Y-75140000D01*
X55865000Y-75180000D01*
X55838000Y-75219000D01*
X55809000Y-75256000D01*
X55779000Y-75292000D01*
X55746000Y-75326000D01*
X55712000Y-75359000D01*
X55676000Y-75389000D01*
X55639000Y-75418000D01*
X55600000Y-75445000D01*
X55560000Y-75469000D01*
X55519000Y-75492000D01*
X55476000Y-75512000D01*
X55433000Y-75530000D01*
X55388000Y-75546000D01*
X55343000Y-75559000D01*
X55297000Y-75570000D01*
X55251000Y-75579000D01*
X55204000Y-75585000D01*
X55157000Y-75589000D01*
X55110000Y-75590000D01*
X52610000Y-75590000D01*
X52610000Y-73790000D01*
X55110000Y-73790000D01*
X55157000Y-73791000D01*
G36*
X55157000Y-73791000D02*
G01*
X55204000Y-73795000D01*
X55251000Y-73801000D01*
X55297000Y-73810000D01*
X55343000Y-73821000D01*
X55388000Y-73834000D01*
X55433000Y-73850000D01*
X55476000Y-73868000D01*
X55519000Y-73888000D01*
X55560000Y-73911000D01*
X55600000Y-73935000D01*
X55639000Y-73962000D01*
X55676000Y-73991000D01*
X55712000Y-74021000D01*
X55746000Y-74054000D01*
X55779000Y-74088000D01*
X55809000Y-74124000D01*
X55838000Y-74161000D01*
X55865000Y-74200000D01*
X55889000Y-74240000D01*
X55912000Y-74281000D01*
X55932000Y-74324000D01*
X55950000Y-74367000D01*
X55966000Y-74412000D01*
X55979000Y-74457000D01*
X55990000Y-74503000D01*
X55999000Y-74549000D01*
X56005000Y-74596000D01*
X56009000Y-74643000D01*
X56010000Y-74690000D01*
X56009000Y-74737000D01*
X56005000Y-74784000D01*
X55999000Y-74831000D01*
X55990000Y-74877000D01*
X55979000Y-74923000D01*
X55966000Y-74968000D01*
X55950000Y-75013000D01*
X55932000Y-75056000D01*
X55912000Y-75099000D01*
X55889000Y-75140000D01*
X55865000Y-75180000D01*
X55838000Y-75219000D01*
X55809000Y-75256000D01*
X55779000Y-75292000D01*
X55746000Y-75326000D01*
X55712000Y-75359000D01*
X55676000Y-75389000D01*
X55639000Y-75418000D01*
X55600000Y-75445000D01*
X55560000Y-75469000D01*
X55519000Y-75492000D01*
X55476000Y-75512000D01*
X55433000Y-75530000D01*
X55388000Y-75546000D01*
X55343000Y-75559000D01*
X55297000Y-75570000D01*
X55251000Y-75579000D01*
X55204000Y-75585000D01*
X55157000Y-75589000D01*
X55110000Y-75590000D01*
X52610000Y-75590000D01*
X52610000Y-73790000D01*
X55110000Y-73790000D01*
X55157000Y-73791000D01*
G37*
X55157000Y-76331000D02*
X55204000Y-76335000D01*
X55251000Y-76341000D01*
X55297000Y-76350000D01*
X55343000Y-76361000D01*
X55388000Y-76374000D01*
X55433000Y-76390000D01*
X55476000Y-76408000D01*
X55519000Y-76428000D01*
X55560000Y-76451000D01*
X55600000Y-76475000D01*
X55639000Y-76502000D01*
X55676000Y-76531000D01*
X55712000Y-76561000D01*
X55746000Y-76594000D01*
X55779000Y-76628000D01*
X55809000Y-76664000D01*
X55838000Y-76701000D01*
X55865000Y-76740000D01*
X55889000Y-76780000D01*
X55912000Y-76821000D01*
X55932000Y-76864000D01*
X55950000Y-76907000D01*
X55966000Y-76952000D01*
X55979000Y-76997000D01*
X55990000Y-77043000D01*
X55999000Y-77089000D01*
X56005000Y-77136000D01*
X56009000Y-77183000D01*
X56010000Y-77230000D01*
X56009000Y-77277000D01*
X56005000Y-77324000D01*
X55999000Y-77371000D01*
X55990000Y-77417000D01*
X55979000Y-77463000D01*
X55966000Y-77508000D01*
X55950000Y-77553000D01*
X55932000Y-77596000D01*
X55912000Y-77639000D01*
X55889000Y-77680000D01*
X55865000Y-77720000D01*
X55838000Y-77759000D01*
X55809000Y-77796000D01*
X55779000Y-77832000D01*
X55746000Y-77866000D01*
X55712000Y-77899000D01*
X55676000Y-77929000D01*
X55639000Y-77958000D01*
X55600000Y-77985000D01*
X55560000Y-78009000D01*
X55519000Y-78032000D01*
X55476000Y-78052000D01*
X55433000Y-78070000D01*
X55388000Y-78086000D01*
X55343000Y-78099000D01*
X55297000Y-78110000D01*
X55251000Y-78119000D01*
X55204000Y-78125000D01*
X55157000Y-78129000D01*
X55110000Y-78130000D01*
X52610000Y-78130000D01*
X52610000Y-76330000D01*
X55110000Y-76330000D01*
X55157000Y-76331000D01*
G36*
X55157000Y-76331000D02*
G01*
X55204000Y-76335000D01*
X55251000Y-76341000D01*
X55297000Y-76350000D01*
X55343000Y-76361000D01*
X55388000Y-76374000D01*
X55433000Y-76390000D01*
X55476000Y-76408000D01*
X55519000Y-76428000D01*
X55560000Y-76451000D01*
X55600000Y-76475000D01*
X55639000Y-76502000D01*
X55676000Y-76531000D01*
X55712000Y-76561000D01*
X55746000Y-76594000D01*
X55779000Y-76628000D01*
X55809000Y-76664000D01*
X55838000Y-76701000D01*
X55865000Y-76740000D01*
X55889000Y-76780000D01*
X55912000Y-76821000D01*
X55932000Y-76864000D01*
X55950000Y-76907000D01*
X55966000Y-76952000D01*
X55979000Y-76997000D01*
X55990000Y-77043000D01*
X55999000Y-77089000D01*
X56005000Y-77136000D01*
X56009000Y-77183000D01*
X56010000Y-77230000D01*
X56009000Y-77277000D01*
X56005000Y-77324000D01*
X55999000Y-77371000D01*
X55990000Y-77417000D01*
X55979000Y-77463000D01*
X55966000Y-77508000D01*
X55950000Y-77553000D01*
X55932000Y-77596000D01*
X55912000Y-77639000D01*
X55889000Y-77680000D01*
X55865000Y-77720000D01*
X55838000Y-77759000D01*
X55809000Y-77796000D01*
X55779000Y-77832000D01*
X55746000Y-77866000D01*
X55712000Y-77899000D01*
X55676000Y-77929000D01*
X55639000Y-77958000D01*
X55600000Y-77985000D01*
X55560000Y-78009000D01*
X55519000Y-78032000D01*
X55476000Y-78052000D01*
X55433000Y-78070000D01*
X55388000Y-78086000D01*
X55343000Y-78099000D01*
X55297000Y-78110000D01*
X55251000Y-78119000D01*
X55204000Y-78125000D01*
X55157000Y-78129000D01*
X55110000Y-78130000D01*
X52610000Y-78130000D01*
X52610000Y-76330000D01*
X55110000Y-76330000D01*
X55157000Y-76331000D01*
G37*
X55157000Y-78871000D02*
X55204000Y-78875000D01*
X55251000Y-78881000D01*
X55297000Y-78890000D01*
X55343000Y-78901000D01*
X55388000Y-78914000D01*
X55433000Y-78930000D01*
X55476000Y-78948000D01*
X55519000Y-78968000D01*
X55560000Y-78991000D01*
X55600000Y-79015000D01*
X55639000Y-79042000D01*
X55676000Y-79071000D01*
X55712000Y-79101000D01*
X55746000Y-79134000D01*
X55779000Y-79168000D01*
X55809000Y-79204000D01*
X55838000Y-79241000D01*
X55865000Y-79280000D01*
X55889000Y-79320000D01*
X55912000Y-79361000D01*
X55932000Y-79404000D01*
X55950000Y-79447000D01*
X55966000Y-79492000D01*
X55979000Y-79537000D01*
X55990000Y-79583000D01*
X55999000Y-79629000D01*
X56005000Y-79676000D01*
X56009000Y-79723000D01*
X56010000Y-79770000D01*
X56009000Y-79817000D01*
X56005000Y-79864000D01*
X55999000Y-79911000D01*
X55990000Y-79957000D01*
X55979000Y-80003000D01*
X55966000Y-80048000D01*
X55950000Y-80093000D01*
X55932000Y-80136000D01*
X55912000Y-80179000D01*
X55889000Y-80220000D01*
X55865000Y-80260000D01*
X55838000Y-80299000D01*
X55809000Y-80336000D01*
X55779000Y-80372000D01*
X55746000Y-80406000D01*
X55712000Y-80439000D01*
X55676000Y-80469000D01*
X55639000Y-80498000D01*
X55600000Y-80525000D01*
X55560000Y-80549000D01*
X55519000Y-80572000D01*
X55476000Y-80592000D01*
X55433000Y-80610000D01*
X55388000Y-80626000D01*
X55343000Y-80639000D01*
X55297000Y-80650000D01*
X55251000Y-80659000D01*
X55204000Y-80665000D01*
X55157000Y-80669000D01*
X55110000Y-80670000D01*
X52610000Y-80670000D01*
X52610000Y-78870000D01*
X55110000Y-78870000D01*
X55157000Y-78871000D01*
G36*
X55157000Y-78871000D02*
G01*
X55204000Y-78875000D01*
X55251000Y-78881000D01*
X55297000Y-78890000D01*
X55343000Y-78901000D01*
X55388000Y-78914000D01*
X55433000Y-78930000D01*
X55476000Y-78948000D01*
X55519000Y-78968000D01*
X55560000Y-78991000D01*
X55600000Y-79015000D01*
X55639000Y-79042000D01*
X55676000Y-79071000D01*
X55712000Y-79101000D01*
X55746000Y-79134000D01*
X55779000Y-79168000D01*
X55809000Y-79204000D01*
X55838000Y-79241000D01*
X55865000Y-79280000D01*
X55889000Y-79320000D01*
X55912000Y-79361000D01*
X55932000Y-79404000D01*
X55950000Y-79447000D01*
X55966000Y-79492000D01*
X55979000Y-79537000D01*
X55990000Y-79583000D01*
X55999000Y-79629000D01*
X56005000Y-79676000D01*
X56009000Y-79723000D01*
X56010000Y-79770000D01*
X56009000Y-79817000D01*
X56005000Y-79864000D01*
X55999000Y-79911000D01*
X55990000Y-79957000D01*
X55979000Y-80003000D01*
X55966000Y-80048000D01*
X55950000Y-80093000D01*
X55932000Y-80136000D01*
X55912000Y-80179000D01*
X55889000Y-80220000D01*
X55865000Y-80260000D01*
X55838000Y-80299000D01*
X55809000Y-80336000D01*
X55779000Y-80372000D01*
X55746000Y-80406000D01*
X55712000Y-80439000D01*
X55676000Y-80469000D01*
X55639000Y-80498000D01*
X55600000Y-80525000D01*
X55560000Y-80549000D01*
X55519000Y-80572000D01*
X55476000Y-80592000D01*
X55433000Y-80610000D01*
X55388000Y-80626000D01*
X55343000Y-80639000D01*
X55297000Y-80650000D01*
X55251000Y-80659000D01*
X55204000Y-80665000D01*
X55157000Y-80669000D01*
X55110000Y-80670000D01*
X52610000Y-80670000D01*
X52610000Y-78870000D01*
X55110000Y-78870000D01*
X55157000Y-78871000D01*
G37*
X55157000Y-81411000D02*
X55204000Y-81415000D01*
X55251000Y-81421000D01*
X55297000Y-81430000D01*
X55343000Y-81441000D01*
X55388000Y-81454000D01*
X55433000Y-81470000D01*
X55476000Y-81488000D01*
X55519000Y-81508000D01*
X55560000Y-81531000D01*
X55600000Y-81555000D01*
X55639000Y-81582000D01*
X55676000Y-81611000D01*
X55712000Y-81641000D01*
X55746000Y-81674000D01*
X55779000Y-81708000D01*
X55809000Y-81744000D01*
X55838000Y-81781000D01*
X55865000Y-81820000D01*
X55889000Y-81860000D01*
X55912000Y-81901000D01*
X55932000Y-81944000D01*
X55950000Y-81987000D01*
X55966000Y-82032000D01*
X55979000Y-82077000D01*
X55990000Y-82123000D01*
X55999000Y-82169000D01*
X56005000Y-82216000D01*
X56009000Y-82263000D01*
X56010000Y-82310000D01*
X56009000Y-82357000D01*
X56005000Y-82404000D01*
X55999000Y-82451000D01*
X55990000Y-82497000D01*
X55979000Y-82543000D01*
X55966000Y-82588000D01*
X55950000Y-82633000D01*
X55932000Y-82676000D01*
X55912000Y-82719000D01*
X55889000Y-82760000D01*
X55865000Y-82800000D01*
X55838000Y-82839000D01*
X55809000Y-82876000D01*
X55779000Y-82912000D01*
X55746000Y-82946000D01*
X55712000Y-82979000D01*
X55676000Y-83009000D01*
X55639000Y-83038000D01*
X55600000Y-83065000D01*
X55560000Y-83089000D01*
X55519000Y-83112000D01*
X55476000Y-83132000D01*
X55433000Y-83150000D01*
X55388000Y-83166000D01*
X55343000Y-83179000D01*
X55297000Y-83190000D01*
X55251000Y-83199000D01*
X55204000Y-83205000D01*
X55157000Y-83209000D01*
X55110000Y-83210000D01*
X52610000Y-83210000D01*
X52610000Y-81410000D01*
X55110000Y-81410000D01*
X55157000Y-81411000D01*
G36*
X55157000Y-81411000D02*
G01*
X55204000Y-81415000D01*
X55251000Y-81421000D01*
X55297000Y-81430000D01*
X55343000Y-81441000D01*
X55388000Y-81454000D01*
X55433000Y-81470000D01*
X55476000Y-81488000D01*
X55519000Y-81508000D01*
X55560000Y-81531000D01*
X55600000Y-81555000D01*
X55639000Y-81582000D01*
X55676000Y-81611000D01*
X55712000Y-81641000D01*
X55746000Y-81674000D01*
X55779000Y-81708000D01*
X55809000Y-81744000D01*
X55838000Y-81781000D01*
X55865000Y-81820000D01*
X55889000Y-81860000D01*
X55912000Y-81901000D01*
X55932000Y-81944000D01*
X55950000Y-81987000D01*
X55966000Y-82032000D01*
X55979000Y-82077000D01*
X55990000Y-82123000D01*
X55999000Y-82169000D01*
X56005000Y-82216000D01*
X56009000Y-82263000D01*
X56010000Y-82310000D01*
X56009000Y-82357000D01*
X56005000Y-82404000D01*
X55999000Y-82451000D01*
X55990000Y-82497000D01*
X55979000Y-82543000D01*
X55966000Y-82588000D01*
X55950000Y-82633000D01*
X55932000Y-82676000D01*
X55912000Y-82719000D01*
X55889000Y-82760000D01*
X55865000Y-82800000D01*
X55838000Y-82839000D01*
X55809000Y-82876000D01*
X55779000Y-82912000D01*
X55746000Y-82946000D01*
X55712000Y-82979000D01*
X55676000Y-83009000D01*
X55639000Y-83038000D01*
X55600000Y-83065000D01*
X55560000Y-83089000D01*
X55519000Y-83112000D01*
X55476000Y-83132000D01*
X55433000Y-83150000D01*
X55388000Y-83166000D01*
X55343000Y-83179000D01*
X55297000Y-83190000D01*
X55251000Y-83199000D01*
X55204000Y-83205000D01*
X55157000Y-83209000D01*
X55110000Y-83210000D01*
X52610000Y-83210000D01*
X52610000Y-81410000D01*
X55110000Y-81410000D01*
X55157000Y-81411000D01*
G37*
X55157000Y-86491000D02*
X55204000Y-86495000D01*
X55251000Y-86501000D01*
X55297000Y-86510000D01*
X55343000Y-86521000D01*
X55388000Y-86534000D01*
X55433000Y-86550000D01*
X55476000Y-86568000D01*
X55519000Y-86588000D01*
X55560000Y-86611000D01*
X55600000Y-86635000D01*
X55639000Y-86662000D01*
X55676000Y-86691000D01*
X55712000Y-86721000D01*
X55746000Y-86754000D01*
X55779000Y-86788000D01*
X55809000Y-86824000D01*
X55838000Y-86861000D01*
X55865000Y-86900000D01*
X55889000Y-86940000D01*
X55912000Y-86981000D01*
X55932000Y-87024000D01*
X55950000Y-87067000D01*
X55966000Y-87112000D01*
X55979000Y-87157000D01*
X55990000Y-87203000D01*
X55999000Y-87249000D01*
X56005000Y-87296000D01*
X56009000Y-87343000D01*
X56010000Y-87390000D01*
X56009000Y-87437000D01*
X56005000Y-87484000D01*
X55999000Y-87531000D01*
X55990000Y-87577000D01*
X55979000Y-87623000D01*
X55966000Y-87668000D01*
X55950000Y-87713000D01*
X55932000Y-87756000D01*
X55912000Y-87799000D01*
X55889000Y-87840000D01*
X55865000Y-87880000D01*
X55838000Y-87919000D01*
X55809000Y-87956000D01*
X55779000Y-87992000D01*
X55746000Y-88026000D01*
X55712000Y-88059000D01*
X55676000Y-88089000D01*
X55639000Y-88118000D01*
X55600000Y-88145000D01*
X55560000Y-88169000D01*
X55519000Y-88192000D01*
X55476000Y-88212000D01*
X55433000Y-88230000D01*
X55388000Y-88246000D01*
X55343000Y-88259000D01*
X55297000Y-88270000D01*
X55251000Y-88279000D01*
X55204000Y-88285000D01*
X55157000Y-88289000D01*
X55110000Y-88290000D01*
X52610000Y-88290000D01*
X52610000Y-86490000D01*
X55110000Y-86490000D01*
X55157000Y-86491000D01*
G36*
X55157000Y-86491000D02*
G01*
X55204000Y-86495000D01*
X55251000Y-86501000D01*
X55297000Y-86510000D01*
X55343000Y-86521000D01*
X55388000Y-86534000D01*
X55433000Y-86550000D01*
X55476000Y-86568000D01*
X55519000Y-86588000D01*
X55560000Y-86611000D01*
X55600000Y-86635000D01*
X55639000Y-86662000D01*
X55676000Y-86691000D01*
X55712000Y-86721000D01*
X55746000Y-86754000D01*
X55779000Y-86788000D01*
X55809000Y-86824000D01*
X55838000Y-86861000D01*
X55865000Y-86900000D01*
X55889000Y-86940000D01*
X55912000Y-86981000D01*
X55932000Y-87024000D01*
X55950000Y-87067000D01*
X55966000Y-87112000D01*
X55979000Y-87157000D01*
X55990000Y-87203000D01*
X55999000Y-87249000D01*
X56005000Y-87296000D01*
X56009000Y-87343000D01*
X56010000Y-87390000D01*
X56009000Y-87437000D01*
X56005000Y-87484000D01*
X55999000Y-87531000D01*
X55990000Y-87577000D01*
X55979000Y-87623000D01*
X55966000Y-87668000D01*
X55950000Y-87713000D01*
X55932000Y-87756000D01*
X55912000Y-87799000D01*
X55889000Y-87840000D01*
X55865000Y-87880000D01*
X55838000Y-87919000D01*
X55809000Y-87956000D01*
X55779000Y-87992000D01*
X55746000Y-88026000D01*
X55712000Y-88059000D01*
X55676000Y-88089000D01*
X55639000Y-88118000D01*
X55600000Y-88145000D01*
X55560000Y-88169000D01*
X55519000Y-88192000D01*
X55476000Y-88212000D01*
X55433000Y-88230000D01*
X55388000Y-88246000D01*
X55343000Y-88259000D01*
X55297000Y-88270000D01*
X55251000Y-88279000D01*
X55204000Y-88285000D01*
X55157000Y-88289000D01*
X55110000Y-88290000D01*
X52610000Y-88290000D01*
X52610000Y-86490000D01*
X55110000Y-86490000D01*
X55157000Y-86491000D01*
G37*
X55157000Y-89031000D02*
X55204000Y-89035000D01*
X55251000Y-89041000D01*
X55297000Y-89050000D01*
X55343000Y-89061000D01*
X55388000Y-89074000D01*
X55433000Y-89090000D01*
X55476000Y-89108000D01*
X55519000Y-89128000D01*
X55560000Y-89151000D01*
X55600000Y-89175000D01*
X55639000Y-89202000D01*
X55676000Y-89231000D01*
X55712000Y-89261000D01*
X55746000Y-89294000D01*
X55779000Y-89328000D01*
X55809000Y-89364000D01*
X55838000Y-89401000D01*
X55865000Y-89440000D01*
X55889000Y-89480000D01*
X55912000Y-89521000D01*
X55932000Y-89564000D01*
X55950000Y-89607000D01*
X55966000Y-89652000D01*
X55979000Y-89697000D01*
X55990000Y-89743000D01*
X55999000Y-89789000D01*
X56005000Y-89836000D01*
X56009000Y-89883000D01*
X56010000Y-89930000D01*
X56009000Y-89977000D01*
X56005000Y-90024000D01*
X55999000Y-90071000D01*
X55990000Y-90117000D01*
X55979000Y-90163000D01*
X55966000Y-90208000D01*
X55950000Y-90253000D01*
X55932000Y-90296000D01*
X55912000Y-90339000D01*
X55889000Y-90380000D01*
X55865000Y-90420000D01*
X55838000Y-90459000D01*
X55809000Y-90496000D01*
X55779000Y-90532000D01*
X55746000Y-90566000D01*
X55712000Y-90599000D01*
X55676000Y-90629000D01*
X55639000Y-90658000D01*
X55600000Y-90685000D01*
X55560000Y-90709000D01*
X55519000Y-90732000D01*
X55476000Y-90752000D01*
X55433000Y-90770000D01*
X55388000Y-90786000D01*
X55343000Y-90799000D01*
X55297000Y-90810000D01*
X55251000Y-90819000D01*
X55204000Y-90825000D01*
X55157000Y-90829000D01*
X55110000Y-90830000D01*
X52610000Y-90830000D01*
X52610000Y-89030000D01*
X55110000Y-89030000D01*
X55157000Y-89031000D01*
G36*
X55157000Y-89031000D02*
G01*
X55204000Y-89035000D01*
X55251000Y-89041000D01*
X55297000Y-89050000D01*
X55343000Y-89061000D01*
X55388000Y-89074000D01*
X55433000Y-89090000D01*
X55476000Y-89108000D01*
X55519000Y-89128000D01*
X55560000Y-89151000D01*
X55600000Y-89175000D01*
X55639000Y-89202000D01*
X55676000Y-89231000D01*
X55712000Y-89261000D01*
X55746000Y-89294000D01*
X55779000Y-89328000D01*
X55809000Y-89364000D01*
X55838000Y-89401000D01*
X55865000Y-89440000D01*
X55889000Y-89480000D01*
X55912000Y-89521000D01*
X55932000Y-89564000D01*
X55950000Y-89607000D01*
X55966000Y-89652000D01*
X55979000Y-89697000D01*
X55990000Y-89743000D01*
X55999000Y-89789000D01*
X56005000Y-89836000D01*
X56009000Y-89883000D01*
X56010000Y-89930000D01*
X56009000Y-89977000D01*
X56005000Y-90024000D01*
X55999000Y-90071000D01*
X55990000Y-90117000D01*
X55979000Y-90163000D01*
X55966000Y-90208000D01*
X55950000Y-90253000D01*
X55932000Y-90296000D01*
X55912000Y-90339000D01*
X55889000Y-90380000D01*
X55865000Y-90420000D01*
X55838000Y-90459000D01*
X55809000Y-90496000D01*
X55779000Y-90532000D01*
X55746000Y-90566000D01*
X55712000Y-90599000D01*
X55676000Y-90629000D01*
X55639000Y-90658000D01*
X55600000Y-90685000D01*
X55560000Y-90709000D01*
X55519000Y-90732000D01*
X55476000Y-90752000D01*
X55433000Y-90770000D01*
X55388000Y-90786000D01*
X55343000Y-90799000D01*
X55297000Y-90810000D01*
X55251000Y-90819000D01*
X55204000Y-90825000D01*
X55157000Y-90829000D01*
X55110000Y-90830000D01*
X52610000Y-90830000D01*
X52610000Y-89030000D01*
X55110000Y-89030000D01*
X55157000Y-89031000D01*
G37*
X55157000Y-91571000D02*
X55204000Y-91575000D01*
X55251000Y-91581000D01*
X55297000Y-91590000D01*
X55343000Y-91601000D01*
X55388000Y-91614000D01*
X55433000Y-91630000D01*
X55476000Y-91648000D01*
X55519000Y-91668000D01*
X55560000Y-91691000D01*
X55600000Y-91715000D01*
X55639000Y-91742000D01*
X55676000Y-91771000D01*
X55712000Y-91801000D01*
X55746000Y-91834000D01*
X55779000Y-91868000D01*
X55809000Y-91904000D01*
X55838000Y-91941000D01*
X55865000Y-91980000D01*
X55889000Y-92020000D01*
X55912000Y-92061000D01*
X55932000Y-92104000D01*
X55950000Y-92147000D01*
X55966000Y-92192000D01*
X55979000Y-92237000D01*
X55990000Y-92283000D01*
X55999000Y-92329000D01*
X56005000Y-92376000D01*
X56009000Y-92423000D01*
X56010000Y-92470000D01*
X56009000Y-92517000D01*
X56005000Y-92564000D01*
X55999000Y-92611000D01*
X55990000Y-92657000D01*
X55979000Y-92703000D01*
X55966000Y-92748000D01*
X55950000Y-92793000D01*
X55932000Y-92836000D01*
X55912000Y-92879000D01*
X55889000Y-92920000D01*
X55865000Y-92960000D01*
X55838000Y-92999000D01*
X55809000Y-93036000D01*
X55779000Y-93072000D01*
X55746000Y-93106000D01*
X55712000Y-93139000D01*
X55676000Y-93169000D01*
X55639000Y-93198000D01*
X55600000Y-93225000D01*
X55560000Y-93249000D01*
X55519000Y-93272000D01*
X55476000Y-93292000D01*
X55433000Y-93310000D01*
X55388000Y-93326000D01*
X55343000Y-93339000D01*
X55297000Y-93350000D01*
X55251000Y-93359000D01*
X55204000Y-93365000D01*
X55157000Y-93369000D01*
X55110000Y-93370000D01*
X52610000Y-93370000D01*
X52610000Y-91570000D01*
X55110000Y-91570000D01*
X55157000Y-91571000D01*
G36*
X55157000Y-91571000D02*
G01*
X55204000Y-91575000D01*
X55251000Y-91581000D01*
X55297000Y-91590000D01*
X55343000Y-91601000D01*
X55388000Y-91614000D01*
X55433000Y-91630000D01*
X55476000Y-91648000D01*
X55519000Y-91668000D01*
X55560000Y-91691000D01*
X55600000Y-91715000D01*
X55639000Y-91742000D01*
X55676000Y-91771000D01*
X55712000Y-91801000D01*
X55746000Y-91834000D01*
X55779000Y-91868000D01*
X55809000Y-91904000D01*
X55838000Y-91941000D01*
X55865000Y-91980000D01*
X55889000Y-92020000D01*
X55912000Y-92061000D01*
X55932000Y-92104000D01*
X55950000Y-92147000D01*
X55966000Y-92192000D01*
X55979000Y-92237000D01*
X55990000Y-92283000D01*
X55999000Y-92329000D01*
X56005000Y-92376000D01*
X56009000Y-92423000D01*
X56010000Y-92470000D01*
X56009000Y-92517000D01*
X56005000Y-92564000D01*
X55999000Y-92611000D01*
X55990000Y-92657000D01*
X55979000Y-92703000D01*
X55966000Y-92748000D01*
X55950000Y-92793000D01*
X55932000Y-92836000D01*
X55912000Y-92879000D01*
X55889000Y-92920000D01*
X55865000Y-92960000D01*
X55838000Y-92999000D01*
X55809000Y-93036000D01*
X55779000Y-93072000D01*
X55746000Y-93106000D01*
X55712000Y-93139000D01*
X55676000Y-93169000D01*
X55639000Y-93198000D01*
X55600000Y-93225000D01*
X55560000Y-93249000D01*
X55519000Y-93272000D01*
X55476000Y-93292000D01*
X55433000Y-93310000D01*
X55388000Y-93326000D01*
X55343000Y-93339000D01*
X55297000Y-93350000D01*
X55251000Y-93359000D01*
X55204000Y-93365000D01*
X55157000Y-93369000D01*
X55110000Y-93370000D01*
X52610000Y-93370000D01*
X52610000Y-91570000D01*
X55110000Y-91570000D01*
X55157000Y-91571000D01*
G37*
X55157000Y-94111000D02*
X55204000Y-94115000D01*
X55251000Y-94121000D01*
X55297000Y-94130000D01*
X55343000Y-94141000D01*
X55388000Y-94154000D01*
X55433000Y-94170000D01*
X55476000Y-94188000D01*
X55519000Y-94208000D01*
X55560000Y-94231000D01*
X55600000Y-94255000D01*
X55639000Y-94282000D01*
X55676000Y-94311000D01*
X55712000Y-94341000D01*
X55746000Y-94374000D01*
X55779000Y-94408000D01*
X55809000Y-94444000D01*
X55838000Y-94481000D01*
X55865000Y-94520000D01*
X55889000Y-94560000D01*
X55912000Y-94601000D01*
X55932000Y-94644000D01*
X55950000Y-94687000D01*
X55966000Y-94732000D01*
X55979000Y-94777000D01*
X55990000Y-94823000D01*
X55999000Y-94869000D01*
X56005000Y-94916000D01*
X56009000Y-94963000D01*
X56010000Y-95010000D01*
X56009000Y-95057000D01*
X56005000Y-95104000D01*
X55999000Y-95151000D01*
X55990000Y-95197000D01*
X55979000Y-95243000D01*
X55966000Y-95288000D01*
X55950000Y-95333000D01*
X55932000Y-95376000D01*
X55912000Y-95419000D01*
X55889000Y-95460000D01*
X55865000Y-95500000D01*
X55838000Y-95539000D01*
X55809000Y-95576000D01*
X55779000Y-95612000D01*
X55746000Y-95646000D01*
X55712000Y-95679000D01*
X55676000Y-95709000D01*
X55639000Y-95738000D01*
X55600000Y-95765000D01*
X55560000Y-95789000D01*
X55519000Y-95812000D01*
X55476000Y-95832000D01*
X55433000Y-95850000D01*
X55388000Y-95866000D01*
X55343000Y-95879000D01*
X55297000Y-95890000D01*
X55251000Y-95899000D01*
X55204000Y-95905000D01*
X55157000Y-95909000D01*
X55110000Y-95910000D01*
X52610000Y-95910000D01*
X52610000Y-94110000D01*
X55110000Y-94110000D01*
X55157000Y-94111000D01*
G36*
X55157000Y-94111000D02*
G01*
X55204000Y-94115000D01*
X55251000Y-94121000D01*
X55297000Y-94130000D01*
X55343000Y-94141000D01*
X55388000Y-94154000D01*
X55433000Y-94170000D01*
X55476000Y-94188000D01*
X55519000Y-94208000D01*
X55560000Y-94231000D01*
X55600000Y-94255000D01*
X55639000Y-94282000D01*
X55676000Y-94311000D01*
X55712000Y-94341000D01*
X55746000Y-94374000D01*
X55779000Y-94408000D01*
X55809000Y-94444000D01*
X55838000Y-94481000D01*
X55865000Y-94520000D01*
X55889000Y-94560000D01*
X55912000Y-94601000D01*
X55932000Y-94644000D01*
X55950000Y-94687000D01*
X55966000Y-94732000D01*
X55979000Y-94777000D01*
X55990000Y-94823000D01*
X55999000Y-94869000D01*
X56005000Y-94916000D01*
X56009000Y-94963000D01*
X56010000Y-95010000D01*
X56009000Y-95057000D01*
X56005000Y-95104000D01*
X55999000Y-95151000D01*
X55990000Y-95197000D01*
X55979000Y-95243000D01*
X55966000Y-95288000D01*
X55950000Y-95333000D01*
X55932000Y-95376000D01*
X55912000Y-95419000D01*
X55889000Y-95460000D01*
X55865000Y-95500000D01*
X55838000Y-95539000D01*
X55809000Y-95576000D01*
X55779000Y-95612000D01*
X55746000Y-95646000D01*
X55712000Y-95679000D01*
X55676000Y-95709000D01*
X55639000Y-95738000D01*
X55600000Y-95765000D01*
X55560000Y-95789000D01*
X55519000Y-95812000D01*
X55476000Y-95832000D01*
X55433000Y-95850000D01*
X55388000Y-95866000D01*
X55343000Y-95879000D01*
X55297000Y-95890000D01*
X55251000Y-95899000D01*
X55204000Y-95905000D01*
X55157000Y-95909000D01*
X55110000Y-95910000D01*
X52610000Y-95910000D01*
X52610000Y-94110000D01*
X55110000Y-94110000D01*
X55157000Y-94111000D01*
G37*
X55157000Y-99191000D02*
X55204000Y-99195000D01*
X55251000Y-99201000D01*
X55297000Y-99210000D01*
X55343000Y-99221000D01*
X55388000Y-99234000D01*
X55433000Y-99250000D01*
X55476000Y-99268000D01*
X55519000Y-99288000D01*
X55560000Y-99311000D01*
X55600000Y-99335000D01*
X55639000Y-99362000D01*
X55676000Y-99391000D01*
X55712000Y-99421000D01*
X55746000Y-99454000D01*
X55779000Y-99488000D01*
X55809000Y-99524000D01*
X55838000Y-99561000D01*
X55865000Y-99600000D01*
X55889000Y-99640000D01*
X55912000Y-99681000D01*
X55932000Y-99724000D01*
X55950000Y-99767000D01*
X55966000Y-99812000D01*
X55979000Y-99857000D01*
X55990000Y-99903000D01*
X55999000Y-99949000D01*
X56005000Y-99996000D01*
X56009000Y-100043000D01*
X56010000Y-100090000D01*
X56009000Y-100137000D01*
X56005000Y-100184000D01*
X55999000Y-100231000D01*
X55990000Y-100277000D01*
X55979000Y-100323000D01*
X55966000Y-100368000D01*
X55950000Y-100413000D01*
X55932000Y-100456000D01*
X55912000Y-100499000D01*
X55889000Y-100540000D01*
X55865000Y-100580000D01*
X55838000Y-100619000D01*
X55809000Y-100656000D01*
X55779000Y-100692000D01*
X55746000Y-100726000D01*
X55712000Y-100759000D01*
X55676000Y-100789000D01*
X55639000Y-100818000D01*
X55600000Y-100845000D01*
X55560000Y-100869000D01*
X55519000Y-100892000D01*
X55476000Y-100912000D01*
X55433000Y-100930000D01*
X55388000Y-100946000D01*
X55343000Y-100959000D01*
X55297000Y-100970000D01*
X55251000Y-100979000D01*
X55204000Y-100985000D01*
X55157000Y-100989000D01*
X55110000Y-100990000D01*
X52610000Y-100990000D01*
X52610000Y-99190000D01*
X55110000Y-99190000D01*
X55157000Y-99191000D01*
G36*
X55157000Y-99191000D02*
G01*
X55204000Y-99195000D01*
X55251000Y-99201000D01*
X55297000Y-99210000D01*
X55343000Y-99221000D01*
X55388000Y-99234000D01*
X55433000Y-99250000D01*
X55476000Y-99268000D01*
X55519000Y-99288000D01*
X55560000Y-99311000D01*
X55600000Y-99335000D01*
X55639000Y-99362000D01*
X55676000Y-99391000D01*
X55712000Y-99421000D01*
X55746000Y-99454000D01*
X55779000Y-99488000D01*
X55809000Y-99524000D01*
X55838000Y-99561000D01*
X55865000Y-99600000D01*
X55889000Y-99640000D01*
X55912000Y-99681000D01*
X55932000Y-99724000D01*
X55950000Y-99767000D01*
X55966000Y-99812000D01*
X55979000Y-99857000D01*
X55990000Y-99903000D01*
X55999000Y-99949000D01*
X56005000Y-99996000D01*
X56009000Y-100043000D01*
X56010000Y-100090000D01*
X56009000Y-100137000D01*
X56005000Y-100184000D01*
X55999000Y-100231000D01*
X55990000Y-100277000D01*
X55979000Y-100323000D01*
X55966000Y-100368000D01*
X55950000Y-100413000D01*
X55932000Y-100456000D01*
X55912000Y-100499000D01*
X55889000Y-100540000D01*
X55865000Y-100580000D01*
X55838000Y-100619000D01*
X55809000Y-100656000D01*
X55779000Y-100692000D01*
X55746000Y-100726000D01*
X55712000Y-100759000D01*
X55676000Y-100789000D01*
X55639000Y-100818000D01*
X55600000Y-100845000D01*
X55560000Y-100869000D01*
X55519000Y-100892000D01*
X55476000Y-100912000D01*
X55433000Y-100930000D01*
X55388000Y-100946000D01*
X55343000Y-100959000D01*
X55297000Y-100970000D01*
X55251000Y-100979000D01*
X55204000Y-100985000D01*
X55157000Y-100989000D01*
X55110000Y-100990000D01*
X52610000Y-100990000D01*
X52610000Y-99190000D01*
X55110000Y-99190000D01*
X55157000Y-99191000D01*
G37*
X55157000Y-101731000D02*
X55204000Y-101735000D01*
X55251000Y-101741000D01*
X55297000Y-101750000D01*
X55343000Y-101761000D01*
X55388000Y-101774000D01*
X55433000Y-101790000D01*
X55476000Y-101808000D01*
X55519000Y-101828000D01*
X55560000Y-101851000D01*
X55600000Y-101875000D01*
X55639000Y-101902000D01*
X55676000Y-101931000D01*
X55712000Y-101961000D01*
X55746000Y-101994000D01*
X55779000Y-102028000D01*
X55809000Y-102064000D01*
X55838000Y-102101000D01*
X55865000Y-102140000D01*
X55889000Y-102180000D01*
X55912000Y-102221000D01*
X55932000Y-102264000D01*
X55950000Y-102307000D01*
X55966000Y-102352000D01*
X55979000Y-102397000D01*
X55990000Y-102443000D01*
X55999000Y-102489000D01*
X56005000Y-102536000D01*
X56009000Y-102583000D01*
X56010000Y-102630000D01*
X56009000Y-102677000D01*
X56005000Y-102724000D01*
X55999000Y-102771000D01*
X55990000Y-102817000D01*
X55979000Y-102863000D01*
X55966000Y-102908000D01*
X55950000Y-102953000D01*
X55932000Y-102996000D01*
X55912000Y-103039000D01*
X55889000Y-103080000D01*
X55865000Y-103120000D01*
X55838000Y-103159000D01*
X55809000Y-103196000D01*
X55779000Y-103232000D01*
X55746000Y-103266000D01*
X55712000Y-103299000D01*
X55676000Y-103329000D01*
X55639000Y-103358000D01*
X55600000Y-103385000D01*
X55560000Y-103409000D01*
X55519000Y-103432000D01*
X55476000Y-103452000D01*
X55433000Y-103470000D01*
X55388000Y-103486000D01*
X55343000Y-103499000D01*
X55297000Y-103510000D01*
X55251000Y-103519000D01*
X55204000Y-103525000D01*
X55157000Y-103529000D01*
X55110000Y-103530000D01*
X52610000Y-103530000D01*
X52610000Y-101730000D01*
X55110000Y-101730000D01*
X55157000Y-101731000D01*
G36*
X55157000Y-101731000D02*
G01*
X55204000Y-101735000D01*
X55251000Y-101741000D01*
X55297000Y-101750000D01*
X55343000Y-101761000D01*
X55388000Y-101774000D01*
X55433000Y-101790000D01*
X55476000Y-101808000D01*
X55519000Y-101828000D01*
X55560000Y-101851000D01*
X55600000Y-101875000D01*
X55639000Y-101902000D01*
X55676000Y-101931000D01*
X55712000Y-101961000D01*
X55746000Y-101994000D01*
X55779000Y-102028000D01*
X55809000Y-102064000D01*
X55838000Y-102101000D01*
X55865000Y-102140000D01*
X55889000Y-102180000D01*
X55912000Y-102221000D01*
X55932000Y-102264000D01*
X55950000Y-102307000D01*
X55966000Y-102352000D01*
X55979000Y-102397000D01*
X55990000Y-102443000D01*
X55999000Y-102489000D01*
X56005000Y-102536000D01*
X56009000Y-102583000D01*
X56010000Y-102630000D01*
X56009000Y-102677000D01*
X56005000Y-102724000D01*
X55999000Y-102771000D01*
X55990000Y-102817000D01*
X55979000Y-102863000D01*
X55966000Y-102908000D01*
X55950000Y-102953000D01*
X55932000Y-102996000D01*
X55912000Y-103039000D01*
X55889000Y-103080000D01*
X55865000Y-103120000D01*
X55838000Y-103159000D01*
X55809000Y-103196000D01*
X55779000Y-103232000D01*
X55746000Y-103266000D01*
X55712000Y-103299000D01*
X55676000Y-103329000D01*
X55639000Y-103358000D01*
X55600000Y-103385000D01*
X55560000Y-103409000D01*
X55519000Y-103432000D01*
X55476000Y-103452000D01*
X55433000Y-103470000D01*
X55388000Y-103486000D01*
X55343000Y-103499000D01*
X55297000Y-103510000D01*
X55251000Y-103519000D01*
X55204000Y-103525000D01*
X55157000Y-103529000D01*
X55110000Y-103530000D01*
X52610000Y-103530000D01*
X52610000Y-101730000D01*
X55110000Y-101730000D01*
X55157000Y-101731000D01*
G37*
X61507000Y-101501000D02*
X61554000Y-101505000D01*
X61601000Y-101511000D01*
X61647000Y-101520000D01*
X61693000Y-101531000D01*
X61738000Y-101544000D01*
X61783000Y-101560000D01*
X61826000Y-101578000D01*
X61869000Y-101598000D01*
X61910000Y-101621000D01*
X61950000Y-101645000D01*
X61989000Y-101672000D01*
X62026000Y-101701000D01*
X62062000Y-101731000D01*
X62096000Y-101764000D01*
X62129000Y-101798000D01*
X62159000Y-101834000D01*
X62188000Y-101871000D01*
X62215000Y-101910000D01*
X62239000Y-101950000D01*
X62262000Y-101991000D01*
X62282000Y-102034000D01*
X62300000Y-102077000D01*
X62316000Y-102122000D01*
X62329000Y-102167000D01*
X62340000Y-102213000D01*
X62349000Y-102259000D01*
X62355000Y-102306000D01*
X62359000Y-102353000D01*
X62360000Y-102400000D01*
X62360000Y-104900000D01*
X60560000Y-104900000D01*
X60560000Y-102400000D01*
X60561000Y-102353000D01*
X60565000Y-102306000D01*
X60571000Y-102259000D01*
X60580000Y-102213000D01*
X60591000Y-102167000D01*
X60604000Y-102122000D01*
X60620000Y-102077000D01*
X60638000Y-102034000D01*
X60658000Y-101991000D01*
X60681000Y-101950000D01*
X60705000Y-101910000D01*
X60732000Y-101871000D01*
X60761000Y-101834000D01*
X60791000Y-101798000D01*
X60824000Y-101764000D01*
X60858000Y-101731000D01*
X60894000Y-101701000D01*
X60931000Y-101672000D01*
X60970000Y-101645000D01*
X61010000Y-101621000D01*
X61051000Y-101598000D01*
X61094000Y-101578000D01*
X61137000Y-101560000D01*
X61182000Y-101544000D01*
X61227000Y-101531000D01*
X61273000Y-101520000D01*
X61319000Y-101511000D01*
X61366000Y-101505000D01*
X61413000Y-101501000D01*
X61460000Y-101500000D01*
X61507000Y-101501000D01*
G36*
X61507000Y-101501000D02*
G01*
X61554000Y-101505000D01*
X61601000Y-101511000D01*
X61647000Y-101520000D01*
X61693000Y-101531000D01*
X61738000Y-101544000D01*
X61783000Y-101560000D01*
X61826000Y-101578000D01*
X61869000Y-101598000D01*
X61910000Y-101621000D01*
X61950000Y-101645000D01*
X61989000Y-101672000D01*
X62026000Y-101701000D01*
X62062000Y-101731000D01*
X62096000Y-101764000D01*
X62129000Y-101798000D01*
X62159000Y-101834000D01*
X62188000Y-101871000D01*
X62215000Y-101910000D01*
X62239000Y-101950000D01*
X62262000Y-101991000D01*
X62282000Y-102034000D01*
X62300000Y-102077000D01*
X62316000Y-102122000D01*
X62329000Y-102167000D01*
X62340000Y-102213000D01*
X62349000Y-102259000D01*
X62355000Y-102306000D01*
X62359000Y-102353000D01*
X62360000Y-102400000D01*
X62360000Y-104900000D01*
X60560000Y-104900000D01*
X60560000Y-102400000D01*
X60561000Y-102353000D01*
X60565000Y-102306000D01*
X60571000Y-102259000D01*
X60580000Y-102213000D01*
X60591000Y-102167000D01*
X60604000Y-102122000D01*
X60620000Y-102077000D01*
X60638000Y-102034000D01*
X60658000Y-101991000D01*
X60681000Y-101950000D01*
X60705000Y-101910000D01*
X60732000Y-101871000D01*
X60761000Y-101834000D01*
X60791000Y-101798000D01*
X60824000Y-101764000D01*
X60858000Y-101731000D01*
X60894000Y-101701000D01*
X60931000Y-101672000D01*
X60970000Y-101645000D01*
X61010000Y-101621000D01*
X61051000Y-101598000D01*
X61094000Y-101578000D01*
X61137000Y-101560000D01*
X61182000Y-101544000D01*
X61227000Y-101531000D01*
X61273000Y-101520000D01*
X61319000Y-101511000D01*
X61366000Y-101505000D01*
X61413000Y-101501000D01*
X61460000Y-101500000D01*
X61507000Y-101501000D01*
G37*
X66587000Y-101501000D02*
X66634000Y-101505000D01*
X66681000Y-101511000D01*
X66727000Y-101520000D01*
X66773000Y-101531000D01*
X66818000Y-101544000D01*
X66863000Y-101560000D01*
X66906000Y-101578000D01*
X66949000Y-101598000D01*
X66990000Y-101621000D01*
X67030000Y-101645000D01*
X67069000Y-101672000D01*
X67106000Y-101701000D01*
X67142000Y-101731000D01*
X67176000Y-101764000D01*
X67209000Y-101798000D01*
X67239000Y-101834000D01*
X67268000Y-101871000D01*
X67295000Y-101910000D01*
X67319000Y-101950000D01*
X67342000Y-101991000D01*
X67362000Y-102034000D01*
X67380000Y-102077000D01*
X67396000Y-102122000D01*
X67409000Y-102167000D01*
X67420000Y-102213000D01*
X67429000Y-102259000D01*
X67435000Y-102306000D01*
X67439000Y-102353000D01*
X67440000Y-102400000D01*
X67440000Y-104900000D01*
X65640000Y-104900000D01*
X65640000Y-102400000D01*
X65641000Y-102353000D01*
X65645000Y-102306000D01*
X65651000Y-102259000D01*
X65660000Y-102213000D01*
X65671000Y-102167000D01*
X65684000Y-102122000D01*
X65700000Y-102077000D01*
X65718000Y-102034000D01*
X65738000Y-101991000D01*
X65761000Y-101950000D01*
X65785000Y-101910000D01*
X65812000Y-101871000D01*
X65841000Y-101834000D01*
X65871000Y-101798000D01*
X65904000Y-101764000D01*
X65938000Y-101731000D01*
X65974000Y-101701000D01*
X66011000Y-101672000D01*
X66050000Y-101645000D01*
X66090000Y-101621000D01*
X66131000Y-101598000D01*
X66174000Y-101578000D01*
X66217000Y-101560000D01*
X66262000Y-101544000D01*
X66307000Y-101531000D01*
X66353000Y-101520000D01*
X66399000Y-101511000D01*
X66446000Y-101505000D01*
X66493000Y-101501000D01*
X66540000Y-101500000D01*
X66587000Y-101501000D01*
G36*
X66587000Y-101501000D02*
G01*
X66634000Y-101505000D01*
X66681000Y-101511000D01*
X66727000Y-101520000D01*
X66773000Y-101531000D01*
X66818000Y-101544000D01*
X66863000Y-101560000D01*
X66906000Y-101578000D01*
X66949000Y-101598000D01*
X66990000Y-101621000D01*
X67030000Y-101645000D01*
X67069000Y-101672000D01*
X67106000Y-101701000D01*
X67142000Y-101731000D01*
X67176000Y-101764000D01*
X67209000Y-101798000D01*
X67239000Y-101834000D01*
X67268000Y-101871000D01*
X67295000Y-101910000D01*
X67319000Y-101950000D01*
X67342000Y-101991000D01*
X67362000Y-102034000D01*
X67380000Y-102077000D01*
X67396000Y-102122000D01*
X67409000Y-102167000D01*
X67420000Y-102213000D01*
X67429000Y-102259000D01*
X67435000Y-102306000D01*
X67439000Y-102353000D01*
X67440000Y-102400000D01*
X67440000Y-104900000D01*
X65640000Y-104900000D01*
X65640000Y-102400000D01*
X65641000Y-102353000D01*
X65645000Y-102306000D01*
X65651000Y-102259000D01*
X65660000Y-102213000D01*
X65671000Y-102167000D01*
X65684000Y-102122000D01*
X65700000Y-102077000D01*
X65718000Y-102034000D01*
X65738000Y-101991000D01*
X65761000Y-101950000D01*
X65785000Y-101910000D01*
X65812000Y-101871000D01*
X65841000Y-101834000D01*
X65871000Y-101798000D01*
X65904000Y-101764000D01*
X65938000Y-101731000D01*
X65974000Y-101701000D01*
X66011000Y-101672000D01*
X66050000Y-101645000D01*
X66090000Y-101621000D01*
X66131000Y-101598000D01*
X66174000Y-101578000D01*
X66217000Y-101560000D01*
X66262000Y-101544000D01*
X66307000Y-101531000D01*
X66353000Y-101520000D01*
X66399000Y-101511000D01*
X66446000Y-101505000D01*
X66493000Y-101501000D01*
X66540000Y-101500000D01*
X66587000Y-101501000D01*
G37*
X75390000Y-55270000D02*
X72890000Y-55270000D01*
X72843000Y-55269000D01*
X72796000Y-55265000D01*
X72749000Y-55259000D01*
X72703000Y-55250000D01*
X72657000Y-55239000D01*
X72612000Y-55226000D01*
X72567000Y-55210000D01*
X72524000Y-55192000D01*
X72481000Y-55172000D01*
X72440000Y-55149000D01*
X72400000Y-55125000D01*
X72361000Y-55098000D01*
X72324000Y-55069000D01*
X72288000Y-55039000D01*
X72254000Y-55006000D01*
X72221000Y-54972000D01*
X72191000Y-54936000D01*
X72162000Y-54899000D01*
X72135000Y-54860000D01*
X72111000Y-54820000D01*
X72088000Y-54779000D01*
X72068000Y-54736000D01*
X72050000Y-54693000D01*
X72034000Y-54648000D01*
X72021000Y-54603000D01*
X72010000Y-54557000D01*
X72001000Y-54511000D01*
X71995000Y-54464000D01*
X71991000Y-54417000D01*
X71990000Y-54370000D01*
X71991000Y-54323000D01*
X71995000Y-54276000D01*
X72001000Y-54229000D01*
X72010000Y-54183000D01*
X72021000Y-54137000D01*
X72034000Y-54092000D01*
X72050000Y-54047000D01*
X72068000Y-54004000D01*
X72088000Y-53961000D01*
X72111000Y-53920000D01*
X72135000Y-53880000D01*
X72162000Y-53841000D01*
X72191000Y-53804000D01*
X72221000Y-53768000D01*
X72254000Y-53734000D01*
X72288000Y-53701000D01*
X72324000Y-53671000D01*
X72361000Y-53642000D01*
X72400000Y-53615000D01*
X72440000Y-53591000D01*
X72481000Y-53568000D01*
X72524000Y-53548000D01*
X72567000Y-53530000D01*
X72612000Y-53514000D01*
X72657000Y-53501000D01*
X72703000Y-53490000D01*
X72749000Y-53481000D01*
X72796000Y-53475000D01*
X72843000Y-53471000D01*
X72890000Y-53470000D01*
X75390000Y-53470000D01*
X75390000Y-55270000D01*
G36*
X75390000Y-55270000D02*
G01*
X72890000Y-55270000D01*
X72843000Y-55269000D01*
X72796000Y-55265000D01*
X72749000Y-55259000D01*
X72703000Y-55250000D01*
X72657000Y-55239000D01*
X72612000Y-55226000D01*
X72567000Y-55210000D01*
X72524000Y-55192000D01*
X72481000Y-55172000D01*
X72440000Y-55149000D01*
X72400000Y-55125000D01*
X72361000Y-55098000D01*
X72324000Y-55069000D01*
X72288000Y-55039000D01*
X72254000Y-55006000D01*
X72221000Y-54972000D01*
X72191000Y-54936000D01*
X72162000Y-54899000D01*
X72135000Y-54860000D01*
X72111000Y-54820000D01*
X72088000Y-54779000D01*
X72068000Y-54736000D01*
X72050000Y-54693000D01*
X72034000Y-54648000D01*
X72021000Y-54603000D01*
X72010000Y-54557000D01*
X72001000Y-54511000D01*
X71995000Y-54464000D01*
X71991000Y-54417000D01*
X71990000Y-54370000D01*
X71991000Y-54323000D01*
X71995000Y-54276000D01*
X72001000Y-54229000D01*
X72010000Y-54183000D01*
X72021000Y-54137000D01*
X72034000Y-54092000D01*
X72050000Y-54047000D01*
X72068000Y-54004000D01*
X72088000Y-53961000D01*
X72111000Y-53920000D01*
X72135000Y-53880000D01*
X72162000Y-53841000D01*
X72191000Y-53804000D01*
X72221000Y-53768000D01*
X72254000Y-53734000D01*
X72288000Y-53701000D01*
X72324000Y-53671000D01*
X72361000Y-53642000D01*
X72400000Y-53615000D01*
X72440000Y-53591000D01*
X72481000Y-53568000D01*
X72524000Y-53548000D01*
X72567000Y-53530000D01*
X72612000Y-53514000D01*
X72657000Y-53501000D01*
X72703000Y-53490000D01*
X72749000Y-53481000D01*
X72796000Y-53475000D01*
X72843000Y-53471000D01*
X72890000Y-53470000D01*
X75390000Y-53470000D01*
X75390000Y-55270000D01*
G37*
X75390000Y-57810000D02*
X72890000Y-57810000D01*
X72843000Y-57809000D01*
X72796000Y-57805000D01*
X72749000Y-57799000D01*
X72703000Y-57790000D01*
X72657000Y-57779000D01*
X72612000Y-57766000D01*
X72567000Y-57750000D01*
X72524000Y-57732000D01*
X72481000Y-57712000D01*
X72440000Y-57689000D01*
X72400000Y-57665000D01*
X72361000Y-57638000D01*
X72324000Y-57609000D01*
X72288000Y-57579000D01*
X72254000Y-57546000D01*
X72221000Y-57512000D01*
X72191000Y-57476000D01*
X72162000Y-57439000D01*
X72135000Y-57400000D01*
X72111000Y-57360000D01*
X72088000Y-57319000D01*
X72068000Y-57276000D01*
X72050000Y-57233000D01*
X72034000Y-57188000D01*
X72021000Y-57143000D01*
X72010000Y-57097000D01*
X72001000Y-57051000D01*
X71995000Y-57004000D01*
X71991000Y-56957000D01*
X71990000Y-56910000D01*
X71991000Y-56863000D01*
X71995000Y-56816000D01*
X72001000Y-56769000D01*
X72010000Y-56723000D01*
X72021000Y-56677000D01*
X72034000Y-56632000D01*
X72050000Y-56587000D01*
X72068000Y-56544000D01*
X72088000Y-56501000D01*
X72111000Y-56460000D01*
X72135000Y-56420000D01*
X72162000Y-56381000D01*
X72191000Y-56344000D01*
X72221000Y-56308000D01*
X72254000Y-56274000D01*
X72288000Y-56241000D01*
X72324000Y-56211000D01*
X72361000Y-56182000D01*
X72400000Y-56155000D01*
X72440000Y-56131000D01*
X72481000Y-56108000D01*
X72524000Y-56088000D01*
X72567000Y-56070000D01*
X72612000Y-56054000D01*
X72657000Y-56041000D01*
X72703000Y-56030000D01*
X72749000Y-56021000D01*
X72796000Y-56015000D01*
X72843000Y-56011000D01*
X72890000Y-56010000D01*
X75390000Y-56010000D01*
X75390000Y-57810000D01*
G36*
X75390000Y-57810000D02*
G01*
X72890000Y-57810000D01*
X72843000Y-57809000D01*
X72796000Y-57805000D01*
X72749000Y-57799000D01*
X72703000Y-57790000D01*
X72657000Y-57779000D01*
X72612000Y-57766000D01*
X72567000Y-57750000D01*
X72524000Y-57732000D01*
X72481000Y-57712000D01*
X72440000Y-57689000D01*
X72400000Y-57665000D01*
X72361000Y-57638000D01*
X72324000Y-57609000D01*
X72288000Y-57579000D01*
X72254000Y-57546000D01*
X72221000Y-57512000D01*
X72191000Y-57476000D01*
X72162000Y-57439000D01*
X72135000Y-57400000D01*
X72111000Y-57360000D01*
X72088000Y-57319000D01*
X72068000Y-57276000D01*
X72050000Y-57233000D01*
X72034000Y-57188000D01*
X72021000Y-57143000D01*
X72010000Y-57097000D01*
X72001000Y-57051000D01*
X71995000Y-57004000D01*
X71991000Y-56957000D01*
X71990000Y-56910000D01*
X71991000Y-56863000D01*
X71995000Y-56816000D01*
X72001000Y-56769000D01*
X72010000Y-56723000D01*
X72021000Y-56677000D01*
X72034000Y-56632000D01*
X72050000Y-56587000D01*
X72068000Y-56544000D01*
X72088000Y-56501000D01*
X72111000Y-56460000D01*
X72135000Y-56420000D01*
X72162000Y-56381000D01*
X72191000Y-56344000D01*
X72221000Y-56308000D01*
X72254000Y-56274000D01*
X72288000Y-56241000D01*
X72324000Y-56211000D01*
X72361000Y-56182000D01*
X72400000Y-56155000D01*
X72440000Y-56131000D01*
X72481000Y-56108000D01*
X72524000Y-56088000D01*
X72567000Y-56070000D01*
X72612000Y-56054000D01*
X72657000Y-56041000D01*
X72703000Y-56030000D01*
X72749000Y-56021000D01*
X72796000Y-56015000D01*
X72843000Y-56011000D01*
X72890000Y-56010000D01*
X75390000Y-56010000D01*
X75390000Y-57810000D01*
G37*
X75390000Y-62890000D02*
X72890000Y-62890000D01*
X72843000Y-62889000D01*
X72796000Y-62885000D01*
X72749000Y-62879000D01*
X72703000Y-62870000D01*
X72657000Y-62859000D01*
X72612000Y-62846000D01*
X72567000Y-62830000D01*
X72524000Y-62812000D01*
X72481000Y-62792000D01*
X72440000Y-62769000D01*
X72400000Y-62745000D01*
X72361000Y-62718000D01*
X72324000Y-62689000D01*
X72288000Y-62659000D01*
X72254000Y-62626000D01*
X72221000Y-62592000D01*
X72191000Y-62556000D01*
X72162000Y-62519000D01*
X72135000Y-62480000D01*
X72111000Y-62440000D01*
X72088000Y-62399000D01*
X72068000Y-62356000D01*
X72050000Y-62313000D01*
X72034000Y-62268000D01*
X72021000Y-62223000D01*
X72010000Y-62177000D01*
X72001000Y-62131000D01*
X71995000Y-62084000D01*
X71991000Y-62037000D01*
X71990000Y-61990000D01*
X71991000Y-61943000D01*
X71995000Y-61896000D01*
X72001000Y-61849000D01*
X72010000Y-61803000D01*
X72021000Y-61757000D01*
X72034000Y-61712000D01*
X72050000Y-61667000D01*
X72068000Y-61624000D01*
X72088000Y-61581000D01*
X72111000Y-61540000D01*
X72135000Y-61500000D01*
X72162000Y-61461000D01*
X72191000Y-61424000D01*
X72221000Y-61388000D01*
X72254000Y-61354000D01*
X72288000Y-61321000D01*
X72324000Y-61291000D01*
X72361000Y-61262000D01*
X72400000Y-61235000D01*
X72440000Y-61211000D01*
X72481000Y-61188000D01*
X72524000Y-61168000D01*
X72567000Y-61150000D01*
X72612000Y-61134000D01*
X72657000Y-61121000D01*
X72703000Y-61110000D01*
X72749000Y-61101000D01*
X72796000Y-61095000D01*
X72843000Y-61091000D01*
X72890000Y-61090000D01*
X75390000Y-61090000D01*
X75390000Y-62890000D01*
G36*
X75390000Y-62890000D02*
G01*
X72890000Y-62890000D01*
X72843000Y-62889000D01*
X72796000Y-62885000D01*
X72749000Y-62879000D01*
X72703000Y-62870000D01*
X72657000Y-62859000D01*
X72612000Y-62846000D01*
X72567000Y-62830000D01*
X72524000Y-62812000D01*
X72481000Y-62792000D01*
X72440000Y-62769000D01*
X72400000Y-62745000D01*
X72361000Y-62718000D01*
X72324000Y-62689000D01*
X72288000Y-62659000D01*
X72254000Y-62626000D01*
X72221000Y-62592000D01*
X72191000Y-62556000D01*
X72162000Y-62519000D01*
X72135000Y-62480000D01*
X72111000Y-62440000D01*
X72088000Y-62399000D01*
X72068000Y-62356000D01*
X72050000Y-62313000D01*
X72034000Y-62268000D01*
X72021000Y-62223000D01*
X72010000Y-62177000D01*
X72001000Y-62131000D01*
X71995000Y-62084000D01*
X71991000Y-62037000D01*
X71990000Y-61990000D01*
X71991000Y-61943000D01*
X71995000Y-61896000D01*
X72001000Y-61849000D01*
X72010000Y-61803000D01*
X72021000Y-61757000D01*
X72034000Y-61712000D01*
X72050000Y-61667000D01*
X72068000Y-61624000D01*
X72088000Y-61581000D01*
X72111000Y-61540000D01*
X72135000Y-61500000D01*
X72162000Y-61461000D01*
X72191000Y-61424000D01*
X72221000Y-61388000D01*
X72254000Y-61354000D01*
X72288000Y-61321000D01*
X72324000Y-61291000D01*
X72361000Y-61262000D01*
X72400000Y-61235000D01*
X72440000Y-61211000D01*
X72481000Y-61188000D01*
X72524000Y-61168000D01*
X72567000Y-61150000D01*
X72612000Y-61134000D01*
X72657000Y-61121000D01*
X72703000Y-61110000D01*
X72749000Y-61101000D01*
X72796000Y-61095000D01*
X72843000Y-61091000D01*
X72890000Y-61090000D01*
X75390000Y-61090000D01*
X75390000Y-62890000D01*
G37*
X75390000Y-65430000D02*
X72890000Y-65430000D01*
X72843000Y-65429000D01*
X72796000Y-65425000D01*
X72749000Y-65419000D01*
X72703000Y-65410000D01*
X72657000Y-65399000D01*
X72612000Y-65386000D01*
X72567000Y-65370000D01*
X72524000Y-65352000D01*
X72481000Y-65332000D01*
X72440000Y-65309000D01*
X72400000Y-65285000D01*
X72361000Y-65258000D01*
X72324000Y-65229000D01*
X72288000Y-65199000D01*
X72254000Y-65166000D01*
X72221000Y-65132000D01*
X72191000Y-65096000D01*
X72162000Y-65059000D01*
X72135000Y-65020000D01*
X72111000Y-64980000D01*
X72088000Y-64939000D01*
X72068000Y-64896000D01*
X72050000Y-64853000D01*
X72034000Y-64808000D01*
X72021000Y-64763000D01*
X72010000Y-64717000D01*
X72001000Y-64671000D01*
X71995000Y-64624000D01*
X71991000Y-64577000D01*
X71990000Y-64530000D01*
X71991000Y-64483000D01*
X71995000Y-64436000D01*
X72001000Y-64389000D01*
X72010000Y-64343000D01*
X72021000Y-64297000D01*
X72034000Y-64252000D01*
X72050000Y-64207000D01*
X72068000Y-64164000D01*
X72088000Y-64121000D01*
X72111000Y-64080000D01*
X72135000Y-64040000D01*
X72162000Y-64001000D01*
X72191000Y-63964000D01*
X72221000Y-63928000D01*
X72254000Y-63894000D01*
X72288000Y-63861000D01*
X72324000Y-63831000D01*
X72361000Y-63802000D01*
X72400000Y-63775000D01*
X72440000Y-63751000D01*
X72481000Y-63728000D01*
X72524000Y-63708000D01*
X72567000Y-63690000D01*
X72612000Y-63674000D01*
X72657000Y-63661000D01*
X72703000Y-63650000D01*
X72749000Y-63641000D01*
X72796000Y-63635000D01*
X72843000Y-63631000D01*
X72890000Y-63630000D01*
X75390000Y-63630000D01*
X75390000Y-65430000D01*
G36*
X75390000Y-65430000D02*
G01*
X72890000Y-65430000D01*
X72843000Y-65429000D01*
X72796000Y-65425000D01*
X72749000Y-65419000D01*
X72703000Y-65410000D01*
X72657000Y-65399000D01*
X72612000Y-65386000D01*
X72567000Y-65370000D01*
X72524000Y-65352000D01*
X72481000Y-65332000D01*
X72440000Y-65309000D01*
X72400000Y-65285000D01*
X72361000Y-65258000D01*
X72324000Y-65229000D01*
X72288000Y-65199000D01*
X72254000Y-65166000D01*
X72221000Y-65132000D01*
X72191000Y-65096000D01*
X72162000Y-65059000D01*
X72135000Y-65020000D01*
X72111000Y-64980000D01*
X72088000Y-64939000D01*
X72068000Y-64896000D01*
X72050000Y-64853000D01*
X72034000Y-64808000D01*
X72021000Y-64763000D01*
X72010000Y-64717000D01*
X72001000Y-64671000D01*
X71995000Y-64624000D01*
X71991000Y-64577000D01*
X71990000Y-64530000D01*
X71991000Y-64483000D01*
X71995000Y-64436000D01*
X72001000Y-64389000D01*
X72010000Y-64343000D01*
X72021000Y-64297000D01*
X72034000Y-64252000D01*
X72050000Y-64207000D01*
X72068000Y-64164000D01*
X72088000Y-64121000D01*
X72111000Y-64080000D01*
X72135000Y-64040000D01*
X72162000Y-64001000D01*
X72191000Y-63964000D01*
X72221000Y-63928000D01*
X72254000Y-63894000D01*
X72288000Y-63861000D01*
X72324000Y-63831000D01*
X72361000Y-63802000D01*
X72400000Y-63775000D01*
X72440000Y-63751000D01*
X72481000Y-63728000D01*
X72524000Y-63708000D01*
X72567000Y-63690000D01*
X72612000Y-63674000D01*
X72657000Y-63661000D01*
X72703000Y-63650000D01*
X72749000Y-63641000D01*
X72796000Y-63635000D01*
X72843000Y-63631000D01*
X72890000Y-63630000D01*
X75390000Y-63630000D01*
X75390000Y-65430000D01*
G37*
X75390000Y-67970000D02*
X72890000Y-67970000D01*
X72843000Y-67969000D01*
X72796000Y-67965000D01*
X72749000Y-67959000D01*
X72703000Y-67950000D01*
X72657000Y-67939000D01*
X72612000Y-67926000D01*
X72567000Y-67910000D01*
X72524000Y-67892000D01*
X72481000Y-67872000D01*
X72440000Y-67849000D01*
X72400000Y-67825000D01*
X72361000Y-67798000D01*
X72324000Y-67769000D01*
X72288000Y-67739000D01*
X72254000Y-67706000D01*
X72221000Y-67672000D01*
X72191000Y-67636000D01*
X72162000Y-67599000D01*
X72135000Y-67560000D01*
X72111000Y-67520000D01*
X72088000Y-67479000D01*
X72068000Y-67436000D01*
X72050000Y-67393000D01*
X72034000Y-67348000D01*
X72021000Y-67303000D01*
X72010000Y-67257000D01*
X72001000Y-67211000D01*
X71995000Y-67164000D01*
X71991000Y-67117000D01*
X71990000Y-67070000D01*
X71991000Y-67023000D01*
X71995000Y-66976000D01*
X72001000Y-66929000D01*
X72010000Y-66883000D01*
X72021000Y-66837000D01*
X72034000Y-66792000D01*
X72050000Y-66747000D01*
X72068000Y-66704000D01*
X72088000Y-66661000D01*
X72111000Y-66620000D01*
X72135000Y-66580000D01*
X72162000Y-66541000D01*
X72191000Y-66504000D01*
X72221000Y-66468000D01*
X72254000Y-66434000D01*
X72288000Y-66401000D01*
X72324000Y-66371000D01*
X72361000Y-66342000D01*
X72400000Y-66315000D01*
X72440000Y-66291000D01*
X72481000Y-66268000D01*
X72524000Y-66248000D01*
X72567000Y-66230000D01*
X72612000Y-66214000D01*
X72657000Y-66201000D01*
X72703000Y-66190000D01*
X72749000Y-66181000D01*
X72796000Y-66175000D01*
X72843000Y-66171000D01*
X72890000Y-66170000D01*
X75390000Y-66170000D01*
X75390000Y-67970000D01*
G36*
X75390000Y-67970000D02*
G01*
X72890000Y-67970000D01*
X72843000Y-67969000D01*
X72796000Y-67965000D01*
X72749000Y-67959000D01*
X72703000Y-67950000D01*
X72657000Y-67939000D01*
X72612000Y-67926000D01*
X72567000Y-67910000D01*
X72524000Y-67892000D01*
X72481000Y-67872000D01*
X72440000Y-67849000D01*
X72400000Y-67825000D01*
X72361000Y-67798000D01*
X72324000Y-67769000D01*
X72288000Y-67739000D01*
X72254000Y-67706000D01*
X72221000Y-67672000D01*
X72191000Y-67636000D01*
X72162000Y-67599000D01*
X72135000Y-67560000D01*
X72111000Y-67520000D01*
X72088000Y-67479000D01*
X72068000Y-67436000D01*
X72050000Y-67393000D01*
X72034000Y-67348000D01*
X72021000Y-67303000D01*
X72010000Y-67257000D01*
X72001000Y-67211000D01*
X71995000Y-67164000D01*
X71991000Y-67117000D01*
X71990000Y-67070000D01*
X71991000Y-67023000D01*
X71995000Y-66976000D01*
X72001000Y-66929000D01*
X72010000Y-66883000D01*
X72021000Y-66837000D01*
X72034000Y-66792000D01*
X72050000Y-66747000D01*
X72068000Y-66704000D01*
X72088000Y-66661000D01*
X72111000Y-66620000D01*
X72135000Y-66580000D01*
X72162000Y-66541000D01*
X72191000Y-66504000D01*
X72221000Y-66468000D01*
X72254000Y-66434000D01*
X72288000Y-66401000D01*
X72324000Y-66371000D01*
X72361000Y-66342000D01*
X72400000Y-66315000D01*
X72440000Y-66291000D01*
X72481000Y-66268000D01*
X72524000Y-66248000D01*
X72567000Y-66230000D01*
X72612000Y-66214000D01*
X72657000Y-66201000D01*
X72703000Y-66190000D01*
X72749000Y-66181000D01*
X72796000Y-66175000D01*
X72843000Y-66171000D01*
X72890000Y-66170000D01*
X75390000Y-66170000D01*
X75390000Y-67970000D01*
G37*
X75390000Y-70510000D02*
X72890000Y-70510000D01*
X72843000Y-70509000D01*
X72796000Y-70505000D01*
X72749000Y-70499000D01*
X72703000Y-70490000D01*
X72657000Y-70479000D01*
X72612000Y-70466000D01*
X72567000Y-70450000D01*
X72524000Y-70432000D01*
X72481000Y-70412000D01*
X72440000Y-70389000D01*
X72400000Y-70365000D01*
X72361000Y-70338000D01*
X72324000Y-70309000D01*
X72288000Y-70279000D01*
X72254000Y-70246000D01*
X72221000Y-70212000D01*
X72191000Y-70176000D01*
X72162000Y-70139000D01*
X72135000Y-70100000D01*
X72111000Y-70060000D01*
X72088000Y-70019000D01*
X72068000Y-69976000D01*
X72050000Y-69933000D01*
X72034000Y-69888000D01*
X72021000Y-69843000D01*
X72010000Y-69797000D01*
X72001000Y-69751000D01*
X71995000Y-69704000D01*
X71991000Y-69657000D01*
X71990000Y-69610000D01*
X71991000Y-69563000D01*
X71995000Y-69516000D01*
X72001000Y-69469000D01*
X72010000Y-69423000D01*
X72021000Y-69377000D01*
X72034000Y-69332000D01*
X72050000Y-69287000D01*
X72068000Y-69244000D01*
X72088000Y-69201000D01*
X72111000Y-69160000D01*
X72135000Y-69120000D01*
X72162000Y-69081000D01*
X72191000Y-69044000D01*
X72221000Y-69008000D01*
X72254000Y-68974000D01*
X72288000Y-68941000D01*
X72324000Y-68911000D01*
X72361000Y-68882000D01*
X72400000Y-68855000D01*
X72440000Y-68831000D01*
X72481000Y-68808000D01*
X72524000Y-68788000D01*
X72567000Y-68770000D01*
X72612000Y-68754000D01*
X72657000Y-68741000D01*
X72703000Y-68730000D01*
X72749000Y-68721000D01*
X72796000Y-68715000D01*
X72843000Y-68711000D01*
X72890000Y-68710000D01*
X75390000Y-68710000D01*
X75390000Y-70510000D01*
G36*
X75390000Y-70510000D02*
G01*
X72890000Y-70510000D01*
X72843000Y-70509000D01*
X72796000Y-70505000D01*
X72749000Y-70499000D01*
X72703000Y-70490000D01*
X72657000Y-70479000D01*
X72612000Y-70466000D01*
X72567000Y-70450000D01*
X72524000Y-70432000D01*
X72481000Y-70412000D01*
X72440000Y-70389000D01*
X72400000Y-70365000D01*
X72361000Y-70338000D01*
X72324000Y-70309000D01*
X72288000Y-70279000D01*
X72254000Y-70246000D01*
X72221000Y-70212000D01*
X72191000Y-70176000D01*
X72162000Y-70139000D01*
X72135000Y-70100000D01*
X72111000Y-70060000D01*
X72088000Y-70019000D01*
X72068000Y-69976000D01*
X72050000Y-69933000D01*
X72034000Y-69888000D01*
X72021000Y-69843000D01*
X72010000Y-69797000D01*
X72001000Y-69751000D01*
X71995000Y-69704000D01*
X71991000Y-69657000D01*
X71990000Y-69610000D01*
X71991000Y-69563000D01*
X71995000Y-69516000D01*
X72001000Y-69469000D01*
X72010000Y-69423000D01*
X72021000Y-69377000D01*
X72034000Y-69332000D01*
X72050000Y-69287000D01*
X72068000Y-69244000D01*
X72088000Y-69201000D01*
X72111000Y-69160000D01*
X72135000Y-69120000D01*
X72162000Y-69081000D01*
X72191000Y-69044000D01*
X72221000Y-69008000D01*
X72254000Y-68974000D01*
X72288000Y-68941000D01*
X72324000Y-68911000D01*
X72361000Y-68882000D01*
X72400000Y-68855000D01*
X72440000Y-68831000D01*
X72481000Y-68808000D01*
X72524000Y-68788000D01*
X72567000Y-68770000D01*
X72612000Y-68754000D01*
X72657000Y-68741000D01*
X72703000Y-68730000D01*
X72749000Y-68721000D01*
X72796000Y-68715000D01*
X72843000Y-68711000D01*
X72890000Y-68710000D01*
X75390000Y-68710000D01*
X75390000Y-70510000D01*
G37*
X75390000Y-75590000D02*
X72890000Y-75590000D01*
X72843000Y-75589000D01*
X72796000Y-75585000D01*
X72749000Y-75579000D01*
X72703000Y-75570000D01*
X72657000Y-75559000D01*
X72612000Y-75546000D01*
X72567000Y-75530000D01*
X72524000Y-75512000D01*
X72481000Y-75492000D01*
X72440000Y-75469000D01*
X72400000Y-75445000D01*
X72361000Y-75418000D01*
X72324000Y-75389000D01*
X72288000Y-75359000D01*
X72254000Y-75326000D01*
X72221000Y-75292000D01*
X72191000Y-75256000D01*
X72162000Y-75219000D01*
X72135000Y-75180000D01*
X72111000Y-75140000D01*
X72088000Y-75099000D01*
X72068000Y-75056000D01*
X72050000Y-75013000D01*
X72034000Y-74968000D01*
X72021000Y-74923000D01*
X72010000Y-74877000D01*
X72001000Y-74831000D01*
X71995000Y-74784000D01*
X71991000Y-74737000D01*
X71990000Y-74690000D01*
X71991000Y-74643000D01*
X71995000Y-74596000D01*
X72001000Y-74549000D01*
X72010000Y-74503000D01*
X72021000Y-74457000D01*
X72034000Y-74412000D01*
X72050000Y-74367000D01*
X72068000Y-74324000D01*
X72088000Y-74281000D01*
X72111000Y-74240000D01*
X72135000Y-74200000D01*
X72162000Y-74161000D01*
X72191000Y-74124000D01*
X72221000Y-74088000D01*
X72254000Y-74054000D01*
X72288000Y-74021000D01*
X72324000Y-73991000D01*
X72361000Y-73962000D01*
X72400000Y-73935000D01*
X72440000Y-73911000D01*
X72481000Y-73888000D01*
X72524000Y-73868000D01*
X72567000Y-73850000D01*
X72612000Y-73834000D01*
X72657000Y-73821000D01*
X72703000Y-73810000D01*
X72749000Y-73801000D01*
X72796000Y-73795000D01*
X72843000Y-73791000D01*
X72890000Y-73790000D01*
X75390000Y-73790000D01*
X75390000Y-75590000D01*
G36*
X75390000Y-75590000D02*
G01*
X72890000Y-75590000D01*
X72843000Y-75589000D01*
X72796000Y-75585000D01*
X72749000Y-75579000D01*
X72703000Y-75570000D01*
X72657000Y-75559000D01*
X72612000Y-75546000D01*
X72567000Y-75530000D01*
X72524000Y-75512000D01*
X72481000Y-75492000D01*
X72440000Y-75469000D01*
X72400000Y-75445000D01*
X72361000Y-75418000D01*
X72324000Y-75389000D01*
X72288000Y-75359000D01*
X72254000Y-75326000D01*
X72221000Y-75292000D01*
X72191000Y-75256000D01*
X72162000Y-75219000D01*
X72135000Y-75180000D01*
X72111000Y-75140000D01*
X72088000Y-75099000D01*
X72068000Y-75056000D01*
X72050000Y-75013000D01*
X72034000Y-74968000D01*
X72021000Y-74923000D01*
X72010000Y-74877000D01*
X72001000Y-74831000D01*
X71995000Y-74784000D01*
X71991000Y-74737000D01*
X71990000Y-74690000D01*
X71991000Y-74643000D01*
X71995000Y-74596000D01*
X72001000Y-74549000D01*
X72010000Y-74503000D01*
X72021000Y-74457000D01*
X72034000Y-74412000D01*
X72050000Y-74367000D01*
X72068000Y-74324000D01*
X72088000Y-74281000D01*
X72111000Y-74240000D01*
X72135000Y-74200000D01*
X72162000Y-74161000D01*
X72191000Y-74124000D01*
X72221000Y-74088000D01*
X72254000Y-74054000D01*
X72288000Y-74021000D01*
X72324000Y-73991000D01*
X72361000Y-73962000D01*
X72400000Y-73935000D01*
X72440000Y-73911000D01*
X72481000Y-73888000D01*
X72524000Y-73868000D01*
X72567000Y-73850000D01*
X72612000Y-73834000D01*
X72657000Y-73821000D01*
X72703000Y-73810000D01*
X72749000Y-73801000D01*
X72796000Y-73795000D01*
X72843000Y-73791000D01*
X72890000Y-73790000D01*
X75390000Y-73790000D01*
X75390000Y-75590000D01*
G37*
X75390000Y-78130000D02*
X72890000Y-78130000D01*
X72843000Y-78129000D01*
X72796000Y-78125000D01*
X72749000Y-78119000D01*
X72703000Y-78110000D01*
X72657000Y-78099000D01*
X72612000Y-78086000D01*
X72567000Y-78070000D01*
X72524000Y-78052000D01*
X72481000Y-78032000D01*
X72440000Y-78009000D01*
X72400000Y-77985000D01*
X72361000Y-77958000D01*
X72324000Y-77929000D01*
X72288000Y-77899000D01*
X72254000Y-77866000D01*
X72221000Y-77832000D01*
X72191000Y-77796000D01*
X72162000Y-77759000D01*
X72135000Y-77720000D01*
X72111000Y-77680000D01*
X72088000Y-77639000D01*
X72068000Y-77596000D01*
X72050000Y-77553000D01*
X72034000Y-77508000D01*
X72021000Y-77463000D01*
X72010000Y-77417000D01*
X72001000Y-77371000D01*
X71995000Y-77324000D01*
X71991000Y-77277000D01*
X71990000Y-77230000D01*
X71991000Y-77183000D01*
X71995000Y-77136000D01*
X72001000Y-77089000D01*
X72010000Y-77043000D01*
X72021000Y-76997000D01*
X72034000Y-76952000D01*
X72050000Y-76907000D01*
X72068000Y-76864000D01*
X72088000Y-76821000D01*
X72111000Y-76780000D01*
X72135000Y-76740000D01*
X72162000Y-76701000D01*
X72191000Y-76664000D01*
X72221000Y-76628000D01*
X72254000Y-76594000D01*
X72288000Y-76561000D01*
X72324000Y-76531000D01*
X72361000Y-76502000D01*
X72400000Y-76475000D01*
X72440000Y-76451000D01*
X72481000Y-76428000D01*
X72524000Y-76408000D01*
X72567000Y-76390000D01*
X72612000Y-76374000D01*
X72657000Y-76361000D01*
X72703000Y-76350000D01*
X72749000Y-76341000D01*
X72796000Y-76335000D01*
X72843000Y-76331000D01*
X72890000Y-76330000D01*
X75390000Y-76330000D01*
X75390000Y-78130000D01*
G36*
X75390000Y-78130000D02*
G01*
X72890000Y-78130000D01*
X72843000Y-78129000D01*
X72796000Y-78125000D01*
X72749000Y-78119000D01*
X72703000Y-78110000D01*
X72657000Y-78099000D01*
X72612000Y-78086000D01*
X72567000Y-78070000D01*
X72524000Y-78052000D01*
X72481000Y-78032000D01*
X72440000Y-78009000D01*
X72400000Y-77985000D01*
X72361000Y-77958000D01*
X72324000Y-77929000D01*
X72288000Y-77899000D01*
X72254000Y-77866000D01*
X72221000Y-77832000D01*
X72191000Y-77796000D01*
X72162000Y-77759000D01*
X72135000Y-77720000D01*
X72111000Y-77680000D01*
X72088000Y-77639000D01*
X72068000Y-77596000D01*
X72050000Y-77553000D01*
X72034000Y-77508000D01*
X72021000Y-77463000D01*
X72010000Y-77417000D01*
X72001000Y-77371000D01*
X71995000Y-77324000D01*
X71991000Y-77277000D01*
X71990000Y-77230000D01*
X71991000Y-77183000D01*
X71995000Y-77136000D01*
X72001000Y-77089000D01*
X72010000Y-77043000D01*
X72021000Y-76997000D01*
X72034000Y-76952000D01*
X72050000Y-76907000D01*
X72068000Y-76864000D01*
X72088000Y-76821000D01*
X72111000Y-76780000D01*
X72135000Y-76740000D01*
X72162000Y-76701000D01*
X72191000Y-76664000D01*
X72221000Y-76628000D01*
X72254000Y-76594000D01*
X72288000Y-76561000D01*
X72324000Y-76531000D01*
X72361000Y-76502000D01*
X72400000Y-76475000D01*
X72440000Y-76451000D01*
X72481000Y-76428000D01*
X72524000Y-76408000D01*
X72567000Y-76390000D01*
X72612000Y-76374000D01*
X72657000Y-76361000D01*
X72703000Y-76350000D01*
X72749000Y-76341000D01*
X72796000Y-76335000D01*
X72843000Y-76331000D01*
X72890000Y-76330000D01*
X75390000Y-76330000D01*
X75390000Y-78130000D01*
G37*
X75390000Y-80670000D02*
X72890000Y-80670000D01*
X72843000Y-80669000D01*
X72796000Y-80665000D01*
X72749000Y-80659000D01*
X72703000Y-80650000D01*
X72657000Y-80639000D01*
X72612000Y-80626000D01*
X72567000Y-80610000D01*
X72524000Y-80592000D01*
X72481000Y-80572000D01*
X72440000Y-80549000D01*
X72400000Y-80525000D01*
X72361000Y-80498000D01*
X72324000Y-80469000D01*
X72288000Y-80439000D01*
X72254000Y-80406000D01*
X72221000Y-80372000D01*
X72191000Y-80336000D01*
X72162000Y-80299000D01*
X72135000Y-80260000D01*
X72111000Y-80220000D01*
X72088000Y-80179000D01*
X72068000Y-80136000D01*
X72050000Y-80093000D01*
X72034000Y-80048000D01*
X72021000Y-80003000D01*
X72010000Y-79957000D01*
X72001000Y-79911000D01*
X71995000Y-79864000D01*
X71991000Y-79817000D01*
X71990000Y-79770000D01*
X71991000Y-79723000D01*
X71995000Y-79676000D01*
X72001000Y-79629000D01*
X72010000Y-79583000D01*
X72021000Y-79537000D01*
X72034000Y-79492000D01*
X72050000Y-79447000D01*
X72068000Y-79404000D01*
X72088000Y-79361000D01*
X72111000Y-79320000D01*
X72135000Y-79280000D01*
X72162000Y-79241000D01*
X72191000Y-79204000D01*
X72221000Y-79168000D01*
X72254000Y-79134000D01*
X72288000Y-79101000D01*
X72324000Y-79071000D01*
X72361000Y-79042000D01*
X72400000Y-79015000D01*
X72440000Y-78991000D01*
X72481000Y-78968000D01*
X72524000Y-78948000D01*
X72567000Y-78930000D01*
X72612000Y-78914000D01*
X72657000Y-78901000D01*
X72703000Y-78890000D01*
X72749000Y-78881000D01*
X72796000Y-78875000D01*
X72843000Y-78871000D01*
X72890000Y-78870000D01*
X75390000Y-78870000D01*
X75390000Y-80670000D01*
G36*
X75390000Y-80670000D02*
G01*
X72890000Y-80670000D01*
X72843000Y-80669000D01*
X72796000Y-80665000D01*
X72749000Y-80659000D01*
X72703000Y-80650000D01*
X72657000Y-80639000D01*
X72612000Y-80626000D01*
X72567000Y-80610000D01*
X72524000Y-80592000D01*
X72481000Y-80572000D01*
X72440000Y-80549000D01*
X72400000Y-80525000D01*
X72361000Y-80498000D01*
X72324000Y-80469000D01*
X72288000Y-80439000D01*
X72254000Y-80406000D01*
X72221000Y-80372000D01*
X72191000Y-80336000D01*
X72162000Y-80299000D01*
X72135000Y-80260000D01*
X72111000Y-80220000D01*
X72088000Y-80179000D01*
X72068000Y-80136000D01*
X72050000Y-80093000D01*
X72034000Y-80048000D01*
X72021000Y-80003000D01*
X72010000Y-79957000D01*
X72001000Y-79911000D01*
X71995000Y-79864000D01*
X71991000Y-79817000D01*
X71990000Y-79770000D01*
X71991000Y-79723000D01*
X71995000Y-79676000D01*
X72001000Y-79629000D01*
X72010000Y-79583000D01*
X72021000Y-79537000D01*
X72034000Y-79492000D01*
X72050000Y-79447000D01*
X72068000Y-79404000D01*
X72088000Y-79361000D01*
X72111000Y-79320000D01*
X72135000Y-79280000D01*
X72162000Y-79241000D01*
X72191000Y-79204000D01*
X72221000Y-79168000D01*
X72254000Y-79134000D01*
X72288000Y-79101000D01*
X72324000Y-79071000D01*
X72361000Y-79042000D01*
X72400000Y-79015000D01*
X72440000Y-78991000D01*
X72481000Y-78968000D01*
X72524000Y-78948000D01*
X72567000Y-78930000D01*
X72612000Y-78914000D01*
X72657000Y-78901000D01*
X72703000Y-78890000D01*
X72749000Y-78881000D01*
X72796000Y-78875000D01*
X72843000Y-78871000D01*
X72890000Y-78870000D01*
X75390000Y-78870000D01*
X75390000Y-80670000D01*
G37*
X75390000Y-83210000D02*
X72890000Y-83210000D01*
X72843000Y-83209000D01*
X72796000Y-83205000D01*
X72749000Y-83199000D01*
X72703000Y-83190000D01*
X72657000Y-83179000D01*
X72612000Y-83166000D01*
X72567000Y-83150000D01*
X72524000Y-83132000D01*
X72481000Y-83112000D01*
X72440000Y-83089000D01*
X72400000Y-83065000D01*
X72361000Y-83038000D01*
X72324000Y-83009000D01*
X72288000Y-82979000D01*
X72254000Y-82946000D01*
X72221000Y-82912000D01*
X72191000Y-82876000D01*
X72162000Y-82839000D01*
X72135000Y-82800000D01*
X72111000Y-82760000D01*
X72088000Y-82719000D01*
X72068000Y-82676000D01*
X72050000Y-82633000D01*
X72034000Y-82588000D01*
X72021000Y-82543000D01*
X72010000Y-82497000D01*
X72001000Y-82451000D01*
X71995000Y-82404000D01*
X71991000Y-82357000D01*
X71990000Y-82310000D01*
X71991000Y-82263000D01*
X71995000Y-82216000D01*
X72001000Y-82169000D01*
X72010000Y-82123000D01*
X72021000Y-82077000D01*
X72034000Y-82032000D01*
X72050000Y-81987000D01*
X72068000Y-81944000D01*
X72088000Y-81901000D01*
X72111000Y-81860000D01*
X72135000Y-81820000D01*
X72162000Y-81781000D01*
X72191000Y-81744000D01*
X72221000Y-81708000D01*
X72254000Y-81674000D01*
X72288000Y-81641000D01*
X72324000Y-81611000D01*
X72361000Y-81582000D01*
X72400000Y-81555000D01*
X72440000Y-81531000D01*
X72481000Y-81508000D01*
X72524000Y-81488000D01*
X72567000Y-81470000D01*
X72612000Y-81454000D01*
X72657000Y-81441000D01*
X72703000Y-81430000D01*
X72749000Y-81421000D01*
X72796000Y-81415000D01*
X72843000Y-81411000D01*
X72890000Y-81410000D01*
X75390000Y-81410000D01*
X75390000Y-83210000D01*
G36*
X75390000Y-83210000D02*
G01*
X72890000Y-83210000D01*
X72843000Y-83209000D01*
X72796000Y-83205000D01*
X72749000Y-83199000D01*
X72703000Y-83190000D01*
X72657000Y-83179000D01*
X72612000Y-83166000D01*
X72567000Y-83150000D01*
X72524000Y-83132000D01*
X72481000Y-83112000D01*
X72440000Y-83089000D01*
X72400000Y-83065000D01*
X72361000Y-83038000D01*
X72324000Y-83009000D01*
X72288000Y-82979000D01*
X72254000Y-82946000D01*
X72221000Y-82912000D01*
X72191000Y-82876000D01*
X72162000Y-82839000D01*
X72135000Y-82800000D01*
X72111000Y-82760000D01*
X72088000Y-82719000D01*
X72068000Y-82676000D01*
X72050000Y-82633000D01*
X72034000Y-82588000D01*
X72021000Y-82543000D01*
X72010000Y-82497000D01*
X72001000Y-82451000D01*
X71995000Y-82404000D01*
X71991000Y-82357000D01*
X71990000Y-82310000D01*
X71991000Y-82263000D01*
X71995000Y-82216000D01*
X72001000Y-82169000D01*
X72010000Y-82123000D01*
X72021000Y-82077000D01*
X72034000Y-82032000D01*
X72050000Y-81987000D01*
X72068000Y-81944000D01*
X72088000Y-81901000D01*
X72111000Y-81860000D01*
X72135000Y-81820000D01*
X72162000Y-81781000D01*
X72191000Y-81744000D01*
X72221000Y-81708000D01*
X72254000Y-81674000D01*
X72288000Y-81641000D01*
X72324000Y-81611000D01*
X72361000Y-81582000D01*
X72400000Y-81555000D01*
X72440000Y-81531000D01*
X72481000Y-81508000D01*
X72524000Y-81488000D01*
X72567000Y-81470000D01*
X72612000Y-81454000D01*
X72657000Y-81441000D01*
X72703000Y-81430000D01*
X72749000Y-81421000D01*
X72796000Y-81415000D01*
X72843000Y-81411000D01*
X72890000Y-81410000D01*
X75390000Y-81410000D01*
X75390000Y-83210000D01*
G37*
X75390000Y-88290000D02*
X72890000Y-88290000D01*
X72843000Y-88289000D01*
X72796000Y-88285000D01*
X72749000Y-88279000D01*
X72703000Y-88270000D01*
X72657000Y-88259000D01*
X72612000Y-88246000D01*
X72567000Y-88230000D01*
X72524000Y-88212000D01*
X72481000Y-88192000D01*
X72440000Y-88169000D01*
X72400000Y-88145000D01*
X72361000Y-88118000D01*
X72324000Y-88089000D01*
X72288000Y-88059000D01*
X72254000Y-88026000D01*
X72221000Y-87992000D01*
X72191000Y-87956000D01*
X72162000Y-87919000D01*
X72135000Y-87880000D01*
X72111000Y-87840000D01*
X72088000Y-87799000D01*
X72068000Y-87756000D01*
X72050000Y-87713000D01*
X72034000Y-87668000D01*
X72021000Y-87623000D01*
X72010000Y-87577000D01*
X72001000Y-87531000D01*
X71995000Y-87484000D01*
X71991000Y-87437000D01*
X71990000Y-87390000D01*
X71991000Y-87343000D01*
X71995000Y-87296000D01*
X72001000Y-87249000D01*
X72010000Y-87203000D01*
X72021000Y-87157000D01*
X72034000Y-87112000D01*
X72050000Y-87067000D01*
X72068000Y-87024000D01*
X72088000Y-86981000D01*
X72111000Y-86940000D01*
X72135000Y-86900000D01*
X72162000Y-86861000D01*
X72191000Y-86824000D01*
X72221000Y-86788000D01*
X72254000Y-86754000D01*
X72288000Y-86721000D01*
X72324000Y-86691000D01*
X72361000Y-86662000D01*
X72400000Y-86635000D01*
X72440000Y-86611000D01*
X72481000Y-86588000D01*
X72524000Y-86568000D01*
X72567000Y-86550000D01*
X72612000Y-86534000D01*
X72657000Y-86521000D01*
X72703000Y-86510000D01*
X72749000Y-86501000D01*
X72796000Y-86495000D01*
X72843000Y-86491000D01*
X72890000Y-86490000D01*
X75390000Y-86490000D01*
X75390000Y-88290000D01*
G36*
X75390000Y-88290000D02*
G01*
X72890000Y-88290000D01*
X72843000Y-88289000D01*
X72796000Y-88285000D01*
X72749000Y-88279000D01*
X72703000Y-88270000D01*
X72657000Y-88259000D01*
X72612000Y-88246000D01*
X72567000Y-88230000D01*
X72524000Y-88212000D01*
X72481000Y-88192000D01*
X72440000Y-88169000D01*
X72400000Y-88145000D01*
X72361000Y-88118000D01*
X72324000Y-88089000D01*
X72288000Y-88059000D01*
X72254000Y-88026000D01*
X72221000Y-87992000D01*
X72191000Y-87956000D01*
X72162000Y-87919000D01*
X72135000Y-87880000D01*
X72111000Y-87840000D01*
X72088000Y-87799000D01*
X72068000Y-87756000D01*
X72050000Y-87713000D01*
X72034000Y-87668000D01*
X72021000Y-87623000D01*
X72010000Y-87577000D01*
X72001000Y-87531000D01*
X71995000Y-87484000D01*
X71991000Y-87437000D01*
X71990000Y-87390000D01*
X71991000Y-87343000D01*
X71995000Y-87296000D01*
X72001000Y-87249000D01*
X72010000Y-87203000D01*
X72021000Y-87157000D01*
X72034000Y-87112000D01*
X72050000Y-87067000D01*
X72068000Y-87024000D01*
X72088000Y-86981000D01*
X72111000Y-86940000D01*
X72135000Y-86900000D01*
X72162000Y-86861000D01*
X72191000Y-86824000D01*
X72221000Y-86788000D01*
X72254000Y-86754000D01*
X72288000Y-86721000D01*
X72324000Y-86691000D01*
X72361000Y-86662000D01*
X72400000Y-86635000D01*
X72440000Y-86611000D01*
X72481000Y-86588000D01*
X72524000Y-86568000D01*
X72567000Y-86550000D01*
X72612000Y-86534000D01*
X72657000Y-86521000D01*
X72703000Y-86510000D01*
X72749000Y-86501000D01*
X72796000Y-86495000D01*
X72843000Y-86491000D01*
X72890000Y-86490000D01*
X75390000Y-86490000D01*
X75390000Y-88290000D01*
G37*
X75390000Y-90830000D02*
X72890000Y-90830000D01*
X72843000Y-90829000D01*
X72796000Y-90825000D01*
X72749000Y-90819000D01*
X72703000Y-90810000D01*
X72657000Y-90799000D01*
X72612000Y-90786000D01*
X72567000Y-90770000D01*
X72524000Y-90752000D01*
X72481000Y-90732000D01*
X72440000Y-90709000D01*
X72400000Y-90685000D01*
X72361000Y-90658000D01*
X72324000Y-90629000D01*
X72288000Y-90599000D01*
X72254000Y-90566000D01*
X72221000Y-90532000D01*
X72191000Y-90496000D01*
X72162000Y-90459000D01*
X72135000Y-90420000D01*
X72111000Y-90380000D01*
X72088000Y-90339000D01*
X72068000Y-90296000D01*
X72050000Y-90253000D01*
X72034000Y-90208000D01*
X72021000Y-90163000D01*
X72010000Y-90117000D01*
X72001000Y-90071000D01*
X71995000Y-90024000D01*
X71991000Y-89977000D01*
X71990000Y-89930000D01*
X71991000Y-89883000D01*
X71995000Y-89836000D01*
X72001000Y-89789000D01*
X72010000Y-89743000D01*
X72021000Y-89697000D01*
X72034000Y-89652000D01*
X72050000Y-89607000D01*
X72068000Y-89564000D01*
X72088000Y-89521000D01*
X72111000Y-89480000D01*
X72135000Y-89440000D01*
X72162000Y-89401000D01*
X72191000Y-89364000D01*
X72221000Y-89328000D01*
X72254000Y-89294000D01*
X72288000Y-89261000D01*
X72324000Y-89231000D01*
X72361000Y-89202000D01*
X72400000Y-89175000D01*
X72440000Y-89151000D01*
X72481000Y-89128000D01*
X72524000Y-89108000D01*
X72567000Y-89090000D01*
X72612000Y-89074000D01*
X72657000Y-89061000D01*
X72703000Y-89050000D01*
X72749000Y-89041000D01*
X72796000Y-89035000D01*
X72843000Y-89031000D01*
X72890000Y-89030000D01*
X75390000Y-89030000D01*
X75390000Y-90830000D01*
G36*
X75390000Y-90830000D02*
G01*
X72890000Y-90830000D01*
X72843000Y-90829000D01*
X72796000Y-90825000D01*
X72749000Y-90819000D01*
X72703000Y-90810000D01*
X72657000Y-90799000D01*
X72612000Y-90786000D01*
X72567000Y-90770000D01*
X72524000Y-90752000D01*
X72481000Y-90732000D01*
X72440000Y-90709000D01*
X72400000Y-90685000D01*
X72361000Y-90658000D01*
X72324000Y-90629000D01*
X72288000Y-90599000D01*
X72254000Y-90566000D01*
X72221000Y-90532000D01*
X72191000Y-90496000D01*
X72162000Y-90459000D01*
X72135000Y-90420000D01*
X72111000Y-90380000D01*
X72088000Y-90339000D01*
X72068000Y-90296000D01*
X72050000Y-90253000D01*
X72034000Y-90208000D01*
X72021000Y-90163000D01*
X72010000Y-90117000D01*
X72001000Y-90071000D01*
X71995000Y-90024000D01*
X71991000Y-89977000D01*
X71990000Y-89930000D01*
X71991000Y-89883000D01*
X71995000Y-89836000D01*
X72001000Y-89789000D01*
X72010000Y-89743000D01*
X72021000Y-89697000D01*
X72034000Y-89652000D01*
X72050000Y-89607000D01*
X72068000Y-89564000D01*
X72088000Y-89521000D01*
X72111000Y-89480000D01*
X72135000Y-89440000D01*
X72162000Y-89401000D01*
X72191000Y-89364000D01*
X72221000Y-89328000D01*
X72254000Y-89294000D01*
X72288000Y-89261000D01*
X72324000Y-89231000D01*
X72361000Y-89202000D01*
X72400000Y-89175000D01*
X72440000Y-89151000D01*
X72481000Y-89128000D01*
X72524000Y-89108000D01*
X72567000Y-89090000D01*
X72612000Y-89074000D01*
X72657000Y-89061000D01*
X72703000Y-89050000D01*
X72749000Y-89041000D01*
X72796000Y-89035000D01*
X72843000Y-89031000D01*
X72890000Y-89030000D01*
X75390000Y-89030000D01*
X75390000Y-90830000D01*
G37*
X75390000Y-93370000D02*
X72890000Y-93370000D01*
X72843000Y-93369000D01*
X72796000Y-93365000D01*
X72749000Y-93359000D01*
X72703000Y-93350000D01*
X72657000Y-93339000D01*
X72612000Y-93326000D01*
X72567000Y-93310000D01*
X72524000Y-93292000D01*
X72481000Y-93272000D01*
X72440000Y-93249000D01*
X72400000Y-93225000D01*
X72361000Y-93198000D01*
X72324000Y-93169000D01*
X72288000Y-93139000D01*
X72254000Y-93106000D01*
X72221000Y-93072000D01*
X72191000Y-93036000D01*
X72162000Y-92999000D01*
X72135000Y-92960000D01*
X72111000Y-92920000D01*
X72088000Y-92879000D01*
X72068000Y-92836000D01*
X72050000Y-92793000D01*
X72034000Y-92748000D01*
X72021000Y-92703000D01*
X72010000Y-92657000D01*
X72001000Y-92611000D01*
X71995000Y-92564000D01*
X71991000Y-92517000D01*
X71990000Y-92470000D01*
X71991000Y-92423000D01*
X71995000Y-92376000D01*
X72001000Y-92329000D01*
X72010000Y-92283000D01*
X72021000Y-92237000D01*
X72034000Y-92192000D01*
X72050000Y-92147000D01*
X72068000Y-92104000D01*
X72088000Y-92061000D01*
X72111000Y-92020000D01*
X72135000Y-91980000D01*
X72162000Y-91941000D01*
X72191000Y-91904000D01*
X72221000Y-91868000D01*
X72254000Y-91834000D01*
X72288000Y-91801000D01*
X72324000Y-91771000D01*
X72361000Y-91742000D01*
X72400000Y-91715000D01*
X72440000Y-91691000D01*
X72481000Y-91668000D01*
X72524000Y-91648000D01*
X72567000Y-91630000D01*
X72612000Y-91614000D01*
X72657000Y-91601000D01*
X72703000Y-91590000D01*
X72749000Y-91581000D01*
X72796000Y-91575000D01*
X72843000Y-91571000D01*
X72890000Y-91570000D01*
X75390000Y-91570000D01*
X75390000Y-93370000D01*
G36*
X75390000Y-93370000D02*
G01*
X72890000Y-93370000D01*
X72843000Y-93369000D01*
X72796000Y-93365000D01*
X72749000Y-93359000D01*
X72703000Y-93350000D01*
X72657000Y-93339000D01*
X72612000Y-93326000D01*
X72567000Y-93310000D01*
X72524000Y-93292000D01*
X72481000Y-93272000D01*
X72440000Y-93249000D01*
X72400000Y-93225000D01*
X72361000Y-93198000D01*
X72324000Y-93169000D01*
X72288000Y-93139000D01*
X72254000Y-93106000D01*
X72221000Y-93072000D01*
X72191000Y-93036000D01*
X72162000Y-92999000D01*
X72135000Y-92960000D01*
X72111000Y-92920000D01*
X72088000Y-92879000D01*
X72068000Y-92836000D01*
X72050000Y-92793000D01*
X72034000Y-92748000D01*
X72021000Y-92703000D01*
X72010000Y-92657000D01*
X72001000Y-92611000D01*
X71995000Y-92564000D01*
X71991000Y-92517000D01*
X71990000Y-92470000D01*
X71991000Y-92423000D01*
X71995000Y-92376000D01*
X72001000Y-92329000D01*
X72010000Y-92283000D01*
X72021000Y-92237000D01*
X72034000Y-92192000D01*
X72050000Y-92147000D01*
X72068000Y-92104000D01*
X72088000Y-92061000D01*
X72111000Y-92020000D01*
X72135000Y-91980000D01*
X72162000Y-91941000D01*
X72191000Y-91904000D01*
X72221000Y-91868000D01*
X72254000Y-91834000D01*
X72288000Y-91801000D01*
X72324000Y-91771000D01*
X72361000Y-91742000D01*
X72400000Y-91715000D01*
X72440000Y-91691000D01*
X72481000Y-91668000D01*
X72524000Y-91648000D01*
X72567000Y-91630000D01*
X72612000Y-91614000D01*
X72657000Y-91601000D01*
X72703000Y-91590000D01*
X72749000Y-91581000D01*
X72796000Y-91575000D01*
X72843000Y-91571000D01*
X72890000Y-91570000D01*
X75390000Y-91570000D01*
X75390000Y-93370000D01*
G37*
X75390000Y-95910000D02*
X72890000Y-95910000D01*
X72843000Y-95909000D01*
X72796000Y-95905000D01*
X72749000Y-95899000D01*
X72703000Y-95890000D01*
X72657000Y-95879000D01*
X72612000Y-95866000D01*
X72567000Y-95850000D01*
X72524000Y-95832000D01*
X72481000Y-95812000D01*
X72440000Y-95789000D01*
X72400000Y-95765000D01*
X72361000Y-95738000D01*
X72324000Y-95709000D01*
X72288000Y-95679000D01*
X72254000Y-95646000D01*
X72221000Y-95612000D01*
X72191000Y-95576000D01*
X72162000Y-95539000D01*
X72135000Y-95500000D01*
X72111000Y-95460000D01*
X72088000Y-95419000D01*
X72068000Y-95376000D01*
X72050000Y-95333000D01*
X72034000Y-95288000D01*
X72021000Y-95243000D01*
X72010000Y-95197000D01*
X72001000Y-95151000D01*
X71995000Y-95104000D01*
X71991000Y-95057000D01*
X71990000Y-95010000D01*
X71991000Y-94963000D01*
X71995000Y-94916000D01*
X72001000Y-94869000D01*
X72010000Y-94823000D01*
X72021000Y-94777000D01*
X72034000Y-94732000D01*
X72050000Y-94687000D01*
X72068000Y-94644000D01*
X72088000Y-94601000D01*
X72111000Y-94560000D01*
X72135000Y-94520000D01*
X72162000Y-94481000D01*
X72191000Y-94444000D01*
X72221000Y-94408000D01*
X72254000Y-94374000D01*
X72288000Y-94341000D01*
X72324000Y-94311000D01*
X72361000Y-94282000D01*
X72400000Y-94255000D01*
X72440000Y-94231000D01*
X72481000Y-94208000D01*
X72524000Y-94188000D01*
X72567000Y-94170000D01*
X72612000Y-94154000D01*
X72657000Y-94141000D01*
X72703000Y-94130000D01*
X72749000Y-94121000D01*
X72796000Y-94115000D01*
X72843000Y-94111000D01*
X72890000Y-94110000D01*
X75390000Y-94110000D01*
X75390000Y-95910000D01*
G36*
X75390000Y-95910000D02*
G01*
X72890000Y-95910000D01*
X72843000Y-95909000D01*
X72796000Y-95905000D01*
X72749000Y-95899000D01*
X72703000Y-95890000D01*
X72657000Y-95879000D01*
X72612000Y-95866000D01*
X72567000Y-95850000D01*
X72524000Y-95832000D01*
X72481000Y-95812000D01*
X72440000Y-95789000D01*
X72400000Y-95765000D01*
X72361000Y-95738000D01*
X72324000Y-95709000D01*
X72288000Y-95679000D01*
X72254000Y-95646000D01*
X72221000Y-95612000D01*
X72191000Y-95576000D01*
X72162000Y-95539000D01*
X72135000Y-95500000D01*
X72111000Y-95460000D01*
X72088000Y-95419000D01*
X72068000Y-95376000D01*
X72050000Y-95333000D01*
X72034000Y-95288000D01*
X72021000Y-95243000D01*
X72010000Y-95197000D01*
X72001000Y-95151000D01*
X71995000Y-95104000D01*
X71991000Y-95057000D01*
X71990000Y-95010000D01*
X71991000Y-94963000D01*
X71995000Y-94916000D01*
X72001000Y-94869000D01*
X72010000Y-94823000D01*
X72021000Y-94777000D01*
X72034000Y-94732000D01*
X72050000Y-94687000D01*
X72068000Y-94644000D01*
X72088000Y-94601000D01*
X72111000Y-94560000D01*
X72135000Y-94520000D01*
X72162000Y-94481000D01*
X72191000Y-94444000D01*
X72221000Y-94408000D01*
X72254000Y-94374000D01*
X72288000Y-94341000D01*
X72324000Y-94311000D01*
X72361000Y-94282000D01*
X72400000Y-94255000D01*
X72440000Y-94231000D01*
X72481000Y-94208000D01*
X72524000Y-94188000D01*
X72567000Y-94170000D01*
X72612000Y-94154000D01*
X72657000Y-94141000D01*
X72703000Y-94130000D01*
X72749000Y-94121000D01*
X72796000Y-94115000D01*
X72843000Y-94111000D01*
X72890000Y-94110000D01*
X75390000Y-94110000D01*
X75390000Y-95910000D01*
G37*
X75390000Y-100990000D02*
X72890000Y-100990000D01*
X72843000Y-100989000D01*
X72796000Y-100985000D01*
X72749000Y-100979000D01*
X72703000Y-100970000D01*
X72657000Y-100959000D01*
X72612000Y-100946000D01*
X72567000Y-100930000D01*
X72524000Y-100912000D01*
X72481000Y-100892000D01*
X72440000Y-100869000D01*
X72400000Y-100845000D01*
X72361000Y-100818000D01*
X72324000Y-100789000D01*
X72288000Y-100759000D01*
X72254000Y-100726000D01*
X72221000Y-100692000D01*
X72191000Y-100656000D01*
X72162000Y-100619000D01*
X72135000Y-100580000D01*
X72111000Y-100540000D01*
X72088000Y-100499000D01*
X72068000Y-100456000D01*
X72050000Y-100413000D01*
X72034000Y-100368000D01*
X72021000Y-100323000D01*
X72010000Y-100277000D01*
X72001000Y-100231000D01*
X71995000Y-100184000D01*
X71991000Y-100137000D01*
X71990000Y-100090000D01*
X71991000Y-100043000D01*
X71995000Y-99996000D01*
X72001000Y-99949000D01*
X72010000Y-99903000D01*
X72021000Y-99857000D01*
X72034000Y-99812000D01*
X72050000Y-99767000D01*
X72068000Y-99724000D01*
X72088000Y-99681000D01*
X72111000Y-99640000D01*
X72135000Y-99600000D01*
X72162000Y-99561000D01*
X72191000Y-99524000D01*
X72221000Y-99488000D01*
X72254000Y-99454000D01*
X72288000Y-99421000D01*
X72324000Y-99391000D01*
X72361000Y-99362000D01*
X72400000Y-99335000D01*
X72440000Y-99311000D01*
X72481000Y-99288000D01*
X72524000Y-99268000D01*
X72567000Y-99250000D01*
X72612000Y-99234000D01*
X72657000Y-99221000D01*
X72703000Y-99210000D01*
X72749000Y-99201000D01*
X72796000Y-99195000D01*
X72843000Y-99191000D01*
X72890000Y-99190000D01*
X75390000Y-99190000D01*
X75390000Y-100990000D01*
G36*
X75390000Y-100990000D02*
G01*
X72890000Y-100990000D01*
X72843000Y-100989000D01*
X72796000Y-100985000D01*
X72749000Y-100979000D01*
X72703000Y-100970000D01*
X72657000Y-100959000D01*
X72612000Y-100946000D01*
X72567000Y-100930000D01*
X72524000Y-100912000D01*
X72481000Y-100892000D01*
X72440000Y-100869000D01*
X72400000Y-100845000D01*
X72361000Y-100818000D01*
X72324000Y-100789000D01*
X72288000Y-100759000D01*
X72254000Y-100726000D01*
X72221000Y-100692000D01*
X72191000Y-100656000D01*
X72162000Y-100619000D01*
X72135000Y-100580000D01*
X72111000Y-100540000D01*
X72088000Y-100499000D01*
X72068000Y-100456000D01*
X72050000Y-100413000D01*
X72034000Y-100368000D01*
X72021000Y-100323000D01*
X72010000Y-100277000D01*
X72001000Y-100231000D01*
X71995000Y-100184000D01*
X71991000Y-100137000D01*
X71990000Y-100090000D01*
X71991000Y-100043000D01*
X71995000Y-99996000D01*
X72001000Y-99949000D01*
X72010000Y-99903000D01*
X72021000Y-99857000D01*
X72034000Y-99812000D01*
X72050000Y-99767000D01*
X72068000Y-99724000D01*
X72088000Y-99681000D01*
X72111000Y-99640000D01*
X72135000Y-99600000D01*
X72162000Y-99561000D01*
X72191000Y-99524000D01*
X72221000Y-99488000D01*
X72254000Y-99454000D01*
X72288000Y-99421000D01*
X72324000Y-99391000D01*
X72361000Y-99362000D01*
X72400000Y-99335000D01*
X72440000Y-99311000D01*
X72481000Y-99288000D01*
X72524000Y-99268000D01*
X72567000Y-99250000D01*
X72612000Y-99234000D01*
X72657000Y-99221000D01*
X72703000Y-99210000D01*
X72749000Y-99201000D01*
X72796000Y-99195000D01*
X72843000Y-99191000D01*
X72890000Y-99190000D01*
X75390000Y-99190000D01*
X75390000Y-100990000D01*
G37*
X75390000Y-103530000D02*
X72890000Y-103530000D01*
X72843000Y-103529000D01*
X72796000Y-103525000D01*
X72749000Y-103519000D01*
X72703000Y-103510000D01*
X72657000Y-103499000D01*
X72612000Y-103486000D01*
X72567000Y-103470000D01*
X72524000Y-103452000D01*
X72481000Y-103432000D01*
X72440000Y-103409000D01*
X72400000Y-103385000D01*
X72361000Y-103358000D01*
X72324000Y-103329000D01*
X72288000Y-103299000D01*
X72254000Y-103266000D01*
X72221000Y-103232000D01*
X72191000Y-103196000D01*
X72162000Y-103159000D01*
X72135000Y-103120000D01*
X72111000Y-103080000D01*
X72088000Y-103039000D01*
X72068000Y-102996000D01*
X72050000Y-102953000D01*
X72034000Y-102908000D01*
X72021000Y-102863000D01*
X72010000Y-102817000D01*
X72001000Y-102771000D01*
X71995000Y-102724000D01*
X71991000Y-102677000D01*
X71990000Y-102630000D01*
X71991000Y-102583000D01*
X71995000Y-102536000D01*
X72001000Y-102489000D01*
X72010000Y-102443000D01*
X72021000Y-102397000D01*
X72034000Y-102352000D01*
X72050000Y-102307000D01*
X72068000Y-102264000D01*
X72088000Y-102221000D01*
X72111000Y-102180000D01*
X72135000Y-102140000D01*
X72162000Y-102101000D01*
X72191000Y-102064000D01*
X72221000Y-102028000D01*
X72254000Y-101994000D01*
X72288000Y-101961000D01*
X72324000Y-101931000D01*
X72361000Y-101902000D01*
X72400000Y-101875000D01*
X72440000Y-101851000D01*
X72481000Y-101828000D01*
X72524000Y-101808000D01*
X72567000Y-101790000D01*
X72612000Y-101774000D01*
X72657000Y-101761000D01*
X72703000Y-101750000D01*
X72749000Y-101741000D01*
X72796000Y-101735000D01*
X72843000Y-101731000D01*
X72890000Y-101730000D01*
X75390000Y-101730000D01*
X75390000Y-103530000D01*
G36*
X75390000Y-103530000D02*
G01*
X72890000Y-103530000D01*
X72843000Y-103529000D01*
X72796000Y-103525000D01*
X72749000Y-103519000D01*
X72703000Y-103510000D01*
X72657000Y-103499000D01*
X72612000Y-103486000D01*
X72567000Y-103470000D01*
X72524000Y-103452000D01*
X72481000Y-103432000D01*
X72440000Y-103409000D01*
X72400000Y-103385000D01*
X72361000Y-103358000D01*
X72324000Y-103329000D01*
X72288000Y-103299000D01*
X72254000Y-103266000D01*
X72221000Y-103232000D01*
X72191000Y-103196000D01*
X72162000Y-103159000D01*
X72135000Y-103120000D01*
X72111000Y-103080000D01*
X72088000Y-103039000D01*
X72068000Y-102996000D01*
X72050000Y-102953000D01*
X72034000Y-102908000D01*
X72021000Y-102863000D01*
X72010000Y-102817000D01*
X72001000Y-102771000D01*
X71995000Y-102724000D01*
X71991000Y-102677000D01*
X71990000Y-102630000D01*
X71991000Y-102583000D01*
X71995000Y-102536000D01*
X72001000Y-102489000D01*
X72010000Y-102443000D01*
X72021000Y-102397000D01*
X72034000Y-102352000D01*
X72050000Y-102307000D01*
X72068000Y-102264000D01*
X72088000Y-102221000D01*
X72111000Y-102180000D01*
X72135000Y-102140000D01*
X72162000Y-102101000D01*
X72191000Y-102064000D01*
X72221000Y-102028000D01*
X72254000Y-101994000D01*
X72288000Y-101961000D01*
X72324000Y-101931000D01*
X72361000Y-101902000D01*
X72400000Y-101875000D01*
X72440000Y-101851000D01*
X72481000Y-101828000D01*
X72524000Y-101808000D01*
X72567000Y-101790000D01*
X72612000Y-101774000D01*
X72657000Y-101761000D01*
X72703000Y-101750000D01*
X72749000Y-101741000D01*
X72796000Y-101735000D01*
X72843000Y-101731000D01*
X72890000Y-101730000D01*
X75390000Y-101730000D01*
X75390000Y-103530000D01*
G37*
X55741000Y-58552000D02*
X55757000Y-58554000D01*
X55772000Y-58557000D01*
X55788000Y-58560000D01*
X55803000Y-58565000D01*
X55818000Y-58570000D01*
X55832000Y-58576000D01*
X55846000Y-58583000D01*
X55860000Y-58590000D01*
X55873000Y-58598000D01*
X55886000Y-58607000D01*
X55899000Y-58617000D01*
X55911000Y-58627000D01*
X55922000Y-58638000D01*
X55933000Y-58649000D01*
X55943000Y-58661000D01*
X55953000Y-58674000D01*
X55962000Y-58687000D01*
X55970000Y-58700000D01*
X55977000Y-58714000D01*
X55984000Y-58728000D01*
X55990000Y-58742000D01*
X55995000Y-58757000D01*
X56000000Y-58772000D01*
X56003000Y-58788000D01*
X56006000Y-58803000D01*
X56008000Y-58819000D01*
X56010000Y-58834000D01*
X56010000Y-58850000D01*
X56010000Y-60050000D01*
X56010000Y-60066000D01*
X56008000Y-60081000D01*
X56006000Y-60097000D01*
X56003000Y-60112000D01*
X56000000Y-60128000D01*
X55995000Y-60143000D01*
X55990000Y-60158000D01*
X55984000Y-60172000D01*
X55977000Y-60186000D01*
X55970000Y-60200000D01*
X55962000Y-60213000D01*
X55953000Y-60226000D01*
X55943000Y-60239000D01*
X55933000Y-60251000D01*
X55922000Y-60262000D01*
X55911000Y-60273000D01*
X55899000Y-60283000D01*
X55886000Y-60293000D01*
X55873000Y-60302000D01*
X55860000Y-60310000D01*
X55846000Y-60317000D01*
X55832000Y-60324000D01*
X55818000Y-60330000D01*
X55803000Y-60335000D01*
X55788000Y-60340000D01*
X55772000Y-60343000D01*
X55757000Y-60346000D01*
X55741000Y-60348000D01*
X55726000Y-60350000D01*
X55710000Y-60350000D01*
X52610000Y-60350000D01*
X52610000Y-58550000D01*
X55710000Y-58550000D01*
X55726000Y-58550000D01*
X55741000Y-58552000D01*
G36*
X55741000Y-58552000D02*
G01*
X55757000Y-58554000D01*
X55772000Y-58557000D01*
X55788000Y-58560000D01*
X55803000Y-58565000D01*
X55818000Y-58570000D01*
X55832000Y-58576000D01*
X55846000Y-58583000D01*
X55860000Y-58590000D01*
X55873000Y-58598000D01*
X55886000Y-58607000D01*
X55899000Y-58617000D01*
X55911000Y-58627000D01*
X55922000Y-58638000D01*
X55933000Y-58649000D01*
X55943000Y-58661000D01*
X55953000Y-58674000D01*
X55962000Y-58687000D01*
X55970000Y-58700000D01*
X55977000Y-58714000D01*
X55984000Y-58728000D01*
X55990000Y-58742000D01*
X55995000Y-58757000D01*
X56000000Y-58772000D01*
X56003000Y-58788000D01*
X56006000Y-58803000D01*
X56008000Y-58819000D01*
X56010000Y-58834000D01*
X56010000Y-58850000D01*
X56010000Y-60050000D01*
X56010000Y-60066000D01*
X56008000Y-60081000D01*
X56006000Y-60097000D01*
X56003000Y-60112000D01*
X56000000Y-60128000D01*
X55995000Y-60143000D01*
X55990000Y-60158000D01*
X55984000Y-60172000D01*
X55977000Y-60186000D01*
X55970000Y-60200000D01*
X55962000Y-60213000D01*
X55953000Y-60226000D01*
X55943000Y-60239000D01*
X55933000Y-60251000D01*
X55922000Y-60262000D01*
X55911000Y-60273000D01*
X55899000Y-60283000D01*
X55886000Y-60293000D01*
X55873000Y-60302000D01*
X55860000Y-60310000D01*
X55846000Y-60317000D01*
X55832000Y-60324000D01*
X55818000Y-60330000D01*
X55803000Y-60335000D01*
X55788000Y-60340000D01*
X55772000Y-60343000D01*
X55757000Y-60346000D01*
X55741000Y-60348000D01*
X55726000Y-60350000D01*
X55710000Y-60350000D01*
X52610000Y-60350000D01*
X52610000Y-58550000D01*
X55710000Y-58550000D01*
X55726000Y-58550000D01*
X55741000Y-58552000D01*
G37*
X55741000Y-71252000D02*
X55757000Y-71254000D01*
X55772000Y-71257000D01*
X55788000Y-71260000D01*
X55803000Y-71265000D01*
X55818000Y-71270000D01*
X55832000Y-71276000D01*
X55846000Y-71283000D01*
X55860000Y-71290000D01*
X55873000Y-71298000D01*
X55886000Y-71307000D01*
X55899000Y-71317000D01*
X55911000Y-71327000D01*
X55922000Y-71338000D01*
X55933000Y-71349000D01*
X55943000Y-71361000D01*
X55953000Y-71374000D01*
X55962000Y-71387000D01*
X55970000Y-71400000D01*
X55977000Y-71414000D01*
X55984000Y-71428000D01*
X55990000Y-71442000D01*
X55995000Y-71457000D01*
X56000000Y-71472000D01*
X56003000Y-71488000D01*
X56006000Y-71503000D01*
X56008000Y-71519000D01*
X56010000Y-71534000D01*
X56010000Y-71550000D01*
X56010000Y-72750000D01*
X56010000Y-72766000D01*
X56008000Y-72781000D01*
X56006000Y-72797000D01*
X56003000Y-72812000D01*
X56000000Y-72828000D01*
X55995000Y-72843000D01*
X55990000Y-72858000D01*
X55984000Y-72872000D01*
X55977000Y-72886000D01*
X55970000Y-72900000D01*
X55962000Y-72913000D01*
X55953000Y-72926000D01*
X55943000Y-72939000D01*
X55933000Y-72951000D01*
X55922000Y-72962000D01*
X55911000Y-72973000D01*
X55899000Y-72983000D01*
X55886000Y-72993000D01*
X55873000Y-73002000D01*
X55860000Y-73010000D01*
X55846000Y-73017000D01*
X55832000Y-73024000D01*
X55818000Y-73030000D01*
X55803000Y-73035000D01*
X55788000Y-73040000D01*
X55772000Y-73043000D01*
X55757000Y-73046000D01*
X55741000Y-73048000D01*
X55726000Y-73050000D01*
X55710000Y-73050000D01*
X52610000Y-73050000D01*
X52610000Y-71250000D01*
X55710000Y-71250000D01*
X55726000Y-71250000D01*
X55741000Y-71252000D01*
G36*
X55741000Y-71252000D02*
G01*
X55757000Y-71254000D01*
X55772000Y-71257000D01*
X55788000Y-71260000D01*
X55803000Y-71265000D01*
X55818000Y-71270000D01*
X55832000Y-71276000D01*
X55846000Y-71283000D01*
X55860000Y-71290000D01*
X55873000Y-71298000D01*
X55886000Y-71307000D01*
X55899000Y-71317000D01*
X55911000Y-71327000D01*
X55922000Y-71338000D01*
X55933000Y-71349000D01*
X55943000Y-71361000D01*
X55953000Y-71374000D01*
X55962000Y-71387000D01*
X55970000Y-71400000D01*
X55977000Y-71414000D01*
X55984000Y-71428000D01*
X55990000Y-71442000D01*
X55995000Y-71457000D01*
X56000000Y-71472000D01*
X56003000Y-71488000D01*
X56006000Y-71503000D01*
X56008000Y-71519000D01*
X56010000Y-71534000D01*
X56010000Y-71550000D01*
X56010000Y-72750000D01*
X56010000Y-72766000D01*
X56008000Y-72781000D01*
X56006000Y-72797000D01*
X56003000Y-72812000D01*
X56000000Y-72828000D01*
X55995000Y-72843000D01*
X55990000Y-72858000D01*
X55984000Y-72872000D01*
X55977000Y-72886000D01*
X55970000Y-72900000D01*
X55962000Y-72913000D01*
X55953000Y-72926000D01*
X55943000Y-72939000D01*
X55933000Y-72951000D01*
X55922000Y-72962000D01*
X55911000Y-72973000D01*
X55899000Y-72983000D01*
X55886000Y-72993000D01*
X55873000Y-73002000D01*
X55860000Y-73010000D01*
X55846000Y-73017000D01*
X55832000Y-73024000D01*
X55818000Y-73030000D01*
X55803000Y-73035000D01*
X55788000Y-73040000D01*
X55772000Y-73043000D01*
X55757000Y-73046000D01*
X55741000Y-73048000D01*
X55726000Y-73050000D01*
X55710000Y-73050000D01*
X52610000Y-73050000D01*
X52610000Y-71250000D01*
X55710000Y-71250000D01*
X55726000Y-71250000D01*
X55741000Y-71252000D01*
G37*
X55741000Y-83952000D02*
X55757000Y-83954000D01*
X55772000Y-83957000D01*
X55788000Y-83960000D01*
X55803000Y-83965000D01*
X55818000Y-83970000D01*
X55832000Y-83976000D01*
X55846000Y-83983000D01*
X55860000Y-83990000D01*
X55873000Y-83998000D01*
X55886000Y-84007000D01*
X55899000Y-84017000D01*
X55911000Y-84027000D01*
X55922000Y-84038000D01*
X55933000Y-84049000D01*
X55943000Y-84061000D01*
X55953000Y-84074000D01*
X55962000Y-84087000D01*
X55970000Y-84100000D01*
X55977000Y-84114000D01*
X55984000Y-84128000D01*
X55990000Y-84142000D01*
X55995000Y-84157000D01*
X56000000Y-84172000D01*
X56003000Y-84188000D01*
X56006000Y-84203000D01*
X56008000Y-84219000D01*
X56010000Y-84234000D01*
X56010000Y-84250000D01*
X56010000Y-85450000D01*
X56010000Y-85466000D01*
X56008000Y-85481000D01*
X56006000Y-85497000D01*
X56003000Y-85512000D01*
X56000000Y-85528000D01*
X55995000Y-85543000D01*
X55990000Y-85558000D01*
X55984000Y-85572000D01*
X55977000Y-85586000D01*
X55970000Y-85600000D01*
X55962000Y-85613000D01*
X55953000Y-85626000D01*
X55943000Y-85639000D01*
X55933000Y-85651000D01*
X55922000Y-85662000D01*
X55911000Y-85673000D01*
X55899000Y-85683000D01*
X55886000Y-85693000D01*
X55873000Y-85702000D01*
X55860000Y-85710000D01*
X55846000Y-85717000D01*
X55832000Y-85724000D01*
X55818000Y-85730000D01*
X55803000Y-85735000D01*
X55788000Y-85740000D01*
X55772000Y-85743000D01*
X55757000Y-85746000D01*
X55741000Y-85748000D01*
X55726000Y-85750000D01*
X55710000Y-85750000D01*
X52610000Y-85750000D01*
X52610000Y-83950000D01*
X55710000Y-83950000D01*
X55726000Y-83950000D01*
X55741000Y-83952000D01*
G36*
X55741000Y-83952000D02*
G01*
X55757000Y-83954000D01*
X55772000Y-83957000D01*
X55788000Y-83960000D01*
X55803000Y-83965000D01*
X55818000Y-83970000D01*
X55832000Y-83976000D01*
X55846000Y-83983000D01*
X55860000Y-83990000D01*
X55873000Y-83998000D01*
X55886000Y-84007000D01*
X55899000Y-84017000D01*
X55911000Y-84027000D01*
X55922000Y-84038000D01*
X55933000Y-84049000D01*
X55943000Y-84061000D01*
X55953000Y-84074000D01*
X55962000Y-84087000D01*
X55970000Y-84100000D01*
X55977000Y-84114000D01*
X55984000Y-84128000D01*
X55990000Y-84142000D01*
X55995000Y-84157000D01*
X56000000Y-84172000D01*
X56003000Y-84188000D01*
X56006000Y-84203000D01*
X56008000Y-84219000D01*
X56010000Y-84234000D01*
X56010000Y-84250000D01*
X56010000Y-85450000D01*
X56010000Y-85466000D01*
X56008000Y-85481000D01*
X56006000Y-85497000D01*
X56003000Y-85512000D01*
X56000000Y-85528000D01*
X55995000Y-85543000D01*
X55990000Y-85558000D01*
X55984000Y-85572000D01*
X55977000Y-85586000D01*
X55970000Y-85600000D01*
X55962000Y-85613000D01*
X55953000Y-85626000D01*
X55943000Y-85639000D01*
X55933000Y-85651000D01*
X55922000Y-85662000D01*
X55911000Y-85673000D01*
X55899000Y-85683000D01*
X55886000Y-85693000D01*
X55873000Y-85702000D01*
X55860000Y-85710000D01*
X55846000Y-85717000D01*
X55832000Y-85724000D01*
X55818000Y-85730000D01*
X55803000Y-85735000D01*
X55788000Y-85740000D01*
X55772000Y-85743000D01*
X55757000Y-85746000D01*
X55741000Y-85748000D01*
X55726000Y-85750000D01*
X55710000Y-85750000D01*
X52610000Y-85750000D01*
X52610000Y-83950000D01*
X55710000Y-83950000D01*
X55726000Y-83950000D01*
X55741000Y-83952000D01*
G37*
X55741000Y-96652000D02*
X55757000Y-96654000D01*
X55772000Y-96657000D01*
X55788000Y-96660000D01*
X55803000Y-96665000D01*
X55818000Y-96670000D01*
X55832000Y-96676000D01*
X55846000Y-96683000D01*
X55860000Y-96690000D01*
X55873000Y-96698000D01*
X55886000Y-96707000D01*
X55899000Y-96717000D01*
X55911000Y-96727000D01*
X55922000Y-96738000D01*
X55933000Y-96749000D01*
X55943000Y-96761000D01*
X55953000Y-96774000D01*
X55962000Y-96787000D01*
X55970000Y-96800000D01*
X55977000Y-96814000D01*
X55984000Y-96828000D01*
X55990000Y-96842000D01*
X55995000Y-96857000D01*
X56000000Y-96872000D01*
X56003000Y-96888000D01*
X56006000Y-96903000D01*
X56008000Y-96919000D01*
X56010000Y-96934000D01*
X56010000Y-96950000D01*
X56010000Y-98150000D01*
X56010000Y-98166000D01*
X56008000Y-98181000D01*
X56006000Y-98197000D01*
X56003000Y-98212000D01*
X56000000Y-98228000D01*
X55995000Y-98243000D01*
X55990000Y-98258000D01*
X55984000Y-98272000D01*
X55977000Y-98286000D01*
X55970000Y-98300000D01*
X55962000Y-98313000D01*
X55953000Y-98326000D01*
X55943000Y-98339000D01*
X55933000Y-98351000D01*
X55922000Y-98362000D01*
X55911000Y-98373000D01*
X55899000Y-98383000D01*
X55886000Y-98393000D01*
X55873000Y-98402000D01*
X55860000Y-98410000D01*
X55846000Y-98417000D01*
X55832000Y-98424000D01*
X55818000Y-98430000D01*
X55803000Y-98435000D01*
X55788000Y-98440000D01*
X55772000Y-98443000D01*
X55757000Y-98446000D01*
X55741000Y-98448000D01*
X55726000Y-98450000D01*
X55710000Y-98450000D01*
X52610000Y-98450000D01*
X52610000Y-96650000D01*
X55710000Y-96650000D01*
X55726000Y-96650000D01*
X55741000Y-96652000D01*
G36*
X55741000Y-96652000D02*
G01*
X55757000Y-96654000D01*
X55772000Y-96657000D01*
X55788000Y-96660000D01*
X55803000Y-96665000D01*
X55818000Y-96670000D01*
X55832000Y-96676000D01*
X55846000Y-96683000D01*
X55860000Y-96690000D01*
X55873000Y-96698000D01*
X55886000Y-96707000D01*
X55899000Y-96717000D01*
X55911000Y-96727000D01*
X55922000Y-96738000D01*
X55933000Y-96749000D01*
X55943000Y-96761000D01*
X55953000Y-96774000D01*
X55962000Y-96787000D01*
X55970000Y-96800000D01*
X55977000Y-96814000D01*
X55984000Y-96828000D01*
X55990000Y-96842000D01*
X55995000Y-96857000D01*
X56000000Y-96872000D01*
X56003000Y-96888000D01*
X56006000Y-96903000D01*
X56008000Y-96919000D01*
X56010000Y-96934000D01*
X56010000Y-96950000D01*
X56010000Y-98150000D01*
X56010000Y-98166000D01*
X56008000Y-98181000D01*
X56006000Y-98197000D01*
X56003000Y-98212000D01*
X56000000Y-98228000D01*
X55995000Y-98243000D01*
X55990000Y-98258000D01*
X55984000Y-98272000D01*
X55977000Y-98286000D01*
X55970000Y-98300000D01*
X55962000Y-98313000D01*
X55953000Y-98326000D01*
X55943000Y-98339000D01*
X55933000Y-98351000D01*
X55922000Y-98362000D01*
X55911000Y-98373000D01*
X55899000Y-98383000D01*
X55886000Y-98393000D01*
X55873000Y-98402000D01*
X55860000Y-98410000D01*
X55846000Y-98417000D01*
X55832000Y-98424000D01*
X55818000Y-98430000D01*
X55803000Y-98435000D01*
X55788000Y-98440000D01*
X55772000Y-98443000D01*
X55757000Y-98446000D01*
X55741000Y-98448000D01*
X55726000Y-98450000D01*
X55710000Y-98450000D01*
X52610000Y-98450000D01*
X52610000Y-96650000D01*
X55710000Y-96650000D01*
X55726000Y-96650000D01*
X55741000Y-96652000D01*
G37*
X64631000Y-101502000D02*
X64647000Y-101504000D01*
X64662000Y-101507000D01*
X64678000Y-101510000D01*
X64693000Y-101515000D01*
X64708000Y-101520000D01*
X64722000Y-101526000D01*
X64736000Y-101533000D01*
X64750000Y-101540000D01*
X64763000Y-101548000D01*
X64776000Y-101557000D01*
X64789000Y-101567000D01*
X64801000Y-101577000D01*
X64812000Y-101588000D01*
X64823000Y-101599000D01*
X64833000Y-101611000D01*
X64843000Y-101624000D01*
X64852000Y-101637000D01*
X64860000Y-101650000D01*
X64867000Y-101664000D01*
X64874000Y-101678000D01*
X64880000Y-101692000D01*
X64885000Y-101707000D01*
X64890000Y-101722000D01*
X64893000Y-101738000D01*
X64896000Y-101753000D01*
X64898000Y-101769000D01*
X64900000Y-101784000D01*
X64900000Y-101800000D01*
X64900000Y-104900000D01*
X63100000Y-104900000D01*
X63100000Y-101800000D01*
X63100000Y-101784000D01*
X63102000Y-101769000D01*
X63104000Y-101753000D01*
X63107000Y-101738000D01*
X63110000Y-101722000D01*
X63115000Y-101707000D01*
X63120000Y-101692000D01*
X63126000Y-101678000D01*
X63133000Y-101664000D01*
X63140000Y-101650000D01*
X63148000Y-101637000D01*
X63157000Y-101624000D01*
X63167000Y-101611000D01*
X63177000Y-101599000D01*
X63188000Y-101588000D01*
X63199000Y-101577000D01*
X63211000Y-101567000D01*
X63224000Y-101557000D01*
X63237000Y-101548000D01*
X63250000Y-101540000D01*
X63264000Y-101533000D01*
X63278000Y-101526000D01*
X63292000Y-101520000D01*
X63307000Y-101515000D01*
X63322000Y-101510000D01*
X63338000Y-101507000D01*
X63353000Y-101504000D01*
X63369000Y-101502000D01*
X63384000Y-101500000D01*
X63400000Y-101500000D01*
X64600000Y-101500000D01*
X64616000Y-101500000D01*
X64631000Y-101502000D01*
G36*
X64631000Y-101502000D02*
G01*
X64647000Y-101504000D01*
X64662000Y-101507000D01*
X64678000Y-101510000D01*
X64693000Y-101515000D01*
X64708000Y-101520000D01*
X64722000Y-101526000D01*
X64736000Y-101533000D01*
X64750000Y-101540000D01*
X64763000Y-101548000D01*
X64776000Y-101557000D01*
X64789000Y-101567000D01*
X64801000Y-101577000D01*
X64812000Y-101588000D01*
X64823000Y-101599000D01*
X64833000Y-101611000D01*
X64843000Y-101624000D01*
X64852000Y-101637000D01*
X64860000Y-101650000D01*
X64867000Y-101664000D01*
X64874000Y-101678000D01*
X64880000Y-101692000D01*
X64885000Y-101707000D01*
X64890000Y-101722000D01*
X64893000Y-101738000D01*
X64896000Y-101753000D01*
X64898000Y-101769000D01*
X64900000Y-101784000D01*
X64900000Y-101800000D01*
X64900000Y-104900000D01*
X63100000Y-104900000D01*
X63100000Y-101800000D01*
X63100000Y-101784000D01*
X63102000Y-101769000D01*
X63104000Y-101753000D01*
X63107000Y-101738000D01*
X63110000Y-101722000D01*
X63115000Y-101707000D01*
X63120000Y-101692000D01*
X63126000Y-101678000D01*
X63133000Y-101664000D01*
X63140000Y-101650000D01*
X63148000Y-101637000D01*
X63157000Y-101624000D01*
X63167000Y-101611000D01*
X63177000Y-101599000D01*
X63188000Y-101588000D01*
X63199000Y-101577000D01*
X63211000Y-101567000D01*
X63224000Y-101557000D01*
X63237000Y-101548000D01*
X63250000Y-101540000D01*
X63264000Y-101533000D01*
X63278000Y-101526000D01*
X63292000Y-101520000D01*
X63307000Y-101515000D01*
X63322000Y-101510000D01*
X63338000Y-101507000D01*
X63353000Y-101504000D01*
X63369000Y-101502000D01*
X63384000Y-101500000D01*
X63400000Y-101500000D01*
X64600000Y-101500000D01*
X64616000Y-101500000D01*
X64631000Y-101502000D01*
G37*
X75390000Y-60350000D02*
X72290000Y-60350000D01*
X72274000Y-60350000D01*
X72259000Y-60348000D01*
X72243000Y-60346000D01*
X72228000Y-60343000D01*
X72212000Y-60340000D01*
X72197000Y-60335000D01*
X72182000Y-60330000D01*
X72168000Y-60324000D01*
X72154000Y-60317000D01*
X72140000Y-60310000D01*
X72127000Y-60302000D01*
X72114000Y-60293000D01*
X72101000Y-60283000D01*
X72089000Y-60273000D01*
X72078000Y-60262000D01*
X72067000Y-60251000D01*
X72057000Y-60239000D01*
X72047000Y-60226000D01*
X72038000Y-60213000D01*
X72030000Y-60200000D01*
X72023000Y-60186000D01*
X72016000Y-60172000D01*
X72010000Y-60158000D01*
X72005000Y-60143000D01*
X72000000Y-60128000D01*
X71997000Y-60112000D01*
X71994000Y-60097000D01*
X71992000Y-60081000D01*
X71990000Y-60066000D01*
X71990000Y-60050000D01*
X71990000Y-58850000D01*
X71990000Y-58834000D01*
X71992000Y-58819000D01*
X71994000Y-58803000D01*
X71997000Y-58788000D01*
X72000000Y-58772000D01*
X72005000Y-58757000D01*
X72010000Y-58742000D01*
X72016000Y-58728000D01*
X72023000Y-58714000D01*
X72030000Y-58700000D01*
X72038000Y-58687000D01*
X72047000Y-58674000D01*
X72057000Y-58661000D01*
X72067000Y-58649000D01*
X72078000Y-58638000D01*
X72089000Y-58627000D01*
X72101000Y-58617000D01*
X72114000Y-58607000D01*
X72127000Y-58598000D01*
X72140000Y-58590000D01*
X72154000Y-58583000D01*
X72168000Y-58576000D01*
X72182000Y-58570000D01*
X72197000Y-58565000D01*
X72212000Y-58560000D01*
X72228000Y-58557000D01*
X72243000Y-58554000D01*
X72259000Y-58552000D01*
X72274000Y-58550000D01*
X72290000Y-58550000D01*
X75390000Y-58550000D01*
X75390000Y-60350000D01*
G36*
X75390000Y-60350000D02*
G01*
X72290000Y-60350000D01*
X72274000Y-60350000D01*
X72259000Y-60348000D01*
X72243000Y-60346000D01*
X72228000Y-60343000D01*
X72212000Y-60340000D01*
X72197000Y-60335000D01*
X72182000Y-60330000D01*
X72168000Y-60324000D01*
X72154000Y-60317000D01*
X72140000Y-60310000D01*
X72127000Y-60302000D01*
X72114000Y-60293000D01*
X72101000Y-60283000D01*
X72089000Y-60273000D01*
X72078000Y-60262000D01*
X72067000Y-60251000D01*
X72057000Y-60239000D01*
X72047000Y-60226000D01*
X72038000Y-60213000D01*
X72030000Y-60200000D01*
X72023000Y-60186000D01*
X72016000Y-60172000D01*
X72010000Y-60158000D01*
X72005000Y-60143000D01*
X72000000Y-60128000D01*
X71997000Y-60112000D01*
X71994000Y-60097000D01*
X71992000Y-60081000D01*
X71990000Y-60066000D01*
X71990000Y-60050000D01*
X71990000Y-58850000D01*
X71990000Y-58834000D01*
X71992000Y-58819000D01*
X71994000Y-58803000D01*
X71997000Y-58788000D01*
X72000000Y-58772000D01*
X72005000Y-58757000D01*
X72010000Y-58742000D01*
X72016000Y-58728000D01*
X72023000Y-58714000D01*
X72030000Y-58700000D01*
X72038000Y-58687000D01*
X72047000Y-58674000D01*
X72057000Y-58661000D01*
X72067000Y-58649000D01*
X72078000Y-58638000D01*
X72089000Y-58627000D01*
X72101000Y-58617000D01*
X72114000Y-58607000D01*
X72127000Y-58598000D01*
X72140000Y-58590000D01*
X72154000Y-58583000D01*
X72168000Y-58576000D01*
X72182000Y-58570000D01*
X72197000Y-58565000D01*
X72212000Y-58560000D01*
X72228000Y-58557000D01*
X72243000Y-58554000D01*
X72259000Y-58552000D01*
X72274000Y-58550000D01*
X72290000Y-58550000D01*
X75390000Y-58550000D01*
X75390000Y-60350000D01*
G37*
X75390000Y-73050000D02*
X72290000Y-73050000D01*
X72274000Y-73050000D01*
X72259000Y-73048000D01*
X72243000Y-73046000D01*
X72228000Y-73043000D01*
X72212000Y-73040000D01*
X72197000Y-73035000D01*
X72182000Y-73030000D01*
X72168000Y-73024000D01*
X72154000Y-73017000D01*
X72140000Y-73010000D01*
X72127000Y-73002000D01*
X72114000Y-72993000D01*
X72101000Y-72983000D01*
X72089000Y-72973000D01*
X72078000Y-72962000D01*
X72067000Y-72951000D01*
X72057000Y-72939000D01*
X72047000Y-72926000D01*
X72038000Y-72913000D01*
X72030000Y-72900000D01*
X72023000Y-72886000D01*
X72016000Y-72872000D01*
X72010000Y-72858000D01*
X72005000Y-72843000D01*
X72000000Y-72828000D01*
X71997000Y-72812000D01*
X71994000Y-72797000D01*
X71992000Y-72781000D01*
X71990000Y-72766000D01*
X71990000Y-72750000D01*
X71990000Y-71550000D01*
X71990000Y-71534000D01*
X71992000Y-71519000D01*
X71994000Y-71503000D01*
X71997000Y-71488000D01*
X72000000Y-71472000D01*
X72005000Y-71457000D01*
X72010000Y-71442000D01*
X72016000Y-71428000D01*
X72023000Y-71414000D01*
X72030000Y-71400000D01*
X72038000Y-71387000D01*
X72047000Y-71374000D01*
X72057000Y-71361000D01*
X72067000Y-71349000D01*
X72078000Y-71338000D01*
X72089000Y-71327000D01*
X72101000Y-71317000D01*
X72114000Y-71307000D01*
X72127000Y-71298000D01*
X72140000Y-71290000D01*
X72154000Y-71283000D01*
X72168000Y-71276000D01*
X72182000Y-71270000D01*
X72197000Y-71265000D01*
X72212000Y-71260000D01*
X72228000Y-71257000D01*
X72243000Y-71254000D01*
X72259000Y-71252000D01*
X72274000Y-71250000D01*
X72290000Y-71250000D01*
X75390000Y-71250000D01*
X75390000Y-73050000D01*
G36*
X75390000Y-73050000D02*
G01*
X72290000Y-73050000D01*
X72274000Y-73050000D01*
X72259000Y-73048000D01*
X72243000Y-73046000D01*
X72228000Y-73043000D01*
X72212000Y-73040000D01*
X72197000Y-73035000D01*
X72182000Y-73030000D01*
X72168000Y-73024000D01*
X72154000Y-73017000D01*
X72140000Y-73010000D01*
X72127000Y-73002000D01*
X72114000Y-72993000D01*
X72101000Y-72983000D01*
X72089000Y-72973000D01*
X72078000Y-72962000D01*
X72067000Y-72951000D01*
X72057000Y-72939000D01*
X72047000Y-72926000D01*
X72038000Y-72913000D01*
X72030000Y-72900000D01*
X72023000Y-72886000D01*
X72016000Y-72872000D01*
X72010000Y-72858000D01*
X72005000Y-72843000D01*
X72000000Y-72828000D01*
X71997000Y-72812000D01*
X71994000Y-72797000D01*
X71992000Y-72781000D01*
X71990000Y-72766000D01*
X71990000Y-72750000D01*
X71990000Y-71550000D01*
X71990000Y-71534000D01*
X71992000Y-71519000D01*
X71994000Y-71503000D01*
X71997000Y-71488000D01*
X72000000Y-71472000D01*
X72005000Y-71457000D01*
X72010000Y-71442000D01*
X72016000Y-71428000D01*
X72023000Y-71414000D01*
X72030000Y-71400000D01*
X72038000Y-71387000D01*
X72047000Y-71374000D01*
X72057000Y-71361000D01*
X72067000Y-71349000D01*
X72078000Y-71338000D01*
X72089000Y-71327000D01*
X72101000Y-71317000D01*
X72114000Y-71307000D01*
X72127000Y-71298000D01*
X72140000Y-71290000D01*
X72154000Y-71283000D01*
X72168000Y-71276000D01*
X72182000Y-71270000D01*
X72197000Y-71265000D01*
X72212000Y-71260000D01*
X72228000Y-71257000D01*
X72243000Y-71254000D01*
X72259000Y-71252000D01*
X72274000Y-71250000D01*
X72290000Y-71250000D01*
X75390000Y-71250000D01*
X75390000Y-73050000D01*
G37*
X75390000Y-85750000D02*
X72290000Y-85750000D01*
X72274000Y-85750000D01*
X72259000Y-85748000D01*
X72243000Y-85746000D01*
X72228000Y-85743000D01*
X72212000Y-85740000D01*
X72197000Y-85735000D01*
X72182000Y-85730000D01*
X72168000Y-85724000D01*
X72154000Y-85717000D01*
X72140000Y-85710000D01*
X72127000Y-85702000D01*
X72114000Y-85693000D01*
X72101000Y-85683000D01*
X72089000Y-85673000D01*
X72078000Y-85662000D01*
X72067000Y-85651000D01*
X72057000Y-85639000D01*
X72047000Y-85626000D01*
X72038000Y-85613000D01*
X72030000Y-85600000D01*
X72023000Y-85586000D01*
X72016000Y-85572000D01*
X72010000Y-85558000D01*
X72005000Y-85543000D01*
X72000000Y-85528000D01*
X71997000Y-85512000D01*
X71994000Y-85497000D01*
X71992000Y-85481000D01*
X71990000Y-85466000D01*
X71990000Y-85450000D01*
X71990000Y-84250000D01*
X71990000Y-84234000D01*
X71992000Y-84219000D01*
X71994000Y-84203000D01*
X71997000Y-84188000D01*
X72000000Y-84172000D01*
X72005000Y-84157000D01*
X72010000Y-84142000D01*
X72016000Y-84128000D01*
X72023000Y-84114000D01*
X72030000Y-84100000D01*
X72038000Y-84087000D01*
X72047000Y-84074000D01*
X72057000Y-84061000D01*
X72067000Y-84049000D01*
X72078000Y-84038000D01*
X72089000Y-84027000D01*
X72101000Y-84017000D01*
X72114000Y-84007000D01*
X72127000Y-83998000D01*
X72140000Y-83990000D01*
X72154000Y-83983000D01*
X72168000Y-83976000D01*
X72182000Y-83970000D01*
X72197000Y-83965000D01*
X72212000Y-83960000D01*
X72228000Y-83957000D01*
X72243000Y-83954000D01*
X72259000Y-83952000D01*
X72274000Y-83950000D01*
X72290000Y-83950000D01*
X75390000Y-83950000D01*
X75390000Y-85750000D01*
G36*
X75390000Y-85750000D02*
G01*
X72290000Y-85750000D01*
X72274000Y-85750000D01*
X72259000Y-85748000D01*
X72243000Y-85746000D01*
X72228000Y-85743000D01*
X72212000Y-85740000D01*
X72197000Y-85735000D01*
X72182000Y-85730000D01*
X72168000Y-85724000D01*
X72154000Y-85717000D01*
X72140000Y-85710000D01*
X72127000Y-85702000D01*
X72114000Y-85693000D01*
X72101000Y-85683000D01*
X72089000Y-85673000D01*
X72078000Y-85662000D01*
X72067000Y-85651000D01*
X72057000Y-85639000D01*
X72047000Y-85626000D01*
X72038000Y-85613000D01*
X72030000Y-85600000D01*
X72023000Y-85586000D01*
X72016000Y-85572000D01*
X72010000Y-85558000D01*
X72005000Y-85543000D01*
X72000000Y-85528000D01*
X71997000Y-85512000D01*
X71994000Y-85497000D01*
X71992000Y-85481000D01*
X71990000Y-85466000D01*
X71990000Y-85450000D01*
X71990000Y-84250000D01*
X71990000Y-84234000D01*
X71992000Y-84219000D01*
X71994000Y-84203000D01*
X71997000Y-84188000D01*
X72000000Y-84172000D01*
X72005000Y-84157000D01*
X72010000Y-84142000D01*
X72016000Y-84128000D01*
X72023000Y-84114000D01*
X72030000Y-84100000D01*
X72038000Y-84087000D01*
X72047000Y-84074000D01*
X72057000Y-84061000D01*
X72067000Y-84049000D01*
X72078000Y-84038000D01*
X72089000Y-84027000D01*
X72101000Y-84017000D01*
X72114000Y-84007000D01*
X72127000Y-83998000D01*
X72140000Y-83990000D01*
X72154000Y-83983000D01*
X72168000Y-83976000D01*
X72182000Y-83970000D01*
X72197000Y-83965000D01*
X72212000Y-83960000D01*
X72228000Y-83957000D01*
X72243000Y-83954000D01*
X72259000Y-83952000D01*
X72274000Y-83950000D01*
X72290000Y-83950000D01*
X75390000Y-83950000D01*
X75390000Y-85750000D01*
G37*
X75390000Y-98450000D02*
X72290000Y-98450000D01*
X72274000Y-98450000D01*
X72259000Y-98448000D01*
X72243000Y-98446000D01*
X72228000Y-98443000D01*
X72212000Y-98440000D01*
X72197000Y-98435000D01*
X72182000Y-98430000D01*
X72168000Y-98424000D01*
X72154000Y-98417000D01*
X72140000Y-98410000D01*
X72127000Y-98402000D01*
X72114000Y-98393000D01*
X72101000Y-98383000D01*
X72089000Y-98373000D01*
X72078000Y-98362000D01*
X72067000Y-98351000D01*
X72057000Y-98339000D01*
X72047000Y-98326000D01*
X72038000Y-98313000D01*
X72030000Y-98300000D01*
X72023000Y-98286000D01*
X72016000Y-98272000D01*
X72010000Y-98258000D01*
X72005000Y-98243000D01*
X72000000Y-98228000D01*
X71997000Y-98212000D01*
X71994000Y-98197000D01*
X71992000Y-98181000D01*
X71990000Y-98166000D01*
X71990000Y-98150000D01*
X71990000Y-96950000D01*
X71990000Y-96934000D01*
X71992000Y-96919000D01*
X71994000Y-96903000D01*
X71997000Y-96888000D01*
X72000000Y-96872000D01*
X72005000Y-96857000D01*
X72010000Y-96842000D01*
X72016000Y-96828000D01*
X72023000Y-96814000D01*
X72030000Y-96800000D01*
X72038000Y-96787000D01*
X72047000Y-96774000D01*
X72057000Y-96761000D01*
X72067000Y-96749000D01*
X72078000Y-96738000D01*
X72089000Y-96727000D01*
X72101000Y-96717000D01*
X72114000Y-96707000D01*
X72127000Y-96698000D01*
X72140000Y-96690000D01*
X72154000Y-96683000D01*
X72168000Y-96676000D01*
X72182000Y-96670000D01*
X72197000Y-96665000D01*
X72212000Y-96660000D01*
X72228000Y-96657000D01*
X72243000Y-96654000D01*
X72259000Y-96652000D01*
X72274000Y-96650000D01*
X72290000Y-96650000D01*
X75390000Y-96650000D01*
X75390000Y-98450000D01*
G36*
X75390000Y-98450000D02*
G01*
X72290000Y-98450000D01*
X72274000Y-98450000D01*
X72259000Y-98448000D01*
X72243000Y-98446000D01*
X72228000Y-98443000D01*
X72212000Y-98440000D01*
X72197000Y-98435000D01*
X72182000Y-98430000D01*
X72168000Y-98424000D01*
X72154000Y-98417000D01*
X72140000Y-98410000D01*
X72127000Y-98402000D01*
X72114000Y-98393000D01*
X72101000Y-98383000D01*
X72089000Y-98373000D01*
X72078000Y-98362000D01*
X72067000Y-98351000D01*
X72057000Y-98339000D01*
X72047000Y-98326000D01*
X72038000Y-98313000D01*
X72030000Y-98300000D01*
X72023000Y-98286000D01*
X72016000Y-98272000D01*
X72010000Y-98258000D01*
X72005000Y-98243000D01*
X72000000Y-98228000D01*
X71997000Y-98212000D01*
X71994000Y-98197000D01*
X71992000Y-98181000D01*
X71990000Y-98166000D01*
X71990000Y-98150000D01*
X71990000Y-96950000D01*
X71990000Y-96934000D01*
X71992000Y-96919000D01*
X71994000Y-96903000D01*
X71997000Y-96888000D01*
X72000000Y-96872000D01*
X72005000Y-96857000D01*
X72010000Y-96842000D01*
X72016000Y-96828000D01*
X72023000Y-96814000D01*
X72030000Y-96800000D01*
X72038000Y-96787000D01*
X72047000Y-96774000D01*
X72057000Y-96761000D01*
X72067000Y-96749000D01*
X72078000Y-96738000D01*
X72089000Y-96727000D01*
X72101000Y-96717000D01*
X72114000Y-96707000D01*
X72127000Y-96698000D01*
X72140000Y-96690000D01*
X72154000Y-96683000D01*
X72168000Y-96676000D01*
X72182000Y-96670000D01*
X72197000Y-96665000D01*
X72212000Y-96660000D01*
X72228000Y-96657000D01*
X72243000Y-96654000D01*
X72259000Y-96652000D01*
X72274000Y-96650000D01*
X72290000Y-96650000D01*
X75390000Y-96650000D01*
X75390000Y-98450000D01*
G37*
%TD*%
D11*
%TO.C,TP301*%
X84600000Y-56500000D03*
%TD*%
D12*
%TO.C,R302*%
X90800000Y-80550000D03*
X90800000Y-81450000D03*
%TD*%
D13*
%TO.C,D301*%
X89925000Y-61000000D03*
D14*
X92075000Y-61000000D03*
%TD*%
D15*
%TO.C,F301*%
X84600000Y-60800000D03*
X84600000Y-65000000D03*
%TD*%
D16*
%TO.C,D303*%
X92475000Y-92600000D03*
D17*
X90325000Y-92600000D03*
%TD*%
D13*
%TO.C,D302*%
X90425000Y-96000000D03*
D14*
X92575000Y-96000000D03*
%TD*%
D18*
%TO.C,J302*%
X85070000Y-102940000D03*
X88880000Y-102940000D03*
X92690000Y-102940000D03*
D19*
X96500000Y-102940000D03*
%TD*%
D20*
%TO.C,C302*%
X89305661Y-78176414D03*
X90805661Y-78176414D03*
%TD*%
D21*
%TO.C,Q301*%
X78500000Y-55550000D03*
X78500000Y-57450000D03*
X80500000Y-56500000D03*
%TD*%
D22*
%TO.C,R301*%
X86300000Y-84000000D03*
X87200000Y-84000000D03*
%TD*%
D18*
%TO.C,J301*%
X93000000Y-56500000D03*
D23*
X89190000Y-56500000D03*
%TD*%
D11*
%TO.C,TP304*%
X82800000Y-78200000D03*
%TD*%
%TO.C,TP302*%
X97600000Y-56400000D03*
%TD*%
%TO.C,TP303*%
X87400000Y-95600000D03*
%TD*%
D20*
%TO.C,C301*%
X90650000Y-89600000D03*
X92150000Y-89600000D03*
%TD*%
D24*
%TO.C,IR301*%
X79900000Y-69530000D03*
X79900000Y-72070000D03*
X85700000Y-72070000D03*
X85700000Y-69530000D03*
%TD*%
D25*
%TO.C,U301*%
X61275000Y-54500000D03*
X66725000Y-54500000D03*
D26*
X61575000Y-57530000D03*
X66425000Y-57530000D03*
D27*
X64000000Y-57500000D03*
X65000000Y-54200000D03*
X63000000Y-54200000D03*
X61500000Y-61000000D03*
X61500000Y-63500000D03*
X61500000Y-66000000D03*
%TD*%
M02*
